<?xml version="1.0" encoding="UTF-8"?>
<svg version="1.1" xmlns="http://www.w3.org/2000/svg" width="512" height="512">
<path d="M0 0 C16.06381718 13.66660138 25.96113156 33.00516116 28.3515625 53.91015625 C29.73170564 76.05468819 25.02349579 98.33568894 10.03222656 115.41308594 C8.16355701 117.4548533 6.26617273 119.46824053 4.36425781 121.47900391 C-4.54698289 131.01696238 -10.88585057 142.55810008 -11.82421875 155.7578125 C-11.55495088 159.05484797 -9.93066123 160.62793252 -7.6484375 162.91015625 C-4.63708863 168.89058944 -4.99842325 175.38046769 -5.6484375 181.91015625 C-6.6171875 184.42578125 -6.6171875 184.42578125 -7.7734375 186.47265625 C-10.01647026 189.67823385 -10.01647026 189.67823385 -9.0234375 192.59765625 C-8.3428125 193.74234375 -8.3428125 193.74234375 -7.6484375 194.91015625 C-4.51483548 201.45385459 -4.50247513 209.36982433 -6.265625 216.35546875 C-8.62519615 221.68016471 -12.86157429 225.68463319 -17.6484375 228.91015625 C-19.8984375 229.6015625 -19.8984375 229.6015625 -21.6484375 229.91015625 C-21.5659375 231.18890625 -21.4834375 232.46765625 -21.3984375 233.78515625 C-21.42332891 241.70062588 -24.57695339 248.6094558 -29.93359375 254.375 C-33.71150121 257.75704472 -37.84305825 260.30836317 -42.6484375 261.91015625 C-42.33527888 268.01674935 -39.54510534 272.38159633 -35.6484375 276.91015625 C-24.02969737 286.52777769 -12.58478875 286.2541749 1.7722168 285.01049805 C42.31561494 281.05631455 81.73938089 261.00121522 107.97753906 229.60742188 C123.4577829 210.48541492 133.55300189 189.48566552 140.3515625 165.91015625 C140.70992188 164.67265625 141.06828125 163.43515625 141.4375 162.16015625 C150.84074886 124.17475493 145.16531339 80.83788718 131.015625 44.7734375 C130.3515625 42.91015625 130.3515625 42.91015625 130.3515625 40.91015625 C132.6413859 39.90574285 134.9332224 38.90648013 137.2265625 37.91015625 C137.87753906 37.62398437 138.52851563 37.3378125 139.19921875 37.04296875 C144.125 34.91015625 144.125 34.91015625 146.3515625 34.91015625 C151.03075231 47.07335282 155.44279564 59.19118513 158.3515625 71.91015625 C158.54911133 72.75078613 158.74666016 73.59141602 158.95019531 74.45751953 C162.46857148 90.23262837 162.77125351 106.00820776 162.8515625 122.09765625 C162.86200592 123.10306458 162.87244934 124.1084729 162.88320923 125.14434814 C163.27878889 173.9743029 144.81454015 216.7714908 111.3515625 251.91015625 C110.37123047 252.96976562 110.37123047 252.96976562 109.37109375 254.05078125 C80.40576456 284.436585 35.90826834 302.273879 -5.61108398 303.36572266 C-23.32947744 303.57022184 -35.77369685 301.52785758 -48.796875 288.8125 C-56.29780481 280.90724497 -60.11615042 272.65903574 -61.6484375 261.91015625 C-62.855 261.84828125 -62.855 261.84828125 -64.0859375 261.78515625 C-71.55442783 259.95079021 -77.13788261 255.259288 -81.4296875 248.9765625 C-85.17007945 242.63467999 -86.1062777 237.23559953 -85.6484375 229.91015625 C-86.4940625 229.72453125 -87.3396875 229.53890625 -88.2109375 229.34765625 C-93.90580984 226.96616418 -97.32213924 223.00656317 -100.5859375 217.84765625 C-102.80155668 211.72700826 -103.02291253 203.45398344 -100.67578125 197.40234375 C-100.29550781 196.72429687 -99.91523438 196.04625 -99.5234375 195.34765625 C-97.28040474 192.14207865 -97.28040474 192.14207865 -98.2734375 189.22265625 C-98.9540625 188.07796875 -98.9540625 188.07796875 -99.6484375 186.91015625 C-102.77027639 180.39102209 -102.99362818 172.16781167 -100.8203125 165.2890625 C-99.42493215 162.45144201 -97.88583361 160.14755236 -95.6484375 157.91015625 C-94.77191842 146.6277825 -101.2856013 134.80562013 -107.6484375 125.91015625 C-109.27840906 124.14664485 -110.98720326 122.51028206 -112.73046875 120.859375 C-128.64114137 104.68946535 -135.92705825 83.35677499 -135.89501953 61.02807617 C-135.5676894 38.81670909 -126.53449735 19.58567391 -111.41015625 3.51171875 C-79.9727246 -26.10260866 -33.11784626 -26.13281379 0 0 Z " fill="#000000" transform="translate(309.6484375,129.08984375)"/>
<path d="M0 0 C1.1706601 -0.00852997 2.34132019 -0.01705994 3.54745483 -0.02584839 C4.82294693 -0.02494202 6.09843903 -0.02403564 7.4125824 -0.02310181 C8.77627428 -0.02908938 10.13996278 -0.03589545 11.50364685 -0.04345703 C15.19980066 -0.06109561 18.89586182 -0.06581135 22.59205365 -0.0670886 C24.90157803 -0.06851135 27.21107892 -0.07278316 29.52059746 -0.07808304 C37.57819487 -0.09657235 45.63572619 -0.10475455 53.69334412 -0.10317993 C61.20464492 -0.10197705 68.71565906 -0.1231108 76.22688729 -0.15466726 C82.67796638 -0.1808043 89.12895165 -0.1915484 95.58008331 -0.19026911 C99.43227123 -0.18975895 103.28420401 -0.19547231 107.13633919 -0.21662521 C110.75702087 -0.23596597 114.37720278 -0.23616124 117.99790192 -0.22159195 C119.960428 -0.21849897 121.92295392 -0.23520715 123.88540649 -0.25247192 C125.6371669 -0.23988846 125.6371669 -0.23988846 127.42431641 -0.22705078 C128.94659521 -0.22868508 128.94659521 -0.22868508 130.49962711 -0.2303524 C133.89699875 0.40804382 135.06923841 1.54848052 137.14866638 4.26742554 C137.9028249 8.38101747 138.18736895 10.70798661 135.84416199 14.22592163 C132.78727957 17.68172639 129.9030948 20.57319142 126.00901794 23.07211304 C120.36626046 26.95368839 115.35984744 31.35379977 113.65620422 38.26528931 C111.64603408 50.42886469 112.45522194 63.10661134 112.81962585 75.37539673 C113.02751579 82.98192081 113.08328639 90.59156072 113.157341 98.20031738 C113.19480251 100.84035483 113.26591494 103.4776754 113.34391785 106.11679077 C113.37657471 107.74251501 113.40884223 109.36824713 113.44065857 110.99398804 C113.47082565 111.71620041 113.50099274 112.43841278 113.53207397 113.18251038 C113.61842964 119.61716437 111.41762346 124.67819817 107.18382263 129.50961304 C106.53284607 130.04844116 105.88186951 130.58726929 105.21116638 131.14242554 C104.23856873 131.97387085 104.23856873 131.97387085 103.24632263 132.82211304 C97.77574085 136.5914152 92.7760218 136.56426675 86.3447113 136.55795288 C85.36196732 136.5646701 84.37922333 136.57138733 83.36669922 136.57830811 C80.12079295 136.59729168 76.87509345 136.60121259 73.62913513 136.60336304 C71.36858027 136.609791 69.10802625 136.61651936 66.84747314 136.62353516 C62.10890271 136.63550903 57.37040518 136.63921589 52.63182068 136.63803101 C46.56905448 136.63782788 40.50675737 136.66512333 34.44410229 136.69957542 C29.77456529 136.72184749 25.10514109 136.72586843 20.43555641 136.72481155 C18.20090939 136.7271673 15.96625925 136.73598927 13.73166466 136.75147629 C10.60104712 136.77114062 7.47143995 136.76529579 4.34080505 136.75326538 C3.42364716 136.76450439 2.50648926 136.77574341 1.5615387 136.787323 C-5.48416945 136.71875543 -10.75442271 134.98126907 -16.09352112 130.30258179 C-16.90176331 129.32611694 -16.90176331 129.32611694 -17.72633362 128.32992554 C-18.28063049 127.6815271 -18.83492737 127.03312866 -19.40602112 126.36508179 C-23.17532328 120.8945 -23.14817483 115.89478096 -23.14186096 109.46347046 C-23.14857819 108.48072647 -23.15529541 107.49798248 -23.16221619 106.48545837 C-23.18119976 103.23955211 -23.18512067 99.9938526 -23.18727112 96.74789429 C-23.19369908 94.48733943 -23.20042744 92.22678541 -23.20744324 89.9662323 C-23.21941711 85.22766186 -23.22312397 80.48916433 -23.22193909 75.75057983 C-23.22173596 69.68781364 -23.24903141 63.62551653 -23.28348351 57.56286144 C-23.30575557 52.89332444 -23.30977651 48.22390024 -23.30871964 43.55431557 C-23.31107538 41.31966855 -23.31989735 39.08501841 -23.33538437 36.85042381 C-23.3550487 33.71980628 -23.34920387 30.5901991 -23.33717346 27.45956421 C-23.34841248 26.54240631 -23.35965149 25.62524841 -23.37123108 24.68029785 C-23.30266352 17.63458971 -21.56517715 12.36433645 -16.88648987 7.02523804 C-16.23551331 6.48640991 -15.58453674 5.94758179 -14.91383362 5.39242554 C-14.26543518 4.83812866 -13.61703674 4.28383179 -12.94898987 3.71273804 C-8.7400017 0.81269032 -5.06915087 0.01673534 0 0 Z " fill="#89CBE6" transform="translate(38.85133361816406,359.7325744628906)"/>
<path d="M0 0 C0.98274399 -0.00671722 1.96548798 -0.01343445 2.97801208 -0.02035522 C6.22391835 -0.0393388 9.46961786 -0.04325971 12.71557617 -0.04541016 C14.97613103 -0.05183812 17.23668505 -0.05856648 19.49723816 -0.06558228 C24.2358086 -0.07755615 28.97430613 -0.08126301 33.71289062 -0.08007812 C39.77565682 -0.079875 45.83795393 -0.10717045 51.90060902 -0.14162254 C56.57014602 -0.16389461 61.23957022 -0.16791555 65.90915489 -0.16685867 C68.14380191 -0.16921442 70.37845205 -0.17803639 72.61304665 -0.19352341 C75.74366418 -0.21318774 78.87327135 -0.20734291 82.00390625 -0.1953125 C82.92106415 -0.20655151 83.83822205 -0.21779053 84.78317261 -0.22937012 C91.82888075 -0.16080255 97.09913401 1.57668381 102.43823242 6.25537109 C102.97706055 6.90634766 103.51588867 7.55732422 104.07104492 8.22802734 C104.6253418 8.87642578 105.17963867 9.52482422 105.75073242 10.19287109 C109.52003458 15.66345288 109.49288614 20.66317192 109.48657227 27.09448242 C109.49328949 28.07722641 109.50000671 29.0599704 109.50692749 30.07249451 C109.52591106 33.31840077 109.52983198 36.56410028 109.53198242 39.81005859 C109.53841038 42.07061345 109.54513874 44.33116747 109.55215454 46.59172058 C109.56412842 51.33029102 109.56783527 56.06878855 109.56665039 60.80737305 C109.56644727 66.87013924 109.59374271 72.93243635 109.62819481 78.99509144 C109.65046688 83.66462844 109.65448782 88.33405264 109.65343094 93.00363731 C109.65578668 95.23828433 109.66460866 97.47293447 109.68009567 99.70752907 C109.69976001 102.8381466 109.69391518 105.96775378 109.68188477 109.09838867 C109.69312378 110.01554657 109.70436279 110.93270447 109.71594238 111.87765503 C109.64737482 118.92336317 107.90988846 124.19361643 103.23120117 129.53271484 C102.58022461 130.07154297 101.92924805 130.61037109 101.25854492 131.16552734 C100.61014648 131.71982422 99.96174805 132.27412109 99.29370117 132.84521484 C95.084713 135.74526256 91.41386218 136.54121754 86.3447113 136.55795288 C84.58872116 136.57074783 84.58872116 136.57074783 82.79725647 136.58380127 C81.52176437 136.5828949 80.24627228 136.58198853 78.93212891 136.58105469 C77.56843702 136.58704226 76.20474852 136.59384833 74.84106445 136.60140991 C71.14491064 136.6190485 67.44884948 136.62376423 63.75265765 136.62504148 C61.44313328 136.62646423 59.13363238 136.63073604 56.82411385 136.63603592 C48.76651643 136.65452523 40.70898512 136.66270743 32.65136719 136.66113281 C25.14006639 136.65992993 17.62905224 136.68106368 10.11782402 136.71262014 C3.66674492 136.73875718 -2.78424035 136.74950128 -9.23537201 136.74822199 C-13.08755993 136.74771183 -16.93949271 136.75342519 -20.79162788 136.77457809 C-24.41230956 136.79391885 -28.03249147 136.79411412 -31.65319061 136.77954483 C-33.6157167 136.77645185 -35.57824261 136.79316003 -37.54069519 136.8104248 C-38.70853546 136.80203583 -39.87637573 136.79364685 -41.0796051 136.78500366 C-42.6018839 136.78663796 -42.6018839 136.78663796 -44.15491581 136.78830528 C-47.55228744 136.14990906 -48.7245271 135.00947236 -50.80395508 132.29052734 C-51.5581136 128.17693541 -51.84265765 125.84996627 -49.49945068 122.33203125 C-46.44256827 118.8762265 -43.5583835 115.98476146 -39.66430664 113.48583984 C-34.02154916 109.60426449 -29.01513613 105.20415311 -27.31149292 98.29266357 C-25.30132277 86.12908819 -26.11051063 73.45134154 -26.47491455 61.18255615 C-26.68280448 53.57603207 -26.73857509 45.96639217 -26.8126297 38.3576355 C-26.85009121 35.71759805 -26.92120363 33.08027748 -26.99920654 30.44116211 C-27.03186341 28.81543787 -27.06413093 27.18970575 -27.09594727 25.56396484 C-27.12611435 24.84175247 -27.15628143 24.1195401 -27.18736267 23.3754425 C-27.27371834 16.94078852 -25.07291216 11.87975471 -20.83911133 7.04833984 C-20.18813477 6.50951172 -19.5371582 5.97068359 -18.86645508 5.41552734 C-18.21805664 4.86123047 -17.5696582 4.30693359 -16.90161133 3.73583984 C-11.43102955 -0.03346232 -6.4313105 -0.00631387 0 0 Z " fill="#89CBE6" transform="translate(386.803955078125,15.70947265625)"/>
<path d="M0 0 C13.02825454 9.71232831 22.24232824 23.98097045 25.59375 39.93359375 C25.81843622 43.84728783 25.77890018 47.76408807 25.78125 51.68359375 C25.79349609 52.74320312 25.80574219 53.8028125 25.81835938 54.89453125 C25.84680559 70.17963251 20.19466676 85.75588968 9.61328125 97.046875 C8.26817547 98.34514924 6.91921231 99.63943894 5.56640625 100.9296875 C-5.14051363 111.80622195 -10.84439932 126.3764649 -14.40625 140.93359375 C-16.71625 140.93359375 -19.02625 140.93359375 -21.40625 140.93359375 C-20.81534853 133.16926593 -19.48852476 125.65596749 -17.9375 118.03125 C-17.57694519 116.23197304 -17.57694519 116.23197304 -17.20910645 114.39634705 C-16.70368451 111.87892785 -16.19595771 109.3619704 -15.68603516 106.84545898 C-14.9039217 102.98460025 -14.12910859 99.12233032 -13.35546875 95.25976562 C-12.86240228 92.8085086 -12.3689272 90.35733373 -11.875 87.90625 C-11.64268677 86.75004654 -11.41037354 85.59384308 -11.17102051 84.40260315 C-10.95409546 83.3339653 -10.73717041 82.26532745 -10.51367188 81.16430664 C-10.32349487 80.22406143 -10.13331787 79.28381622 -9.93737793 78.31507874 C-9.40625 75.93359375 -9.40625 75.93359375 -8.40625 72.93359375 C-8.062759 67.60063943 -8.062759 67.60063943 -10.40625 62.93359375 C-13.39402117 61.93767003 -15.42593911 61.78990296 -18.54858398 61.7565918 C-19.59654648 61.74375656 -20.64450897 61.73092133 -21.72422791 61.71769714 C-22.85550613 61.71031021 -23.98678436 61.70292328 -25.15234375 61.6953125 C-26.31500259 61.68724075 -27.47766144 61.67916901 -28.67555237 61.67085266 C-31.13598134 61.65701733 -33.59642946 61.64629272 -36.05688477 61.63842773 C-39.82539933 61.62117775 -43.5930451 61.57728093 -47.36132812 61.53320312 C-49.74999354 61.5230795 -52.13866642 61.51456237 -54.52734375 61.5078125 C-55.65659775 61.49030441 -56.78585175 61.47279633 -57.94932556 61.45475769 C-59.00044022 61.45768326 -60.05155487 61.46060883 -61.13452148 61.46362305 C-62.51993385 61.45482368 -62.51993385 61.45482368 -63.93333435 61.44584656 C-67.18794283 62.08777147 -68.38059118 63.35737938 -70.40625 65.93359375 C-71.30051019 72.44040125 -69.27914041 78.85848556 -67.84375 85.18359375 C-67.29608876 87.66881155 -66.75062527 90.1545144 -66.20703125 92.640625 C-66.06348206 93.29515152 -65.91993286 93.94967804 -65.77203369 94.6240387 C-64.10746517 102.24308386 -62.54376445 109.88229721 -61.00418091 117.52746582 C-60.69015864 119.08361567 -60.37415457 120.63936698 -60.05612183 122.19470215 C-59.60812778 124.38667407 -59.16649793 126.57983588 -58.7265625 128.7734375 C-58.47148926 130.03534912 -58.21641602 131.29726074 -57.95361328 132.59741211 C-57.48330774 135.46392645 -57.28992379 138.04023743 -57.40625 140.93359375 C-59.71625 140.93359375 -62.02625 140.93359375 -64.40625 140.93359375 C-64.84324219 139.40992188 -64.84324219 139.40992188 -65.2890625 137.85546875 C-70.06780613 121.61725035 -77.06400546 108.45779588 -88.96875 96.18359375 C-102.84583343 81.2109511 -105.35265727 62.40381458 -104.61962891 42.84130859 C-103.50435261 27.64343593 -94.01030389 13.39775988 -83.12109375 3.1796875 C-58.64098556 -17.07363942 -26.11568426 -17.44797871 0 0 Z " fill="#ECDA98" transform="translate(295.40625,139.06640625)"/>
<path d="M0 0 C0.92336151 0.00087616 1.84672302 0.00175232 2.79806519 0.00265503 C33.44114305 0.09826474 64.07331487 5.47202485 91.6875 19.375 C92.0175 20.035 92.3475 20.695 92.6875 21.375 C91.61231882 23.81832726 90.48941434 26.14254523 89.25 28.5 C88.91162109 29.15871094 88.57324219 29.81742188 88.22460938 30.49609375 C87.38600074 32.12606547 86.53765189 33.75101909 85.6875 35.375 C80.84455759 33.77068162 76.01129265 32.14499928 71.19140625 30.47265625 C59.14044342 26.32376555 47.23458243 22.6571462 34.6875 20.375 C33.55054688 20.16230469 32.41359375 19.94960938 31.2421875 19.73046875 C-18.99220887 11.47682679 -72.6739281 24.18443035 -114.09277344 53.64111328 C-120.74687107 58.48537092 -127.01370145 63.72364292 -133.05859375 69.3125 C-135.0526769 71.1372416 -137.09973501 72.8477033 -139.1875 74.5625 C-175.33467554 106.1912786 -194.77926185 157.74365318 -198.03515625 204.4765625 C-200.0849098 238.80502295 -193.36818036 274.14809371 -177.4296875 304.75 C-176.3125 307.375 -176.3125 307.375 -177.3125 310.375 C-179.9296875 312.015625 -179.9296875 312.015625 -183.1875 313.625 C-184.25742188 314.16640625 -185.32734375 314.7078125 -186.4296875 315.265625 C-189.3125 316.375 -189.3125 316.375 -192.3125 315.375 C-193.36816406 313.85058594 -193.36816406 313.85058594 -194.328125 311.859375 C-194.68874023 311.11397461 -195.04935547 310.36857422 -195.42089844 309.60058594 C-195.79762695 308.78364258 -196.17435547 307.96669922 -196.5625 307.125 C-196.95727539 306.27454102 -197.35205078 305.42408203 -197.75878906 304.54785156 C-210.2777226 276.89303227 -215.75778685 247.29263603 -215.6875 217.0625 C-215.68662384 216.13947083 -215.68574768 215.21644165 -215.68484497 214.26544189 C-215.50386158 156.28437486 -192.09135783 103.99068821 -152.3125 62.375 C-151.35923828 61.35986328 -151.35923828 61.35986328 -150.38671875 60.32421875 C-145.44054299 55.18916755 -139.92056291 50.76330922 -134.3125 46.375 C-133.7659375 45.94670898 -133.219375 45.51841797 -132.65625 45.07714844 C-104.54022429 23.23930347 -70.54742863 7.91147577 -35.3125 2.375 C-34.26747314 2.20129883 -33.22244629 2.02759766 -32.14575195 1.84863281 C-21.41619105 0.22058936 -10.83492889 -0.0251893 0 0 Z " fill="#000000" transform="translate(255.3125,31.625)"/>
<path d="M0 0 C1.1706601 -0.00852997 2.34132019 -0.01705994 3.54745483 -0.02584839 C4.82294693 -0.02494202 6.09843903 -0.02403564 7.4125824 -0.02310181 C8.77627428 -0.02908938 10.13996278 -0.03589545 11.50364685 -0.04345703 C15.19980066 -0.06109561 18.89586182 -0.06581135 22.59205365 -0.0670886 C24.90157803 -0.06851135 27.21107892 -0.07278316 29.52059746 -0.07808304 C37.57819487 -0.09657235 45.63572619 -0.10475455 53.69334412 -0.10317993 C61.20464492 -0.10197705 68.71565906 -0.1231108 76.22688729 -0.15466726 C82.67796638 -0.1808043 89.12895165 -0.1915484 95.58008331 -0.19026911 C99.43227123 -0.18975895 103.28420401 -0.19547231 107.13633919 -0.21662521 C110.75702087 -0.23596597 114.37720278 -0.23616124 117.99790192 -0.22159195 C119.960428 -0.21849897 121.92295392 -0.23520715 123.88540649 -0.25247192 C125.6371669 -0.23988846 125.6371669 -0.23988846 127.42431641 -0.22705078 C128.94659521 -0.22868508 128.94659521 -0.22868508 130.49962711 -0.2303524 C133.89699875 0.40804382 135.06923841 1.54848052 137.14866638 4.26742554 C137.9028249 8.38101747 138.18736895 10.70798661 135.84416199 14.22592163 C132.78727957 17.68172639 129.9030948 20.57319142 126.00901794 23.07211304 C120.36626046 26.95368839 115.35984744 31.35379977 113.65620422 38.26528931 C111.64603408 50.42886469 112.45522194 63.10661134 112.81962585 75.37539673 C113.02751579 82.98192081 113.08328639 90.59156072 113.157341 98.20031738 C113.19480251 100.84035483 113.26591494 103.4776754 113.34391785 106.11679077 C113.37657471 107.74251501 113.40884223 109.36824713 113.44065857 110.99398804 C113.47082565 111.71620041 113.50099274 112.43841278 113.53207397 113.18251038 C113.61842964 119.61716437 111.41762346 124.67819817 107.18382263 129.50961304 C106.53284607 130.04844116 105.88186951 130.58726929 105.21116638 131.14242554 C104.23856873 131.97387085 104.23856873 131.97387085 103.24632263 132.82211304 C97.77574085 136.5914152 92.7760218 136.56426675 86.3447113 136.55795288 C85.36196732 136.5646701 84.37922333 136.57138733 83.36669922 136.57830811 C80.12079295 136.59729168 76.87509345 136.60121259 73.62913513 136.60336304 C71.36858027 136.609791 69.10802625 136.61651936 66.84747314 136.62353516 C62.10890271 136.63550903 57.37040518 136.63921589 52.63182068 136.63803101 C46.56905448 136.63782788 40.50675737 136.66512333 34.44410229 136.69957542 C29.77456529 136.72184749 25.10514109 136.72586843 20.43555641 136.72481155 C18.20090939 136.7271673 15.96625925 136.73598927 13.73166466 136.75147629 C10.60104712 136.77114062 7.47143995 136.76529579 4.34080505 136.75326538 C3.42364716 136.76450439 2.50648926 136.77574341 1.5615387 136.787323 C-5.48416945 136.71875543 -10.75442271 134.98126907 -16.09352112 130.30258179 C-16.90176331 129.32611694 -16.90176331 129.32611694 -17.72633362 128.32992554 C-18.28063049 127.6815271 -18.83492737 127.03312866 -19.40602112 126.36508179 C-23.17532328 120.8945 -23.14817483 115.89478096 -23.14186096 109.46347046 C-23.14857819 108.48072647 -23.15529541 107.49798248 -23.16221619 106.48545837 C-23.18119976 103.23955211 -23.18512067 99.9938526 -23.18727112 96.74789429 C-23.19369908 94.48733943 -23.20042744 92.22678541 -23.20744324 89.9662323 C-23.21941711 85.22766186 -23.22312397 80.48916433 -23.22193909 75.75057983 C-23.22173596 69.68781364 -23.24903141 63.62551653 -23.28348351 57.56286144 C-23.30575557 52.89332444 -23.30977651 48.22390024 -23.30871964 43.55431557 C-23.31107538 41.31966855 -23.31989735 39.08501841 -23.33538437 36.85042381 C-23.3550487 33.71980628 -23.34920387 30.5901991 -23.33717346 27.45956421 C-23.34841248 26.54240631 -23.35965149 25.62524841 -23.37123108 24.68029785 C-23.30266352 17.63458971 -21.56517715 12.36433645 -16.88648987 7.02523804 C-16.23551331 6.48640991 -15.58453674 5.94758179 -14.91383362 5.39242554 C-14.26543518 4.83812866 -13.61703674 4.28383179 -12.94898987 3.71273804 C-8.7400017 0.81269032 -5.06915087 0.01673534 0 0 Z M-4.98519897 18.23881531 C-7.5318003 22.37177691 -7.54153544 25.52350353 -7.46656799 30.29281616 C-7.472117 31.19259689 -7.47766602 32.09237762 -7.48338318 33.01942444 C-7.49517568 35.98805311 -7.47090819 38.95515405 -7.44508362 41.92367554 C-7.44337234 43.98963349 -7.44343837 46.05559361 -7.44520569 48.12155151 C-7.44355267 52.4491964 -7.4248575 56.77632314 -7.39332581 61.10385132 C-7.35364853 66.6490043 -7.34928074 72.19347865 -7.35678864 77.73874664 C-7.35985927 82.00416269 -7.3477344 86.26942637 -7.33065796 90.5348053 C-7.32363039 92.57932072 -7.32050313 94.62385341 -7.3213501 96.66838074 C-7.31955088 99.52658245 -7.29815813 102.38397351 -7.27125549 105.24203491 C-7.2741861 106.08582199 -7.2771167 106.92960907 -7.28013611 107.79896545 C-7.21292927 112.43048242 -6.85963286 115.50710891 -3.85133362 119.26742554 C-0.53176271 120.92721099 3.18330534 120.42378359 6.83348083 120.42855835 C7.73282349 120.43352325 8.63216614 120.43848816 9.5587616 120.44360352 C12.54316464 120.45824532 15.52751452 120.46503077 18.51194763 120.47055054 C20.58219403 120.47630067 22.65244041 120.48205842 24.72268677 120.48782349 C29.06805164 120.49833946 33.41339799 120.50417811 37.7587738 120.50765991 C43.32747332 120.51314351 48.89592818 120.53716626 54.46455097 120.56563187 C58.74278478 120.58425452 63.02095965 120.58946367 67.29923058 120.59099579 C69.35214258 120.59402408 71.4050535 120.60205852 73.4579258 120.61518097 C76.33069589 120.63223225 79.20286819 120.63036331 82.07566833 120.62387085 C82.92416855 120.63308563 83.77266876 120.64230042 84.6468811 120.65179443 C89.26908557 120.61906489 92.44578044 120.35753855 96.14866638 117.26742554 C97.38768318 113.55037513 97.26919562 110.12038467 97.24290466 106.25106812 C97.24011803 104.55842608 97.23744816 102.86578386 97.23487854 101.17314148 C97.23030325 99.82672294 97.23030325 99.82672294 97.22563553 98.45310402 C97.21428835 93.69520758 97.23479653 88.93740647 97.25022888 84.17953491 C97.26850721 78.12686742 97.27724221 72.07470926 97.24827576 66.02206421 C97.2256966 61.12934682 97.23722062 56.23773661 97.2712822 51.3450985 C97.27803833 49.48447682 97.27240748 47.6237658 97.25392532 45.76322365 C97.10160083 29.36941898 97.10160083 29.36941898 101.4528656 24.37557983 C102.6747973 23.32775072 103.90714621 22.29196964 105.14866638 21.26742554 C106.50992939 19.62349167 107.84945432 17.96082554 109.14866638 16.26742554 C94.76251835 16.15057889 80.37644399 16.06276359 65.98991871 16.00836468 C59.30981789 15.9822574 52.63009744 15.94683774 45.95018005 15.89022827 C39.50517326 15.83595061 33.06047305 15.80601347 26.61525536 15.79303932 C24.15480916 15.78379197 21.69437998 15.76573426 19.2340641 15.73877525 C15.79092104 15.70254318 12.3490491 15.697478 8.90574646 15.69979858 C7.88579086 15.6818222 6.86583527 15.66384583 5.81497192 15.64532471 C1.35796999 15.67788525 -1.15326999 15.82830154 -4.98519897 18.23881531 Z " fill="#000000" transform="translate(38.85133361816406,359.7325744628906)"/>
<path d="M0 0 C0.98274399 -0.00671722 1.96548798 -0.01343445 2.97801208 -0.02035522 C6.22391835 -0.0393388 9.46961786 -0.04325971 12.71557617 -0.04541016 C14.97613103 -0.05183812 17.23668505 -0.05856648 19.49723816 -0.06558228 C24.2358086 -0.07755615 28.97430613 -0.08126301 33.71289062 -0.08007812 C39.77565682 -0.079875 45.83795393 -0.10717045 51.90060902 -0.14162254 C56.57014602 -0.16389461 61.23957022 -0.16791555 65.90915489 -0.16685867 C68.14380191 -0.16921442 70.37845205 -0.17803639 72.61304665 -0.19352341 C75.74366418 -0.21318774 78.87327135 -0.20734291 82.00390625 -0.1953125 C82.92106415 -0.20655151 83.83822205 -0.21779053 84.78317261 -0.22937012 C91.82888075 -0.16080255 97.09913401 1.57668381 102.43823242 6.25537109 C102.97706055 6.90634766 103.51588867 7.55732422 104.07104492 8.22802734 C104.6253418 8.87642578 105.17963867 9.52482422 105.75073242 10.19287109 C109.52003458 15.66345288 109.49288614 20.66317192 109.48657227 27.09448242 C109.49328949 28.07722641 109.50000671 29.0599704 109.50692749 30.07249451 C109.52591106 33.31840077 109.52983198 36.56410028 109.53198242 39.81005859 C109.53841038 42.07061345 109.54513874 44.33116747 109.55215454 46.59172058 C109.56412842 51.33029102 109.56783527 56.06878855 109.56665039 60.80737305 C109.56644727 66.87013924 109.59374271 72.93243635 109.62819481 78.99509144 C109.65046688 83.66462844 109.65448782 88.33405264 109.65343094 93.00363731 C109.65578668 95.23828433 109.66460866 97.47293447 109.68009567 99.70752907 C109.69976001 102.8381466 109.69391518 105.96775378 109.68188477 109.09838867 C109.69312378 110.01554657 109.70436279 110.93270447 109.71594238 111.87765503 C109.64737482 118.92336317 107.90988846 124.19361643 103.23120117 129.53271484 C102.58022461 130.07154297 101.92924805 130.61037109 101.25854492 131.16552734 C100.61014648 131.71982422 99.96174805 132.27412109 99.29370117 132.84521484 C95.084713 135.74526256 91.41386218 136.54121754 86.3447113 136.55795288 C84.58872116 136.57074783 84.58872116 136.57074783 82.79725647 136.58380127 C81.52176437 136.5828949 80.24627228 136.58198853 78.93212891 136.58105469 C77.56843702 136.58704226 76.20474852 136.59384833 74.84106445 136.60140991 C71.14491064 136.6190485 67.44884948 136.62376423 63.75265765 136.62504148 C61.44313328 136.62646423 59.13363238 136.63073604 56.82411385 136.63603592 C48.76651643 136.65452523 40.70898512 136.66270743 32.65136719 136.66113281 C25.14006639 136.65992993 17.62905224 136.68106368 10.11782402 136.71262014 C3.66674492 136.73875718 -2.78424035 136.74950128 -9.23537201 136.74822199 C-13.08755993 136.74771183 -16.93949271 136.75342519 -20.79162788 136.77457809 C-24.41230956 136.79391885 -28.03249147 136.79411412 -31.65319061 136.77954483 C-33.6157167 136.77645185 -35.57824261 136.79316003 -37.54069519 136.8104248 C-38.70853546 136.80203583 -39.87637573 136.79364685 -41.0796051 136.78500366 C-42.6018839 136.78663796 -42.6018839 136.78663796 -44.15491581 136.78830528 C-47.55228744 136.14990906 -48.7245271 135.00947236 -50.80395508 132.29052734 C-51.5581136 128.17693541 -51.84265765 125.84996627 -49.49945068 122.33203125 C-46.44256827 118.8762265 -43.5583835 115.98476146 -39.66430664 113.48583984 C-34.02154916 109.60426449 -29.01513613 105.20415311 -27.31149292 98.29266357 C-25.30132277 86.12908819 -26.11051063 73.45134154 -26.47491455 61.18255615 C-26.68280448 53.57603207 -26.73857509 45.96639217 -26.8126297 38.3576355 C-26.85009121 35.71759805 -26.92120363 33.08027748 -26.99920654 30.44116211 C-27.03186341 28.81543787 -27.06413093 27.18970575 -27.09594727 25.56396484 C-27.12611435 24.84175247 -27.15628143 24.1195401 -27.18736267 23.3754425 C-27.27371834 16.94078852 -25.07291216 11.87975471 -20.83911133 7.04833984 C-20.18813477 6.50951172 -19.5371582 5.97068359 -18.86645508 5.41552734 C-18.21805664 4.86123047 -17.5696582 4.30693359 -16.90161133 3.73583984 C-11.43102955 -0.03346232 -6.4313105 -0.00631387 0 0 Z M-10.80395508 21.29052734 C-11.28670258 24.24960175 -11.46696914 26.62999514 -11.41577148 29.58154297 C-11.42143631 30.40329514 -11.42710114 31.2250473 -11.43293762 32.07170105 C-11.44641186 34.7805276 -11.42551487 37.48800976 -11.40551758 40.19677734 C-11.41101849 42.08338334 -11.41914376 43.96998335 -11.42977905 45.85656738 C-11.4526622 50.81957645 -11.44844531 55.78214502 -11.43597412 60.74517822 C-11.41766562 68.68867969 -11.42761936 76.63192328 -11.46183395 84.57536316 C-11.46793773 87.34800783 -11.45467849 90.12009901 -11.43984985 92.8927002 C-11.44279807 94.59497216 -11.44645288 96.29724309 -11.45092773 97.99951172 C-11.43699226 99.15298347 -11.43699226 99.15298347 -11.42277527 100.32975769 C-11.46631902 106.18917773 -12.9319352 109.27175256 -16.84692383 113.49365234 C-17.55461914 114.16912109 -18.26231445 114.84458984 -18.99145508 115.54052734 C-20.27829702 116.7740407 -21.55393034 118.01971834 -22.80395508 119.29052734 C-22.80395508 119.62052734 -22.80395508 119.95052734 -22.80395508 120.29052734 C-8.54812643 120.360637 5.70767545 120.41332557 19.96364117 120.44596386 C26.58308067 120.46162765 33.20240445 120.48287928 39.82177734 120.5168457 C46.20840914 120.5494132 52.59492954 120.56737498 58.98163795 120.57515907 C61.41972419 120.58070723 63.85780424 120.59154124 66.29584312 120.60771751 C69.70761727 120.62945661 73.11892959 120.63249568 76.53076172 120.63110352 C77.54136658 120.64188934 78.55197144 120.65267517 79.59320068 120.66378784 C86.41475449 120.67779686 86.41475449 120.67779686 92.19604492 117.29052734 C93.5094947 113.35017801 93.35179111 109.58449548 93.35717773 105.47631836 C93.36214264 104.57522339 93.36710754 103.67412842 93.3722229 102.74572754 C93.38683999 99.76195516 93.39364508 96.77823591 93.39916992 93.79443359 C93.40492087 91.72322081 93.41067861 89.65200804 93.41644287 87.58079529 C93.42695096 83.23721061 93.43279518 78.89364443 93.4362793 74.55004883 C93.44176968 68.98015885 93.46581019 63.41051263 93.49425125 57.8406992 C93.51285799 53.56250794 93.51808214 49.28437569 93.51961517 45.00614738 C93.52264567 42.95240887 93.53068749 40.8986715 93.54380035 38.84497261 C93.56082293 35.97450207 93.55899008 33.10463116 93.55249023 30.23413086 C93.56170502 29.38360641 93.5709198 28.53308197 93.58041382 27.65678406 C93.55568448 24.17692372 93.52155496 21.89933859 91.86126709 18.79405212 C88.07430204 15.37481119 83.19168328 16.12165465 78.39770508 16.09765625 C77.4982164 16.08947876 76.59872772 16.08130127 75.67198181 16.07287598 C72.69303045 16.04804676 69.71412659 16.03151422 66.73510742 16.01708984 C65.20955294 16.00910433 65.20955294 16.00910433 63.65317917 16.00095749 C58.27229313 15.97423947 52.89143021 15.95485833 47.51049805 15.94042969 C41.94950997 15.92376512 36.38911259 15.87896814 30.82834816 15.82805824 C26.55440578 15.7944318 22.28060461 15.78285744 18.00654221 15.77720261 C15.95638884 15.77047979 13.9062451 15.75523111 11.85622025 15.7313118 C8.98804488 15.6997499 6.12147671 15.69960974 3.25317383 15.70703125 C2.40624466 15.69062592 1.55931549 15.67422058 0.6867218 15.65731812 C-4.76595391 15.715095 -7.61586998 16.47046274 -10.80395508 21.29052734 Z " fill="#000000" transform="translate(386.803955078125,15.70947265625)"/>
<path d="M0 0 C4.84294241 1.60431838 9.67620735 3.23000072 14.49609375 4.90234375 C26.56065601 9.05487293 38.46486639 12.61115809 51 15 C52.75763672 15.33644531 52.75763672 15.33644531 54.55078125 15.6796875 C57.03109894 16.13982267 59.512051 16.58351515 62 17 C62.12036664 22.77759884 61.8320582 28.27959989 61 34 C38.54589786 33.46882769 13.97399598 26.24940752 -6 16 C-6.33 15.34 -6.66 14.68 -7 14 C-5.92481882 11.55667274 -4.80191434 9.23245477 -3.5625 6.875 C-3.22412109 6.21628906 -2.88574219 5.55757813 -2.53710938 4.87890625 C-1.69850074 3.24893453 -0.85015189 1.62398091 0 0 Z " fill="#000000" transform="translate(171,429)"/>
<path d="M0 0 C21.12 0 42.24 0 64 0 C64 5.28 64 10.56 64 16 C42.88 16 21.76 16 0 16 C0 10.72 0 5.44 0 0 Z " fill="#000000" transform="translate(56,384)"/>
<path d="M0 0 C9.24 0 18.48 0 28 0 C26.875 10.125 26.875 10.125 25.87670898 15.07055664 C25.65655624 16.17101822 25.4364035 17.2714798 25.20957947 18.4052887 C24.97412918 19.56189499 24.73867889 20.71850128 24.49609375 21.91015625 C24.2533522 23.11820419 24.01061066 24.32625214 23.76051331 25.57090759 C22.98980623 29.4021805 22.21373661 33.232344 21.4375 37.0625 C20.91131712 39.67106498 20.3863598 42.27987473 19.86132812 44.88867188 C18.57828763 51.2599408 17.29085101 57.6303092 16 64 C14.68 64 13.36 64 12 64 C10.43085088 56.24696539 8.86586707 48.49310663 7.30618286 40.73816299 C6.58181673 37.13720006 5.8560233 33.53653717 5.12695312 29.93652344 C4.42331814 26.46183302 3.72345192 22.98640288 3.02618408 19.51042938 C2.62992989 17.54013785 2.22978411 15.57063028 1.82958984 13.60113525 C1.58934082 12.40019226 1.3490918 11.19924927 1.1015625 9.96191406 C0.88838379 8.90490295 0.67520508 7.84789185 0.45556641 6.7588501 C0 4 0 4 0 0 Z " fill="#E9D796" transform="translate(242,216)"/>
<path d="M0 0 C1.73618591 -0.00006042 1.73618591 -0.00006042 3.50744629 -0.00012207 C5.95179684 0.00523347 8.39614694 0.02281732 10.84033203 0.05175781 C14.58028833 0.09359939 18.31844293 0.09282635 22.05859375 0.0859375 C24.43490834 0.09643055 26.81121365 0.10936926 29.1875 0.125 C30.3053186 0.12520142 31.42313721 0.12540283 32.5748291 0.12561035 C34.14170471 0.14947815 34.14170471 0.14947815 35.74023438 0.17382812 C37.11326721 0.18645691 37.11326721 0.18645691 38.51403809 0.19934082 C41.63433226 0.676399 43.54257635 1.76301627 46.09375 3.59375 C47.49832737 6.40290474 47.34270157 8.48185534 47.09375 11.59375 C45.31390595 14.7296657 44.57066793 15.43477736 41.09375 16.59375 C39.38740843 16.70601312 37.67714861 16.76271412 35.96728516 16.78662109 C34.92255035 16.80268402 33.87781555 16.81874695 32.80142212 16.83529663 C28.03363736 16.87977343 23.26599045 16.92079304 18.49804688 16.94384766 C15.98200239 16.96042624 13.46600536 16.98774082 10.95019531 17.02587891 C7.32331909 17.08057216 3.69754524 17.10250922 0.0703125 17.1171875 C-1.61582657 17.15119156 -1.61582657 17.15119156 -3.33602905 17.18588257 C-11.12480853 17.16476223 -11.12480853 17.16476223 -15.11572266 14.24853516 C-16.90625 11.59375 -16.90625 11.59375 -17.53125 8.59375 C-15.57756079 -0.78395819 -7.83903622 -0.11497667 0 0 Z " fill="#C2D2DD" transform="translate(240.90625,327.40625)"/>
<path d="M0 0 C1.73618591 -0.00006042 1.73618591 -0.00006042 3.50744629 -0.00012207 C5.95179684 0.00523347 8.39614694 0.02281732 10.84033203 0.05175781 C14.58028833 0.09359939 18.31844293 0.09282635 22.05859375 0.0859375 C24.43490834 0.09643055 26.81121365 0.10936926 29.1875 0.125 C30.3053186 0.12520142 31.42313721 0.12540283 32.5748291 0.12561035 C34.14170471 0.14947815 34.14170471 0.14947815 35.74023438 0.17382812 C37.11326721 0.18645691 37.11326721 0.18645691 38.51403809 0.19934082 C41.63433226 0.676399 43.54257635 1.76301627 46.09375 3.59375 C47.49832737 6.40290474 47.34270157 8.48185534 47.09375 11.59375 C45.31390595 14.7296657 44.57066793 15.43477736 41.09375 16.59375 C39.38740843 16.70601312 37.67714861 16.76271412 35.96728516 16.78662109 C34.92255035 16.80268402 33.87781555 16.81874695 32.80142212 16.83529663 C28.03363736 16.87977343 23.26599045 16.92079304 18.49804688 16.94384766 C15.98200239 16.96042624 13.46600536 16.98774082 10.95019531 17.02587891 C7.32331909 17.08057216 3.69754524 17.10250922 0.0703125 17.1171875 C-1.61582657 17.15119156 -1.61582657 17.15119156 -3.33602905 17.18588257 C-11.12480853 17.16476223 -11.12480853 17.16476223 -15.11572266 14.24853516 C-16.90625 11.59375 -16.90625 11.59375 -17.53125 8.59375 C-15.57756079 -0.78395819 -7.83903622 -0.11497667 0 0 Z " fill="#C2D2DD" transform="translate(240.90625,295.40625)"/>
<path d="M0 0 C15.84 0 31.68 0 48 0 C48 5.28 48 10.56 48 16 C32.16 16 16.32 16 0 16 C0 10.72 0 5.44 0 0 Z " fill="#000000" transform="translate(40,432)"/>
<path d="M0 0 C15.84 0 31.68 0 48 0 C48 5.28 48 10.56 48 16 C32.16 16 16.32 16 0 16 C0 10.72 0 5.44 0 0 Z " fill="#000000" transform="translate(72,408)"/>
<path d="M0 0 C15.84 0 31.68 0 48 0 C48 5.28 48 10.56 48 16 C32.16 16 16.32 16 0 16 C0 10.72 0 5.44 0 0 Z " fill="#000000" transform="translate(392,88)"/>
<path d="M0 0 C3.06214566 1.27413972 4.83107105 3.23077868 7.15063477 5.59277344 C7.8413205 6.28982643 7.8413205 6.28982643 8.54595947 7.0009613 C10.00993788 8.48168537 11.46312017 9.97251238 12.91625977 11.46386719 C13.90905426 12.47171383 14.90253647 13.47888352 15.89672852 14.48535156 C18.32792449 16.9495618 20.74954845 19.42294048 23.16625977 21.90136719 C19.22431807 26.78186643 15.04675901 30.95942549 10.16625977 34.90136719 C6.99888629 31.85746695 3.84816943 28.79755743 0.71191406 25.72167969 C-0.35753531 24.67739574 -1.43142619 23.6376405 -2.50976562 22.60253906 C-4.05801893 21.1148479 -5.58963159 19.61166492 -7.11889648 18.10449219 C-8.04581299 17.20375977 -8.97272949 16.30302734 -9.92773438 15.375 C-11.83374023 12.90136719 -11.83374023 12.90136719 -11.7487793 10.72583008 C-10.41212819 8.06073037 -8.61129303 6.20628565 -6.52124023 4.08886719 C-5.35141602 2.87263672 -5.35141602 2.87263672 -4.15795898 1.63183594 C-1.83374023 -0.09863281 -1.83374023 -0.09863281 0 0 Z " fill="#000000" transform="translate(329.833740234375,254.0986328125)"/>
<path d="M0 0 C2.66509971 1.33665111 4.51954442 3.13748626 6.63696289 5.22753906 C7.4477832 6.00742187 8.25860352 6.78730469 9.09399414 7.59082031 C10.82446289 9.91503906 10.82446289 9.91503906 10.72583008 11.7487793 C9.45169035 14.81092495 7.4950514 16.57985035 5.13305664 18.89941406 C4.66835464 19.35987122 4.20365265 19.82032837 3.72486877 20.29473877 C2.2441447 21.75871718 0.7533177 23.21189947 -0.73803711 24.66503906 C-1.74588375 25.65783355 -2.75305344 26.65131576 -3.75952148 27.64550781 C-6.22373172 30.07670379 -8.6971104 32.49832774 -11.17553711 34.91503906 C-16.05603636 30.97309736 -20.23359541 26.79553831 -24.17553711 21.91503906 C-21.13163687 18.74766559 -18.07172735 15.59694872 -14.99584961 12.46069336 C-13.95156566 11.39124399 -12.91181042 10.31735311 -11.87670898 9.23901367 C-10.38901782 7.69076037 -8.88583484 6.15914771 -7.37866211 4.62988281 C-6.47792969 3.70296631 -5.57719727 2.7760498 -4.64916992 1.82104492 C-2.17553711 -0.08496094 -2.17553711 -0.08496094 0 0 Z " fill="#000000" transform="translate(183.175537109375,254.0849609375)"/>
<path d="M0 0 C4.88049925 3.9419417 9.0580583 8.11950075 13 13 C9.95609976 16.16737348 6.89619024 19.31809034 3.8203125 22.4543457 C2.77602855 23.52379507 1.73627331 24.59768596 0.70117188 25.67602539 C-0.78651929 27.22427869 -2.28970227 28.75589136 -3.796875 30.28515625 C-4.69760742 31.21207275 -5.59833984 32.13898926 -6.52636719 33.09399414 C-9 35 -9 35 -11.17553711 34.91503906 C-13.84063682 33.57838796 -15.69508153 31.7775528 -17.8125 29.6875 C-18.62332031 28.90761719 -19.43414062 28.12773438 -20.26953125 27.32421875 C-22 25 -22 25 -21.90136719 23.16625977 C-20.62722746 20.10411411 -18.67058851 18.33518872 -16.30859375 16.015625 C-15.61154076 15.32493927 -15.61154076 15.32493927 -14.90040588 14.62030029 C-13.41968181 13.15632189 -11.92885481 11.70313959 -10.4375 10.25 C-9.42965336 9.25720551 -8.42248367 8.2637233 -7.41601562 7.26953125 C-4.95180539 4.83833527 -2.47842671 2.41671132 0 0 Z " fill="#000000" transform="translate(340,95)"/>
<path d="M0 0 C5.37322976 4.51068498 10.48975137 9.21495634 15.5 14.125 C16.23992187 14.82753906 16.97984375 15.53007813 17.7421875 16.25390625 C18.43570313 16.93582031 19.12921875 17.61773437 19.84375 18.3203125 C20.47474609 18.93148926 21.10574219 19.54266602 21.75585938 20.17236328 C23 22 23 22 22.81762695 24.08032227 C21.62521789 26.87993781 19.81688762 28.65523169 17.6875 30.8125 C16.90761719 31.62332031 16.12773437 32.43414062 15.32421875 33.26953125 C13 35 13 35 11.16625977 34.90136719 C8.10411411 33.62722746 6.33518872 31.67058851 4.015625 29.30859375 C3.55516785 28.84389175 3.09471069 28.37918976 2.62030029 27.90040588 C1.15632189 26.41968181 -0.29686041 24.92885481 -1.75 23.4375 C-2.74279449 22.42965336 -3.7362767 21.42248367 -4.73046875 20.41601562 C-7.16166473 17.95180539 -9.58328868 15.47842671 -12 13 C-8.16171005 8.46548035 -4.25222428 4.15098084 0 0 Z " fill="#000000" transform="translate(171,95)"/>
<path d="M0 0 C10.56 0 21.12 0 32 0 C32 5.28 32 10.56 32 16 C21.44 16 10.88 16 0 16 C0 10.72 0 5.44 0 0 Z " fill="#000000" transform="translate(40,456)"/>
<path d="M0 0 C10.56 0 21.12 0 32 0 C32 5.28 32 10.56 32 16 C21.44 16 10.88 16 0 16 C0 10.72 0 5.44 0 0 Z " fill="#000000" transform="translate(352,184)"/>
<path d="M0 0 C10.56 0 21.12 0 32 0 C32 5.28 32 10.56 32 16 C21.44 16 10.88 16 0 16 C0 10.72 0 5.44 0 0 Z " fill="#000000" transform="translate(128,184)"/>
<path d="M0 0 C10.56 0 21.12 0 32 0 C32 5.28 32 10.56 32 16 C21.44 16 10.88 16 0 16 C0 10.72 0 5.44 0 0 Z " fill="#000000" transform="translate(392,112)"/>
<path d="M0 0 C10.56 0 21.12 0 32 0 C32 5.28 32 10.56 32 16 C21.44 16 10.88 16 0 16 C0 10.72 0 5.44 0 0 Z " fill="#000000" transform="translate(440,64)"/>
<path d="M0 0 C10.56 0 21.12 0 32 0 C32 5.28 32 10.56 32 16 C21.44 16 10.88 16 0 16 C0 10.72 0 5.44 0 0 Z " fill="#000000" transform="translate(392,64)"/>
<path d="M0 0 C5.28 0 10.56 0 16 0 C16 10.56 16 21.12 16 32 C10.72 32 5.44 32 0 32 C0 21.44 0 10.88 0 0 Z " fill="#000000" transform="translate(248,64)"/>
<path d="M0 0 C10.56 0 21.12 0 32 0 C32 5.28 32 10.56 32 16 C21.44 16 10.88 16 0 16 C0 10.72 0 5.44 0 0 Z " fill="#000000" transform="translate(408,40)"/>
<path d="M0 0 C10.56 0 21.12 0 32 0 C30.96399638 7.25202537 30.10415577 9.38254857 25 14 C20.78110425 16.62255682 15.8363346 16.69212562 11 16 C6.64319186 13.78049397 3.60292703 11.1454023 1 7 C0.67 4.69 0.34 2.38 0 0 Z " fill="#E8B931" transform="translate(240,360)"/>
<path d="M0 0 C5.28 0 10.56 0 16 0 C16 5.28 16 10.56 16 16 C10.72 16 5.44 16 0 16 C0 10.72 0 5.44 0 0 Z " fill="#000000" transform="translate(88,456)"/>
<path d="M0 0 C5.28 0 10.56 0 16 0 C16 5.28 16 10.56 16 16 C10.72 16 5.44 16 0 16 C0 10.72 0 5.44 0 0 Z " fill="#000000" transform="translate(104,432)"/>
<path d="M0 0 C5.28 0 10.56 0 16 0 C16 5.28 16 10.56 16 16 C10.72 16 5.44 16 0 16 C0 10.72 0 5.44 0 0 Z " fill="#000000" transform="translate(40,408)"/>
<path d="M0 0 C5.28 0 10.56 0 16 0 C16 5.28 16 10.56 16 16 C10.72 16 5.44 16 0 16 C0 10.72 0 5.44 0 0 Z " fill="#000000" transform="translate(456,88)"/>
<path d="M0 0 C5.28 0 10.56 0 16 0 C16 5.28 16 10.56 16 16 C10.72 16 5.44 16 0 16 C0 10.72 0 5.44 0 0 Z " fill="#000000" transform="translate(456,40)"/>
</svg>
