<?xml version="1.0" encoding="UTF-8"?>
<svg version="1.1" xmlns="http://www.w3.org/2000/svg" width="512" height="512">
<path d="M0 0 C6.57264969 4.40905504 10.12761185 9.27343623 12 17 C12.7735499 22.99005307 11.67195057 28.25266992 10 34 C10.66 34.185625 11.32 34.37125 12 34.5625 C21.10820194 38.92684676 28.11779069 47.51448764 31.45703125 56.9453125 C32.65477728 61.47779027 33.12522152 65.90225351 33.13142776 70.58018017 C33.13526891 71.67216219 33.13911005 72.76414421 33.1430676 73.8892166 C33.14220112 75.0782121 33.14133463 76.26720761 33.14044189 77.49223328 C33.14489858 79.39938377 33.14489858 79.39938377 33.1494453 81.34506255 C33.15749277 84.8675648 33.15930361 88.39004665 33.16004276 91.91255701 C33.16189724 95.71433898 33.16944654 99.51611047 33.17617798 103.31788635 C33.18974566 111.62792051 33.19578354 119.93794984 33.20018864 128.24799323 C33.20295362 133.43923847 33.20719144 138.63048186 33.21169281 143.82172585 C33.22388328 158.20184938 33.23418313 172.58197144 33.2375679 186.96210003 C33.23778747 187.88201683 33.23800703 188.80193363 33.23823325 189.7497267 C33.23845153 190.67181182 33.23866981 191.59389694 33.2388947 192.54392403 C33.23933816 194.41233933 33.23978473 196.28075463 33.24023438 198.14916992 C33.2404558 199.07596331 33.24067723 200.00275669 33.24090537 200.95763472 C33.24485255 215.97158545 33.26230511 230.98548762 33.2855939 245.99941959 C33.30932484 261.42320385 33.32177054 276.84696375 33.32293582 292.27076656 C33.32385158 300.92694896 33.32957905 309.58306808 33.34775543 318.23923302 C33.36317992 325.61069157 33.36826303 332.98206727 33.36001733 340.35353889 C33.35611917 344.11187531 33.35699943 347.87004501 33.37107468 351.62836075 C33.38622041 355.70997617 33.37792251 359.79121835 33.36749268 363.87284851 C33.37957728 365.63961135 33.37957728 365.63961135 33.39190602 367.44206637 C33.31785285 379.85970362 30.5297746 390.99863057 21.890625 400.26171875 C10.59742656 410.79554695 -0.56620269 412.30817191 -15.5859375 412.22705078 C-17.05507906 412.2264859 -18.52422119 412.22680474 -19.99336243 412.22793579 C-23.96182047 412.22850729 -27.93015647 412.21678601 -31.89858627 412.20278788 C-36.05323409 412.19024653 -40.207885 412.18910734 -44.36254883 412.18673706 C-52.22111239 412.18053227 -60.07962001 412.16413505 -67.93815899 412.14403808 C-76.88858956 412.12164787 -85.83902286 412.11067781 -94.78947449 412.10064721 C-113.19301466 412.0797679 -131.59650282 412.04461146 -150 412 C-149.54560547 413.12027588 -149.54560547 413.12027588 -149.08203125 414.26318359 C-147.71778165 417.63235539 -146.35882778 421.00363809 -145 424.375 C-144.52304687 425.550625 -144.04609375 426.72625 -143.5546875 427.9375 C-143.10351562 429.05898438 -142.65234375 430.18046875 -142.1875 431.3359375 C-141.76855469 432.37282715 -141.34960938 433.4097168 -140.91796875 434.47802734 C-140 437 -140 437 -140 439 C-139.35562988 438.97381592 -138.71125977 438.94763184 -138.04736328 438.9206543 C-135.07349921 438.8154908 -132.10002777 438.75130268 -129.125 438.6875 C-128.11179687 438.64560547 -127.09859375 438.60371094 -126.0546875 438.56054688 C-118.68621866 438.44246244 -113.10510732 439.74045798 -107 444 C-100.17117713 451.09371194 -98.57345306 458.10954642 -98.75 467.80859375 C-99.28100357 474.58718624 -101.75881363 480.47543968 -107 485 C-115.80289304 491.57715753 -125.71396501 490.70846952 -136.15234375 490.64697266 C-138.08831604 490.6537561 -140.02428188 490.6626633 -141.9602356 490.67352295 C-147.19584732 490.69623627 -152.4309641 490.68751283 -157.66658401 490.67162752 C-163.15786273 490.65892721 -168.6491004 490.67072009 -174.14038086 490.67855835 C-183.36026582 490.68764288 -192.57995021 490.67569835 -201.79980469 490.65185547 C-212.44385954 490.62464661 -223.08743544 490.63346161 -233.73147869 490.6609875 C-242.88679178 490.6837116 -252.04196109 490.68686248 -261.19729328 490.67379415 C-266.65812843 490.66601783 -272.11873881 490.664908 -277.57955933 490.68147659 C-282.71472353 490.69597011 -287.84927305 490.68581041 -292.98437119 490.65700531 C-294.86363583 490.65042056 -296.74295263 490.65224722 -298.6221962 490.66331863 C-317.6488786 490.76503808 -317.6488786 490.76503808 -325 485 C-331.79438054 477.84564955 -333.42739171 470.93686312 -333.25 461.19140625 C-332.77345899 455.10806245 -330.8263702 449.96030608 -326.61645508 445.37304688 C-319.41677357 439.25750408 -312.00981783 438.30978807 -302.875 438.6875 C-301.823125 438.71005859 -300.77125 438.73261719 -299.6875 438.75585938 C-297.1233633 438.81413521 -294.56275847 438.90041471 -292 439 C-291.82621826 438.46125244 -291.65243652 437.92250488 -291.47338867 437.36743164 C-289.601043 431.64702491 -287.51974864 426.0362622 -285.3125 420.4375 C-284.99216797 419.61958984 -284.67183594 418.80167969 -284.34179688 417.95898438 C-283.56321746 415.97186378 -282.78190155 413.98581573 -282 412 C-282.7559228 412.00368717 -283.51184561 412.00737434 -284.29067516 412.01117325 C-302.72974333 412.0997181 -321.16876876 412.16580358 -339.60800457 412.20724869 C-348.52528736 412.22782674 -357.44242777 412.25585574 -366.35961914 412.30175781 C-374.13672687 412.34177193 -381.91373142 412.36746735 -389.69093925 412.37635398 C-393.80452846 412.3815442 -397.91782262 412.39364238 -402.03131676 412.42292023 C-405.91291472 412.45032049 -409.79409957 412.45839607 -413.67578506 412.45243073 C-415.09101046 412.45352008 -416.50625146 412.46132641 -417.92139244 412.4768219 C-431.3790396 412.61679813 -443.04152406 410.55529877 -453 401 C-462.54868374 391.53695468 -465.20219302 380.89053641 -465.27214891 367.72820157 C-465.26836958 366.54862671 -465.26459026 365.36905185 -465.26069641 364.1537323 C-465.26452196 362.88044093 -465.26834751 361.60714956 -465.27228898 360.2952736 C-465.28253048 356.78145272 -465.28039703 353.26773431 -465.27610838 349.75390518 C-465.27363411 345.95624127 -465.28266404 342.1586016 -465.29014587 338.36094666 C-465.30287577 330.92854867 -465.30468868 323.49618684 -465.30234561 316.06377979 C-465.30056026 310.02004276 -465.30231674 303.97631667 -465.30657005 297.93258095 C-465.30716524 297.07135233 -465.30776043 296.2101237 -465.30837366 295.32279724 C-465.30958545 293.57301582 -465.31079958 291.8232344 -465.31201603 290.07345299 C-465.32288513 273.6746003 -465.32073215 257.2757682 -465.31463119 240.87691436 C-465.30946342 225.8896925 -465.32071489 210.90253567 -465.33972941 195.91532668 C-465.35912308 180.51064861 -465.36736107 165.10600128 -465.36360615 149.70131093 C-465.36169633 141.05911927 -465.36416032 132.41698293 -465.37832069 123.77480125 C-465.39025501 116.4169791 -465.39161649 109.05924632 -465.37953053 101.70142289 C-465.37365601 97.95104713 -465.3725026 94.2008347 -465.38453293 90.45046997 C-465.3974507 86.37592445 -465.38689337 82.30176492 -465.3742218 78.22721863 C-465.38159609 77.05433593 -465.38897037 75.88145324 -465.39656812 74.67302865 C-465.32103264 63.08926115 -463.42905696 53.11907939 -456 44 C-455.49726563 43.37351563 -454.99453125 42.74703125 -454.4765625 42.1015625 C-448.73076881 35.68309052 -440.496725 31.34674325 -432 30 C-429.8812037 29.93084499 -427.76026691 29.91751833 -425.64048767 29.94234085 C-424.34911015 29.95475067 -423.05773262 29.9671605 -421.72722244 29.97994637 C-420.29593107 29.99890717 -418.86464014 30.01790168 -417.43334961 30.03692627 C-415.91115733 30.05312617 -414.38895928 30.06879116 -412.86675644 30.08396697 C-409.5555454 30.11779248 -406.24438635 30.1546221 -402.93323326 30.19370842 C-394.69790708 30.29039586 -386.46240294 30.36966175 -378.2269007 30.44967467 C-376.2662596 30.46875781 -374.30562021 30.48801706 -372.3449825 30.5074448 C-356.92317164 30.65983729 -341.50146088 30.77012656 -326.07910156 30.84857178 C-325.03488187 30.85391183 -323.99066217 30.85925188 -322.91479945 30.86475375 C-312.11265944 30.91942263 -301.31050083 30.96898631 -290.50832069 31.01499487 C-284.95655047 31.03889578 -279.40478743 31.06418854 -273.85302734 31.09033203 C-272.74796254 31.09551392 -271.64289774 31.10069581 -270.50434613 31.10603473 C-252.65281495 31.19271194 -234.80362988 31.37889985 -216.95333636 31.60149017 C-198.59363957 31.82807997 -180.23560552 31.94282154 -161.87450695 31.95692897 C-150.56923944 31.96913627 -139.27155182 32.06653306 -127.96821064 32.27712861 C-120.19529462 32.41361904 -112.42653767 32.44064501 -104.65264183 32.38585696 C-100.18022771 32.35746202 -95.72105617 32.37323915 -91.25069618 32.52087593 C-75.94931553 33.00016578 -62.48733073 33.17186866 -50.59020996 22.4585495 C-44.74836098 16.95142263 -39.58384304 10.90299578 -34.44421506 4.74873193 C-25.46318231 -5.65736853 -11.62203945 -7.17331007 0 0 Z M-443 54 C-447.72317965 61.02156001 -448.71799369 67.29584217 -448.60127258 75.60464478 C-448.60555267 76.72938202 -448.60983276 77.85411926 -448.61424255 79.01293945 C-448.6224802 82.77156929 -448.59496624 86.52907063 -448.56762695 90.28759766 C-448.56330774 93.03219443 -448.56654243 95.77677066 -448.56945324 98.52136803 C-448.57210348 105.11608008 -448.54909627 111.71044964 -448.5169466 118.30507388 C-448.48085077 125.93868598 -448.47696767 133.57209436 -448.47302246 141.20581055 C-448.44680432 161.34559438 -448.37699836 181.48530238 -448.3125 201.625 C-448.209375 246.62875 -448.10625 291.6325 -448 338 C-294.88 338 -141.76 338 16 338 C16.103125 292.99625 16.20625 247.9925 16.3125 201.625 C16.35802002 187.41131348 16.40354004 173.19762695 16.45043945 158.55322266 C16.46716091 145.81987302 16.46716091 145.81987302 16.47721863 133.08651733 C16.48187971 127.41185138 16.50021339 121.7374318 16.52787781 116.06283569 C16.55975104 109.51521393 16.57416897 102.96782831 16.56722475 96.42012843 C16.56421812 93.07194444 16.57172136 89.7247099 16.59607565 86.37655187 C16.62098244 82.78548812 16.61493818 79.19573936 16.60127258 75.60464478 C16.61583591 74.5679534 16.63039923 73.53126202 16.64540386 72.46315575 C16.57312379 65.38599788 15.04405392 59.87971919 11 54 C7.16201242 50.29743554 3.48783707 47.2911735 -2 47 C-4.6785578 48.84953147 -4.6785578 48.84953147 -7.21839905 51.65164185 C-7.71996551 52.16430977 -8.22153196 52.67697769 -8.7382974 53.205181 C-10.42228345 54.93327338 -12.08371114 56.68154232 -13.74633789 58.43017578 C-14.94825576 59.67143486 -16.15168894 60.91122818 -17.35652161 62.1496582 C-19.95653725 64.82642323 -22.54780046 67.51128834 -25.13337898 70.20199966 C-29.24886126 74.48016499 -33.39663707 78.72601668 -37.55186462 82.96554565 C-38.97819601 84.42162995 -40.4044852 85.87775557 -41.8307333 87.33392143 C-42.54549198 88.06366291 -43.26025066 88.79340438 -43.9966687 89.54525924 C-53.66095201 99.41792479 -63.29725506 109.31666491 -72.87133789 119.27685547 C-79.32988361 125.99532983 -85.83098299 132.6695627 -92.3799476 139.29996097 C-95.83343687 142.79993205 -99.26344553 146.31687576 -102.64146614 149.88986588 C-120.70342489 168.96386501 -136.95590958 180.17263283 -162.51149654 187.04463005 C-164.79414249 187.66976096 -167.06163704 188.35390075 -169.30687046 189.10235786 C-173.24802624 190.41597737 -176.90305737 190.76968002 -181 190 C-183.125 187.9375 -183.125 187.9375 -184 185 C-183.53774412 179.46279206 -182.01029614 174.66176372 -180.0859375 169.50390625 C-179.79320953 168.71153061 -179.50048157 167.91915497 -179.19888306 167.10276794 C-178.57902277 165.43481888 -177.95520226 163.76833675 -177.32763672 162.10327148 C-176.3814316 159.57965367 -175.46192304 157.04731795 -174.54296875 154.51367188 C-173.93391253 152.88480968 -173.32328525 151.2565339 -172.7109375 149.62890625 C-172.44397064 148.88282608 -172.17700378 148.13674591 -171.90194702 147.36805725 C-168.25463279 137.90375568 -160.37800948 131.2334833 -153.31079102 124.21313477 C-152.47096176 123.37476578 -151.63113251 122.53639679 -150.76585388 121.67262268 C-148.95603349 119.86658641 -147.14505951 118.06170554 -145.33304024 116.25787544 C-142.46947046 113.40712462 -139.60901325 110.55328551 -136.74949646 107.69847107 C-130.69014172 101.65015936 -124.62652464 95.6061291 -118.5625 89.5625 C-111.99026441 83.01230533 -105.41878846 76.46135831 -98.8521418 69.90555996 C-96.47392523 67.53151471 -94.09462901 65.15857164 -91.71289253 62.78805733 C-89.06755268 60.15459294 -86.42518538 57.51818018 -83.78344727 54.88110352 C-82.99028107 54.09310364 -82.19711487 53.30510376 -81.37991333 52.4932251 C-80.6664122 51.77979446 -79.95291107 51.06636383 -79.2177887 50.33131409 C-78.59268685 49.70843286 -77.96758501 49.08555162 -77.32354069 48.4437952 C-75.88737637 47.20358504 -75.88737637 47.20358504 -76 46 C-120.56211734 45.9313347 -165.12422909 45.87847162 -209.68638891 45.84680401 C-214.9472574 45.84305189 -220.2081258 45.83916892 -225.46899414 45.83520508 C-226.51633913 45.83441815 -227.56368412 45.83363122 -228.64276684 45.83282044 C-245.60163511 45.81976622 -262.56047287 45.79611227 -279.51932304 45.76854161 C-296.92042555 45.74048788 -314.32151209 45.7238238 -331.72263628 45.71773452 C-342.46021229 45.71361801 -353.19770207 45.70061588 -363.93525154 45.6762506 C-371.29820538 45.66039383 -378.66111464 45.65559952 -386.02408432 45.65949587 C-390.27224241 45.6614175 -394.52024981 45.65846983 -398.76838112 45.64238358 C-402.66037142 45.62775371 -406.55211009 45.62706757 -410.44411213 45.63730332 C-411.84938244 45.63856785 -413.25466863 45.63478842 -414.65990781 45.62535045 C-424.92092476 45.56046226 -435.4539037 46.15701592 -443 54 Z M-159 159 C-159.99 162.3 -160.98 165.6 -162 169 C-157.05 167.515 -157.05 167.515 -152 166 C-152.969375 164.845 -153.93875 163.69 -154.9375 162.5 C-155.48277344 161.8503125 -156.02804687 161.200625 -156.58984375 160.53125 C-157.05519531 160.0259375 -157.52054687 159.520625 -158 159 C-158.33 159 -158.66 159 -159 159 Z M-448 354 C-449.73926155 373.42026347 -449.73926155 373.42026347 -442.03515625 388.2421875 C-441.38417969 388.78101563 -440.73320312 389.31984375 -440.0625 389.875 C-439.08990234 390.70644531 -439.08990234 390.70644531 -438.09765625 391.5546875 C-433.38377209 394.80261513 -429.36246897 395.25112326 -423.69163799 395.25726891 C-422.59757829 395.26252802 -422.59757829 395.26252802 -421.48141637 395.26789337 C-419.03023442 395.27721891 -416.57928945 395.27228112 -414.12809753 395.26742554 C-412.35581767 395.27116122 -410.58353945 395.27576241 -408.81126386 395.28115618 C-403.93530994 395.29341177 -399.0594245 395.29312271 -394.18345869 395.29076743 C-388.92702826 395.29035991 -383.67061998 395.3013922 -378.41419983 395.31088257 C-368.11370122 395.32750751 -357.81322549 395.33299279 -347.51271459 395.33410732 C-339.14142608 395.33505708 -330.77014514 395.33916375 -322.39885902 395.34550858 C-298.67378402 395.36312497 -274.94872712 395.37234681 -251.22364553 395.37084763 C-249.94416624 395.37076772 -248.66468694 395.3706878 -247.34643555 395.37060547 C-245.42487801 395.37048283 -245.42487801 395.37048283 -243.46450112 395.37035771 C-222.69970938 395.36954467 -201.93499015 395.38868582 -181.17021938 395.4168822 C-159.85798341 395.44559403 -138.54578282 395.45942344 -117.233527 395.45769465 C-105.26474052 395.45703017 -93.29603006 395.46254805 -81.32726097 395.48405075 C-71.13728515 395.50224015 -60.94741981 395.50662831 -50.75743481 395.4930319 C-45.5574724 395.48649098 -40.35772208 395.48642565 -35.15777969 395.5037384 C-30.39752586 395.51942438 -25.63765307 395.5166513 -20.87740878 395.49917014 C-19.15535293 395.49609037 -17.43326896 395.49976928 -15.71124627 395.51089029 C-2.24285517 395.64764063 -2.24285517 395.64764063 9.2421875 389.03515625 C10.05042969 388.05869141 10.05042969 388.05869141 10.875 387.0625 C11.42929687 386.41410156 11.98359375 385.76570313 12.5546875 385.09765625 C19.25345925 375.37538482 16 367.11377169 16 354 C-137.12 354 -290.24 354 -448 354 Z " fill="#101F2D" transform="translate(472,13)"/>
<path d="M0 0 C0.87269531 -0.00145523 1.74539062 -0.00291046 2.64453125 -0.00440979 C4.48701318 -0.00275207 6.32950913 0.0087951 8.171875 0.02954102 C10.99018238 0.0584929 13.8066079 0.05014837 16.625 0.03710938 C18.4166758 0.04334716 20.20834566 0.05173841 22 0.0625 C23.26263672 0.05809654 23.26263672 0.05809654 24.55078125 0.05360413 C28.04491138 0.10987531 30.38450222 0.16628552 33.5 1.83569336 C36.23153399 4.85932009 36.11285424 7.80631712 36.0625 11.68359375 C36.05347656 12.58464844 36.04445312 13.48570313 36.03515625 14.4140625 C36.01775391 15.44466797 36.01775391 15.44466797 36 16.49609375 C37.64198364 16.46467285 37.64198364 16.46467285 39.31713867 16.43261719 C43.3891078 16.36006666 47.46102011 16.31423966 51.53344727 16.27636719 C53.29396175 16.25628589 55.05440982 16.22901496 56.81469727 16.19433594 C59.34928802 16.14566263 61.88299495 16.1230907 64.41796875 16.10546875 C65.20149216 16.08482361 65.98501556 16.06417847 66.7922821 16.04290771 C70.58705332 16.04135922 72.75994333 16.34395617 75.99707031 18.39550781 C78 20.49609375 78 20.49609375 78.62890625 22.49609375 C78.51206594 26.01504905 78.39898507 27.93455921 76.3125 30.87109375 C73.94264032 32.53640056 71.69478851 33.4682308 69 34.49609375 C69.90878906 35.17091797 69.90878906 35.17091797 70.8359375 35.859375 C77.61358047 41.06251937 86.09189139 47.67987653 90 55.49609375 C90.268125 54.21734375 90.53625 52.93859375 90.8125 51.62109375 C91.57190099 47.9993352 91.70077803 47.69557507 95 45.49609375 C100.69469027 44.86335039 100.69469027 44.86335039 103 45.49609375 C106.13397908 48.47470199 106.95627729 50.11441328 107.45410156 54.46020508 C107.45347337 55.99965701 107.43117411 57.53920707 107.390625 59.078125 C107.38496521 59.89230392 107.37930542 60.70648285 107.37347412 61.54533386 C107.35116774 64.13369728 107.30098445 66.72065215 107.25 69.30859375 C107.22992747 71.06833931 107.21167802 72.82810668 107.1953125 74.58789062 C107.15132207 78.8911638 107.08233627 83.19339035 107 87.49609375 C107.61560791 87.48594238 108.23121582 87.47579102 108.86547852 87.46533203 C110.07868774 87.45348877 110.07868774 87.45348877 111.31640625 87.44140625 C112.11763916 87.43125488 112.91887207 87.42110352 113.74438477 87.41064453 C117.73692349 87.56189343 120.2107045 88.70679825 123 91.49609375 C124.38560928 95.22751523 124.1794137 99.18411684 124.203125 103.11328125 C124.20882507 103.84805695 124.21452515 104.58283264 124.22039795 105.33987427 C124.22982373 106.89144461 124.23637229 108.44303474 124.24023438 109.99462891 C124.2499386 112.35615278 124.28098291 114.71680517 124.3125 117.078125 C124.31903112 118.58983861 124.32428116 120.10155841 124.328125 121.61328125 C124.3404718 122.31347382 124.3528186 123.01366638 124.36553955 123.7350769 C124.3446434 128.38166623 123.46030591 131.55556119 121 135.49609375 C118.23547967 136.87835391 115.9538637 136.59134762 112.875 136.55859375 C111.77929688 136.54957031 110.68359375 136.54054687 109.5546875 136.53125 C108.71164063 136.51964844 107.86859375 136.50804687 107 136.49609375 C107.02618408 137.62104248 107.05236816 138.74599121 107.0793457 139.9050293 C107.17001745 144.08874532 107.22731037 148.27237496 107.2746582 152.45678711 C107.2997639 154.26585507 107.33385595 156.07482197 107.37719727 157.88354492 C107.43802579 160.48772126 107.46624809 163.09055406 107.48828125 165.6953125 C107.51408768 166.50070969 107.5398941 167.30610687 107.56648254 168.13591003 C107.56859434 172.38802336 107.36525128 174.01894491 104.69213867 177.51098633 C102 179.49609375 102 179.49609375 98.4375 180.05859375 C95 179.49609375 95 179.49609375 92.625 177.87109375 C90.70118231 175.05936021 90.46638018 172.83391267 90 169.49609375 C89.46632812 170.18574219 88.93265625 170.87539062 88.3828125 171.5859375 C76.27272727 186.85973011 76.27272727 186.85973011 69 190.49609375 C70.11375 190.92921875 71.2275 191.36234375 72.375 191.80859375 C76 193.49609375 76 193.49609375 78 196.49609375 C78.63274336 202.19078402 78.63274336 202.19078402 78 204.49609375 C75.02139176 207.63007283 73.38168047 208.45237104 69.03588867 208.95019531 C67.49643674 208.94956712 65.95688668 208.92726786 64.41796875 208.88671875 C63.19670036 208.87822906 63.19670036 208.87822906 61.95075989 208.86956787 C59.36239647 208.84726149 56.7754416 208.7970782 54.1875 208.74609375 C52.42775444 208.72602122 50.66798707 208.70777177 48.90820312 208.69140625 C44.60492995 208.64741582 40.3027034 208.57843002 36 208.49609375 C36.01595215 209.18243896 36.0319043 209.86878418 36.04833984 210.57592773 C36.06074707 211.47641846 36.0731543 212.37690918 36.0859375 213.3046875 C36.10188965 214.19728271 36.1178418 215.08987793 36.13427734 216.00952148 C35.96184992 219.20256381 35.04450068 221.05841986 33 223.49609375 C29.65126458 225.17046146 25.87967138 224.70243422 22.1953125 224.734375 C21.31978729 224.74244675 20.44426208 224.75051849 19.54220581 224.75883484 C17.68782533 224.77267596 15.83341937 224.78339799 13.97900391 224.79125977 C11.14306434 224.80848404 8.30828714 224.85237018 5.47265625 224.89648438 C3.67188358 224.9066103 1.87110099 224.91512672 0.0703125 224.921875 C-0.77771942 224.93938309 -1.62575134 224.95689117 -2.4994812 224.97492981 C-6.22426648 224.96120674 -8.36562424 224.90288341 -11.55126953 222.86010742 C-13.42772705 219.79813604 -13.40502848 217.81174882 -13.25 214.24609375 C-13.21390625 213.1684375 -13.1778125 212.09078125 -13.140625 210.98046875 C-13.09421875 210.160625 -13.0478125 209.34078125 -13 208.49609375 C-14.09465576 208.52227783 -15.18931152 208.54846191 -16.31713867 208.57543945 C-20.38903258 208.66612594 -24.46083776 208.72340924 -28.53344727 208.77075195 C-30.29401676 208.79585436 -32.05448247 208.82994403 -33.81469727 208.87329102 C-36.34938179 208.9341349 -38.88268575 208.96234488 -41.41796875 208.984375 C-42.20149216 209.01018143 -42.98501556 209.03598785 -43.7922821 209.06257629 C-47.9903171 209.06471761 -49.55392309 208.83911539 -53.0012207 206.18823242 C-55 203.49609375 -55 203.49609375 -55.5625 199.93359375 C-54.91329568 195.96623402 -54.17052961 194.87399096 -51 192.49609375 C-49.67548145 191.81208144 -48.3433382 191.1423636 -47 190.49609375 C-47.7734375 189.80644531 -48.546875 189.11679687 -49.34375 188.40625 C-55.63410448 182.7479649 -61.54848096 176.98981496 -67 170.49609375 C-67.433125 171.60984375 -67.86625 172.72359375 -68.3125 173.87109375 C-70 177.49609375 -70 177.49609375 -73 179.49609375 C-76.68175404 179.83079866 -79.10293238 179.99184165 -82.375 178.18359375 C-85.85350655 174.57129849 -85.1289801 170.01322579 -85.09765625 165.328125 C-85.0962413 164.53331223 -85.09482635 163.73849945 -85.09336853 162.91960144 C-85.08777378 160.3825605 -85.07522228 157.845608 -85.0625 155.30859375 C-85.05748432 153.5878919 -85.05292153 151.86718867 -85.04882812 150.14648438 C-85.03780607 145.92965345 -85.02054506 141.71288859 -85 137.49609375 C-85.61560791 137.5105957 -86.23121582 137.52509766 -86.86547852 137.54003906 C-87.67428467 137.55131836 -88.48309082 137.56259766 -89.31640625 137.57421875 C-90.51825562 137.59597168 -90.51825562 137.59597168 -91.74438477 137.61816406 C-94.87691705 137.44863639 -96.62521582 136.51106215 -99 134.49609375 C-101.57692197 130.77324343 -101.30606738 126.76275408 -101.30078125 122.40625 C-101.30506638 121.62471054 -101.3093515 120.84317108 -101.31376648 120.03794861 C-101.31949915 118.3880205 -101.32001787 116.73806712 -101.31567383 115.08813477 C-101.31251517 112.57068544 -101.33598036 110.05441341 -101.36132812 107.53710938 C-101.36360145 105.93099106 -101.36430446 104.3248696 -101.36328125 102.71875 C-101.372491 101.96964859 -101.38170074 101.22054718 -101.39118958 100.44874573 C-101.35166441 95.9595236 -100.78708985 93.05947497 -98 89.49609375 C-95.35541621 88.17380186 -93.32238699 88.39932181 -90.375 88.43359375 C-88.87066406 88.44712891 -88.87066406 88.44712891 -87.3359375 88.4609375 C-86.56507812 88.47253906 -85.79421875 88.48414063 -85 88.49609375 C-85.01571045 87.40143799 -85.0314209 86.30678223 -85.04760742 85.17895508 C-85.1020211 81.10692744 -85.13639156 77.03493178 -85.16479492 72.96264648 C-85.17985553 71.20217479 -85.20030826 69.44174045 -85.22631836 67.68139648 C-85.26282229 65.14687872 -85.27975354 62.61285823 -85.29296875 60.078125 C-85.31619453 58.90283989 -85.31619453 58.90283989 -85.33988953 57.70381165 C-85.34129343 53.11656989 -84.88012436 50.12808768 -82 46.49609375 C-78.94306678 44.96762714 -76.37015453 45.2636693 -73 45.49609375 C-69.71521599 47.09409678 -69.12693064 48.13817627 -67.89453125 51.61328125 C-67.59933594 52.56460938 -67.30414063 53.5159375 -67 54.49609375 C-66.31035156 53.72265625 -65.62070313 52.94921875 -64.91015625 52.15234375 C-59.25187115 45.86198927 -53.49372121 39.94761279 -47 34.49609375 C-48.134375 33.87734375 -49.26875 33.25859375 -50.4375 32.62109375 C-53.875 30.74609375 -53.875 30.74609375 -55 28.49609375 C-55.4754745 24.29606904 -55.55661187 22.25239927 -53.01293945 18.79614258 C-48.99809991 15.73125292 -46.32376621 15.84623328 -41.41796875 16.0078125 C-40.60378983 16.01488724 -39.7896109 16.02196198 -38.95075989 16.0292511 C-36.36205357 16.05713777 -33.77554727 16.11986059 -31.1875 16.18359375 C-29.42776572 16.20868425 -27.66799737 16.23149611 -25.90820312 16.25195312 C-21.60462704 16.30694503 -17.3026859 16.39317383 -13 16.49609375 C-13.04640625 15.67625 -13.0928125 14.85640625 -13.140625 14.01171875 C-13.17671875 12.9340625 -13.2128125 11.85640625 -13.25 10.74609375 C-13.29640625 9.67875 -13.3428125 8.61140625 -13.390625 7.51171875 C-13 4.49609375 -13 4.49609375 -11.546875 2.13647461 C-7.76553078 -0.29899815 -4.41057785 -0.05886294 0 0 Z M-46.375 56.37109375 C-53.80739347 63.94729361 -65 77.48391398 -65 88.49609375 C-64.38511719 88.53347656 -63.77023438 88.57085937 -63.13671875 88.609375 C-61.92435547 88.70798828 -61.92435547 88.70798828 -60.6875 88.80859375 C-59.48673828 88.89560547 -59.48673828 88.89560547 -58.26171875 88.984375 C-55.54051667 89.60005285 -54.73337748 90.34388449 -53 92.49609375 C-52.71368408 95.54512361 -52.603695 98.38551472 -52.63671875 101.43359375 C-52.63622025 102.31007568 -52.63572174 103.18655762 -52.63520813 104.08959961 C-52.63754806 105.94224312 -52.64727181 107.79488984 -52.66381836 109.64746094 C-52.68741039 112.48531482 -52.68437885 115.32222923 -52.67773438 118.16015625 C-52.68331121 119.95964103 -52.69042112 121.75912184 -52.69921875 123.55859375 C-52.69785164 124.83367798 -52.69785164 124.83367798 -52.69645691 126.13452148 C-52.76894841 132.14951637 -52.76894841 132.14951637 -55 135.49609375 C-57.3828125 136.2265625 -57.3828125 136.2265625 -60.125 136.68359375 C-61.03507812 136.84214844 -61.94515625 137.00070313 -62.8828125 137.1640625 C-63.93082031 137.32841797 -63.93082031 137.32841797 -65 137.49609375 C-60.15821476 150.62587607 -53.86087685 160.6352169 -44 170.49609375 C-43.24460937 171.25148437 -42.48921875 172.006875 -41.7109375 172.78515625 C-33.47301784 180.54377877 -24.0378988 185.93198009 -13 188.49609375 C-12.96132812 187.57376953 -12.96132812 187.57376953 -12.921875 186.6328125 C-12.83679688 185.42044922 -12.83679688 185.42044922 -12.75 184.18359375 C-12.70359375 183.38308594 -12.6571875 182.58257812 -12.609375 181.7578125 C-12 179.49609375 -12 179.49609375 -10.49707031 177.87524414 C-6.89677521 175.88677454 -3.44205455 176.10601035 0.5625 176.16796875 C1.39080322 176.16984192 2.21910645 176.17171509 3.07250977 176.17364502 C4.82084183 176.1803567 6.56915911 176.1942537 8.31738281 176.21484375 C10.99037678 176.24598165 13.66278015 176.25581557 16.3359375 176.26171875 C18.0364655 176.27089023 19.73698753 176.28126646 21.4375 176.29296875 C22.23551025 176.29721863 23.03352051 176.30146851 23.85571289 176.30584717 C27.46084067 176.35217883 30.47906233 176.61585933 34 177.49609375 C34.99 182.94109375 34.99 182.94109375 36 188.49609375 C47.58181403 185.07850928 56.92122514 179.41654216 66 171.49609375 C66.60328125 170.98820313 67.2065625 170.4803125 67.828125 169.95703125 C77.56555635 161.0841382 84.03098655 148.88359362 88 136.49609375 C87.31292969 136.48191406 86.62585938 136.46773438 85.91796875 136.453125 C85.01691406 136.40542969 84.11585938 136.35773438 83.1875 136.30859375 C82.29417969 136.27378906 81.40085938 136.23898438 80.48046875 136.203125 C78 135.49609375 78 135.49609375 76.36987305 133.46362305 C74.63583603 129.70721244 74.56854763 126.36411176 74.6015625 122.30859375 C74.59725723 121.13840698 74.59725723 121.13840698 74.59286499 119.94458008 C74.59082997 118.30061107 74.59632048 116.65661755 74.60888672 115.01269531 C74.62494935 112.50400374 74.60901996 109.99692304 74.58984375 107.48828125 C74.59182628 105.88671521 74.59567017 104.28515017 74.6015625 102.68359375 C74.59548981 101.93762939 74.58941711 101.19166504 74.5831604 100.4230957 C74.64315303 95.95540186 75.20676705 93.03182632 78 89.49609375 C80.26171875 88.5703125 80.26171875 88.5703125 82.6875 88.18359375 C83.49574219 88.04308594 84.30398437 87.90257812 85.13671875 87.7578125 C86.05904297 87.62826172 86.05904297 87.62826172 87 87.49609375 C83.58874168 70.47901201 70.02748391 55.00593061 56 45.49609375 C46.53366501 39.61669273 46.53366501 39.61669273 36 36.49609375 C35.90203125 37.11097656 35.8040625 37.72585937 35.703125 38.359375 C35.55359375 39.16761719 35.4040625 39.97585937 35.25 40.80859375 C35.11078125 41.60910156 34.9715625 42.40960938 34.828125 43.234375 C33.72523391 46.24651624 32.81385809 46.92844395 30 48.49609375 C27.07224563 48.78909032 24.36345794 48.91679718 21.4375 48.89453125 C20.60919678 48.89740143 19.78089355 48.90027161 18.92749023 48.90322876 C17.17919225 48.90526693 15.43087133 48.89975431 13.68261719 48.88720703 C11.00924607 48.87114929 8.3373867 48.88706346 5.6640625 48.90625 C3.96353834 48.90426752 2.26301511 48.90042376 0.5625 48.89453125 C-0.23551025 48.90060394 -1.03352051 48.90667664 -1.85571289 48.91293335 C-5.16544695 48.87106677 -7.57211859 48.73316883 -10.49707031 47.11254883 C-12.45152879 45.01045826 -12.58551919 43.64588777 -12.75 40.80859375 C-12.80671875 40.00035156 -12.8634375 39.19210938 -12.921875 38.359375 C-12.94765625 37.74449219 -12.9734375 37.12960938 -13 36.49609375 C-25.12209031 36.49609375 -38.09910064 48.25168792 -46.375 56.37109375 Z " fill="#101E2D" transform="translate(137,74.50390625)"/>
<path d="M0 0 C1.47709733 -0.01041829 1.47709733 -0.01041829 2.98403502 -0.02104706 C6.29301128 -0.03938459 9.60127607 -0.02903374 12.91027832 -0.01878357 C15.27873778 -0.02583856 17.64719273 -0.0345818 20.01564026 -0.04489136 C25.78638567 -0.06509754 31.5569061 -0.06640137 37.32767689 -0.05826581 C42.0172123 -0.05196871 46.70669018 -0.05310016 51.39622498 -0.05953789 C52.39697279 -0.06089037 52.39697279 -0.06089037 53.41793773 -0.06227018 C54.77322568 -0.06412135 56.12851362 -0.06598391 57.48380154 -0.06785773 C70.19556265 -0.08444047 82.90721279 -0.07571281 95.61896724 -0.05887216 C107.25262219 -0.0441727 118.88601893 -0.05880605 130.51964062 -0.08764232 C142.46178584 -0.11702319 154.40381183 -0.12801259 166.34599161 -0.11846012 C167.69632369 -0.11743755 169.04665579 -0.11644294 170.39698792 -0.11547661 C171.39359958 -0.11476202 171.39359958 -0.11476202 172.41034481 -0.114033 C177.09485239 -0.11186723 181.77924728 -0.12168143 186.46372986 -0.13624763 C192.76752291 -0.15454911 199.07083449 -0.14871339 205.37460136 -0.12404823 C207.69177953 -0.11902304 210.00899403 -0.12257402 212.32614326 -0.13519669 C215.48239337 -0.15103382 218.63703979 -0.13626368 221.79321289 -0.11352539 C222.71655159 -0.12536112 223.63989028 -0.13719685 224.59120893 -0.14939123 C230.7789557 -0.05842696 230.7789557 -0.05842696 233.96465206 2.897439 C235.53092124 5.76015475 235.90721092 7.44228216 235.93005371 10.68458557 C235.95380821 12.19139893 235.95380821 12.19139893 235.9780426 13.72865295 C235.97308273 14.802724 235.96812286 15.87679504 235.9630127 16.9834137 C235.96921127 18.09647888 235.97540985 19.20954407 235.98179626 20.3563385 C235.98889097 22.70646796 235.9857266 25.05664771 235.97302246 27.40675354 C235.9591543 31.00225756 235.99323952 34.59516055 236.03137207 38.19044495 C236.03232325 40.47560183 236.03046451 42.76076198 236.0255127 45.0459137 C236.0387709 46.11998474 236.05202911 47.19405579 236.06568909 48.30067444 C236.05315598 49.30521667 236.04062286 50.30975891 236.02770996 51.34474182 C236.0267482 52.22456726 236.02578644 53.1043927 236.02479553 54.01087952 C235.0781766 57.78383508 233.45862101 59.13288837 230.39660645 61.5146637 C227.1837662 62.2470926 224.0395485 62.1854727 220.75561523 62.14285278 C219.77890193 62.14994717 218.80218862 62.15704156 217.79587793 62.16435093 C214.51981022 62.18196698 211.24492322 62.16380699 207.96887207 62.14576721 C205.62159178 62.15090462 203.27431535 62.15818454 200.92704773 62.16744995 C194.54896757 62.18599458 188.17130441 62.17300565 181.7932415 62.15335965 C175.79954896 62.13865519 169.80588701 62.14457918 163.8121863 62.14941656 C151.93547279 62.15798367 140.05892433 62.14130839 128.18225098 62.11158752 C116.65841743 62.08275003 105.13482165 62.07566651 93.61096191 62.09107971 C81.06146247 62.10784173 68.51207591 62.11187612 55.96257353 62.09436935 C49.31977422 62.08521427 42.6770597 62.08117572 36.03425598 62.09041023 C29.78957771 62.09806177 23.54524265 62.08598343 17.30062294 62.05856133 C15.00644767 62.0516646 12.71224042 62.05159322 10.41806602 62.05877686 C7.290858 62.0674418 4.16471635 62.05156472 1.03759766 62.02932739 C-0.3303451 62.04168854 -0.3303451 62.04168854 -1.72592306 62.05429941 C-5.87170282 61.99973532 -8.06028744 61.84762796 -11.66669369 59.63663387 C-14.06277094 57.01134094 -14.23082072 55.77778159 -14.23449707 52.25880432 C-14.24703018 51.21091736 -14.25956329 50.1630304 -14.2724762 49.08338928 C-14.25921799 47.95727234 -14.24595978 46.8311554 -14.2322998 45.6709137 C-14.23471176 44.5096698 -14.23712372 43.3484259 -14.23960876 42.1519928 C-14.23862952 39.69749028 -14.22521778 37.24296589 -14.20031738 34.78858948 C-14.16602022 31.02854999 -14.17965381 27.27086101 -14.19909668 23.51075745 C-14.19219822 21.12663284 -14.18252584 18.74251432 -14.1697998 16.3584137 C-14.17475967 15.23229675 -14.17971954 14.10617981 -14.18482971 12.94593811 C-14.16899338 11.89805115 -14.15315704 10.85016418 -14.13684082 9.77052307 C-14.13064224 8.84993103 -14.12444366 7.92933899 -14.11805725 6.98085022 C-12.53662683 -0.59711268 -6.35221344 -0.05669329 0 0 Z " fill="#121F2D" transform="translate(240.6033935546875,271.48533630371094)"/>
<path d="M0 0 C0.91893036 0.46351364 1.83786072 0.92702728 2.78463745 1.40458679 C3.74328705 1.88199814 4.70193665 2.35940948 5.68963623 2.85128784 C7.71041427 3.86031894 9.72918721 4.87337437 11.74606323 5.8901825 C14.82989554 7.44280809 17.92188805 8.97818351 21.0151062 10.51200867 C22.98046381 11.49600904 24.94532488 12.48100192 26.90963745 13.46708679 C27.83261627 13.92452774 28.75559509 14.38196869 29.70654297 14.85327148 C30.56778778 15.29019821 31.42903259 15.72712494 32.31637573 16.17729187 C33.44838913 16.74568535 33.44838913 16.74568535 34.60327148 17.32556152 C37.11002456 18.88050942 38.86737832 20.32296053 40.71432495 22.63505554 C41.23571777 25.28433228 41.23571777 25.28433228 41.26364136 28.33403015 C41.2922374 30.0511747 41.2922374 30.0511747 41.32141113 31.80300903 C41.31958832 33.03535782 41.3177655 34.2677066 41.31588745 35.53739929 C41.3244577 36.80725174 41.33302795 38.07710419 41.34185791 39.38543701 C41.35334725 42.07166369 41.35621578 44.75635365 41.34567261 47.44242859 C41.33408407 50.87741192 41.36794123 54.31023786 41.41436195 57.74486446 C41.45098548 61.02985946 41.44346481 64.31473694 41.44088745 67.59989929 C41.45930695 68.83022385 41.47772644 70.0605484 41.4967041 71.32815552 C41.40663133 79.6279936 41.40663133 79.6279936 39.4400177 82.48872375 C36.11313051 85.33960466 31.95146589 87.23533935 28.02682495 89.13505554 C27.36908081 89.45546814 26.71133667 89.77588074 26.03366089 90.10600281 C24.50736003 90.84754822 22.97904006 91.58494599 21.44918823 92.31913757 C18.22805338 93.86903196 15.01636197 95.43780979 11.8041687 97.00614929 C9.96958714 97.89880253 8.13452823 98.79046263 6.2991333 99.68144226 C5.08012848 100.2734776 3.86155788 100.8664079 2.64343262 101.46025085 C0.91373646 102.30234249 -0.81873752 103.13872095 -2.55130005 103.97489929 C-3.55966919 104.46337341 -4.56803833 104.95184753 -5.60696411 105.4551239 C-11.19373419 107.91601159 -11.19373419 107.91601159 -14.37600708 107.09721375 C-21.15354621 104.21802274 -27.76677865 101.04791472 -34.34378052 97.7363739 C-36.14831012 96.82877456 -37.95693231 95.9297631 -39.7661438 95.03153992 C-60.05658825 84.86414234 -60.05658825 84.86414234 -64.28567505 80.63505554 C-64.56655884 78.22628784 -64.56655884 78.22628784 -64.60794067 75.16313171 C-64.62715576 74.01821762 -64.64637085 72.87330353 -64.66616821 71.69369507 C-64.67466797 70.45102371 -64.68316772 69.20835236 -64.69192505 67.92802429 C-64.7033252 66.65534195 -64.71472534 65.38265961 -64.72647095 64.07141113 C-64.74539442 61.37364898 -64.75917504 58.67633301 -64.7661438 55.9785614 C-64.77710031 52.52797124 -64.82511901 49.07896503 -64.88208771 45.62887096 C-64.92839314 42.33287571 -64.93224379 39.03679929 -64.94192505 35.74052429 C-64.96661865 34.50392563 -64.99131226 33.26732697 -65.01675415 31.99325562 C-64.97249777 23.48166209 -64.97249777 23.48166209 -61.84890747 19.63139343 C-60.19555664 18.60046387 -60.19555664 18.60046387 -58.28567505 17.63505554 C-57.22463058 17.03904793 -57.22463058 17.03904793 -56.14215088 16.43099976 C-53.66327538 15.08303037 -51.1514423 13.82979529 -48.6177063 12.58818054 C-47.70107712 12.13151001 -46.78444794 11.67483948 -45.84004211 11.20433044 C-43.91304878 10.2460219 -41.98416091 9.2915145 -40.05349731 8.34062195 C-37.0937067 6.88285477 -34.13945462 5.41433646 -31.18606567 3.94364929 C-29.30942192 3.01203625 -27.43247907 2.08102542 -25.5552063 1.15068054 C-24.67081375 0.71217773 -23.7864212 0.27367493 -22.87522888 -0.17811584 C-22.05395004 -0.58233765 -21.2326712 -0.98655945 -20.38650513 -1.4030304 C-19.6651387 -1.7587915 -18.94377228 -2.11455261 -18.20054626 -2.48109436 C-11.31705778 -5.65831689 -6.38644227 -3.14681203 0 0 Z M-18.51223755 16.26005554 C-20.05911255 17.07216492 -20.05911255 17.07216492 -21.63723755 17.90068054 C-23.25758911 18.75919617 -23.25758911 18.75919617 -24.91067505 19.63505554 C-25.9986438 20.20739929 -27.08661255 20.77974304 -28.20755005 21.36943054 C-30.90220231 22.78766857 -33.59478898 24.20968833 -36.28567505 25.63505554 C-36.28567505 26.29505554 -36.28567505 26.95505554 -36.28567505 27.63505554 C-32.75740507 29.51557599 -29.2112661 31.35957619 -25.66067505 33.19755554 C-24.66165161 33.73058289 -23.66262817 34.26361023 -22.6333313 34.81278992 C-21.66008911 35.31230164 -20.68684692 35.81181335 -19.68411255 36.32646179 C-18.34872437 37.02557678 -18.34872437 37.02557678 -16.98635864 37.73881531 C-11.89297994 39.4290877 -7.74239937 37.61086555 -3.10598755 35.34989929 C-1.71380005 34.67797546 -1.71380005 34.67797546 -0.29348755 33.99247742 C0.65784058 33.5239032 1.6091687 33.05532898 2.58932495 32.57255554 C4.05112183 31.86389343 4.05112183 31.86389343 5.54244995 31.14091492 C7.93649369 29.97909957 10.32686989 28.81033484 12.71432495 27.63505554 C12.71432495 26.97505554 12.71432495 26.31505554 12.71432495 25.63505554 C8.75923 23.62860306 4.79973474 21.63099419 0.83932495 19.63505554 C-0.28860474 19.06271179 -1.41653442 18.49036804 -2.5786438 17.90068054 C-3.65501099 17.35927429 -4.73137817 16.81786804 -5.84036255 16.26005554 C-7.33285522 15.50595398 -7.33285522 15.50595398 -8.85549927 14.73661804 C-12.98458863 12.86496331 -14.64008617 14.21760207 -18.51223755 16.26005554 Z M-48.28567505 40.63505554 C-48.28567505 50.86505554 -48.28567505 61.09505554 -48.28567505 71.63505554 C-44.03692505 73.78005554 -39.78817505 75.92505554 -35.41067505 78.13505554 C-34.07150024 78.81374695 -32.73232544 79.49243835 -31.35256958 80.19169617 C-29.77644897 80.98350281 -29.77644897 80.98350281 -28.16848755 81.79130554 C-27.08970337 82.33593445 -26.01091919 82.88056335 -24.89944458 83.44169617 C-22.46133547 84.77349753 -22.46133547 84.77349753 -20.28567505 84.63505554 C-20.28567505 74.40505554 -20.28567505 64.17505554 -20.28567505 53.63505554 C-25.17277409 51.19111288 -25.17277409 51.19111288 -30.06106567 48.7495575 C-33.21522006 47.17516763 -36.36514294 45.59445362 -39.50442505 43.99052429 C-40.38098755 43.5432196 -41.25755005 43.09591492 -42.16067505 42.63505554 C-42.92122192 42.24318054 -43.6817688 41.85130554 -44.46536255 41.44755554 C-46.25782759 40.49919138 -46.25782759 40.49919138 -48.28567505 40.63505554 Z M16.61276245 43.47880554 C15.52140991 44.00667664 14.43005737 44.53454773 13.30563354 45.07841492 C11.91425171 45.75710632 10.52286987 46.43579773 9.08932495 47.13505554 C2.46869995 50.35255554 2.46869995 50.35255554 -4.28567505 53.63505554 C-4.28567505 64.19505554 -4.28567505 74.75505554 -4.28567505 85.63505554 C-1.35692505 84.25318054 1.57182495 82.87130554 4.58932495 81.44755554 C5.49021851 81.02321228 6.39111206 80.59886902 7.31930542 80.16166687 C8.06583374 79.80870544 8.81236206 79.45574402 9.58151245 79.09208679 C10.69695435 78.56578674 10.69695435 78.56578674 11.83493042 78.02885437 C16.14911436 75.94053182 20.42729576 73.77857014 24.71432495 71.63505554 C24.71432495 61.40505554 24.71432495 51.17505554 24.71432495 40.63505554 C21.62088693 40.63505554 19.38061426 42.1336813 16.61276245 43.47880554 Z " fill="#0F1E2C" transform="translate(160.28567504882813,135.3649444580078)"/>
<path d="M0 0 C4.95 0 9.9 0 15 0 C15.16276042 2.50651042 15.32552083 5.01302083 15.48828125 7.51953125 C16.07213522 10.34966308 16.69112401 11.30682427 19 13 C22.53442254 13.52640336 24.29356661 13.45822707 27.3125 11.5 C29.68288625 7.98831667 29.71956753 5.20648707 30 1 C34.95 1 39.9 1 45 1 C45.16276042 4.25520833 45.32552083 7.51041667 45.48828125 10.765625 C46.0229901 14.14531147 46.54638695 15.64933575 49 18 C53.53765362 18.59071464 53.53765362 18.59071464 57.67578125 16.953125 C59.70140333 13.96548182 59.5723607 10.80803957 59.6875 7.3125 C59.8421875 3.6928125 59.8421875 3.6928125 60 0 C64.95 0 69.9 0 75 0 C75.0825 1.4025 75.165 2.805 75.25 4.25 C75.61345779 7.28200314 75.96321574 8.93562755 77.5 11.625 C81.46592223 13.80625723 84.60787917 12.77508015 89 12 C89.66 8.37 90.32 4.74 91 1 C95.95 1 100.9 1 106 1 C106.16276042 4.25520833 106.32552083 7.51041667 106.48828125 10.765625 C107.02449425 14.15481864 107.51860878 15.6605648 110 18 C111.93425486 18.62723208 111.93425486 18.62723208 114 18.5 C114.680625 18.5103125 115.36125 18.520625 116.0625 18.53125 C118.12779974 18.12484249 118.12779974 18.12484249 119.70703125 16.421875 C121.44790782 13.16101859 121.51724066 10.42760164 121.6875 6.75 C121.78611328 4.85507812 121.78611328 4.85507812 121.88671875 2.921875 C121.92410156 1.95765625 121.96148437 0.9934375 122 0 C124.97 0 127.94 0 131 0 C131 9.9 131 19.8 131 30 C59.39 30 -12.22 30 -86 30 C-86 20.43 -86 10.86 -86 1 C-83.03 1 -80.06 1 -77 1 C-76.96261719 1.89203125 -76.92523438 2.7840625 -76.88671875 3.703125 C-76.82097656 4.87359375 -76.75523437 6.0440625 -76.6875 7.25 C-76.60048828 8.99023438 -76.60048828 8.99023438 -76.51171875 10.765625 C-75.97695064 14.14568603 -75.44735964 15.64413044 -73 18 C-69.16678536 18.55755849 -66.99445302 18.73557387 -63.82421875 16.390625 C-61.44517752 13.2729093 -61.40544139 11.13603465 -61.25 7.25 C-61.1675 5.1875 -61.085 3.125 -61 1 C-56.38 1 -51.76 1 -47 1 C-46.34 4.63 -45.68 8.26 -45 12 C-39.86767707 13.01954079 -39.86767707 13.01954079 -34.8125 12.34375 C-32.28346406 10.46877508 -32.22107726 8.93700218 -31.75 5.875 C-31.5025 4.26625 -31.255 2.6575 -31 1 C-26.05 1 -21.1 1 -16 1 C-15.83723958 4.25520833 -15.67447917 7.51041667 -15.51171875 10.765625 C-14.97550575 14.15481864 -14.48139122 15.6605648 -12 18 C-10.06574514 18.62723208 -10.06574514 18.62723208 -8 18.5 C-7.319375 18.5103125 -6.63875 18.520625 -5.9375 18.53125 C-3.87220026 18.12484249 -3.87220026 18.12484249 -2.29296875 16.421875 C-0.55209218 13.16101859 -0.48275934 10.42760164 -0.3125 6.75 C-0.209375 4.5225 -0.10625 2.295 0 0 Z " fill="#EC6460" transform="translate(329,287)"/>
<path d="M0 0 C3.89734411 1.26857494 5.1009016 3.18246382 7.16015625 6.703125 C7.8885495 10.58788902 7.49045818 12.15233571 5.45640182 15.54419136 C3.125442 18.75088122 0.66253603 21.44679736 -2.14227295 24.24606323 C-2.6643018 24.76980093 -3.18633065 25.29353863 -3.72417855 25.83314717 C-5.46212698 27.5743711 -7.20709134 29.30838317 -8.95214844 31.04248047 C-10.20438381 32.2941513 -11.45617817 33.54626347 -12.70756531 34.79878235 C-16.09738512 38.18917503 -19.49332772 41.57337388 -22.89041424 44.95648336 C-26.44275236 48.49630322 -29.98941243 52.04180282 -33.53668213 55.58670044 C-40.25095502 62.2947618 -46.97030904 68.99770938 -53.69150949 75.69882882 C-61.34474214 83.32969234 -68.99228395 90.9662483 -76.63935614 98.6032846 C-92.36653388 114.30956774 -108.10083447 130.00869866 -123.83984375 145.703125 C-126.63554539 144.35585239 -128.67952178 143.10606267 -130.85546875 140.8828125 C-131.38398438 140.34785156 -131.9125 139.81289062 -132.45703125 139.26171875 C-132.99585938 138.70613281 -133.5346875 138.15054688 -134.08984375 137.578125 C-134.64414062 137.01480469 -135.1984375 136.45148438 -135.76953125 135.87109375 C-137.1308886 134.48626472 -138.48599234 133.09529296 -139.83984375 131.703125 C-134.31632996 124.98107604 -128.18494064 118.89987918 -122.03881836 112.75683594 C-120.84389228 111.55891379 -119.64917019 110.36078814 -118.45463562 109.16247559 C-115.2257796 105.92482576 -111.99372442 102.69038836 -108.76078868 99.45681286 C-106.73965453 97.43496614 -104.71923483 95.41240831 -102.69906807 93.38959503 C-95.64785083 86.32914311 -88.59407202 79.27126217 -81.5378418 72.21582031 C-74.96443346 65.64301383 -68.3966354 59.06463796 -61.83141702 52.48365188 C-56.18727409 46.82643768 -50.53928683 41.1730812 -44.88828474 35.52271867 C-41.51619372 32.15088254 -38.14567209 28.77751348 -34.77900505 25.40026093 C-31.61594823 22.22752894 -28.44813401 19.05962576 -25.27659798 15.89537048 C-24.11428889 14.73410762 -22.95368343 13.5711367 -21.79492188 12.40633392 C-20.21198059 10.81567584 -18.62298452 9.23131937 -17.03233337 7.64837646 C-16.1450653 6.76056362 -15.25779722 5.87275078 -14.34364223 4.95803452 C-9.53237664 0.62503062 -6.36317278 -0.97731535 0 0 Z " fill="#61BFF0" transform="translate(460.83984375,25.296875)"/>
<path d="M0 0 C0.78478635 -0.00779995 1.5695727 -0.01559991 2.37814045 -0.02363622 C5.0047701 -0.04356156 7.62995171 -0.02779039 10.2565918 -0.01205444 C12.14082688 -0.01883035 14.02505534 -0.02773333 15.90927124 -0.03860474 C21.02501523 -0.06140782 26.1402553 -0.05255748 31.25600815 -0.03670931 C36.60818597 -0.02405561 41.96032049 -0.03578895 47.3125 -0.04364014 C56.30077872 -0.05273823 65.28885207 -0.04074453 74.27709961 -0.01693726 C84.67064911 0.01027424 95.06370821 0.0014602 105.45724583 -0.02606928 C114.37883739 -0.04875473 123.30028127 -0.05196317 132.22189236 -0.03887594 C137.55129981 -0.03107836 142.88047672 -0.03004837 148.20986938 -0.04655838 C153.22020055 -0.06099559 158.22989912 -0.05099494 163.2401619 -0.0220871 C165.07959568 -0.0154723 166.91908266 -0.01738068 168.75849533 -0.02840042 C171.26859067 -0.04205242 173.77665541 -0.02494643 176.28662109 0 C177.38025199 -0.01673041 177.38025199 -0.01673041 178.49597645 -0.03379881 C182.40242724 0.04158436 184.01956543 0.53434998 187.09284973 3.03202248 C189.20872378 5.71795507 189.82734412 6.78181102 189.76831055 10.13491821 C189.78120117 10.86710571 189.7940918 11.59929321 189.80737305 12.35366821 C188.7847913 15.86653728 186.96116048 17.34483842 184.14331055 19.63491821 C181.3212598 20.12818079 179.10245085 20.31291311 176.28662109 20.26983643 C175.50183475 20.27763638 174.7170484 20.28543633 173.90848064 20.29347265 C171.281851 20.31339799 168.65666939 20.29762682 166.0300293 20.28189087 C164.14579422 20.28866677 162.26156576 20.29756975 160.37734985 20.30844116 C155.26160587 20.33124425 150.14636579 20.32239391 145.03061295 20.30654573 C139.67843512 20.29389203 134.3263006 20.30562538 128.97412109 20.31347656 C119.98584237 20.32257465 110.99776903 20.31058096 102.00952148 20.28677368 C91.61597199 20.25956218 81.22291288 20.26837623 70.82937527 20.29590571 C61.9077837 20.31859116 52.98633982 20.32179959 44.06472874 20.30871236 C38.73532128 20.30091478 33.40614438 20.29988479 28.07675171 20.31639481 C23.06642054 20.33083202 18.05672198 20.32083136 13.0464592 20.29192352 C11.20702541 20.28530873 9.36753844 20.2872171 7.52812576 20.29823685 C5.01803043 20.31188885 2.50996568 20.29478285 0 20.26983643 C-1.0936309 20.28656684 -1.0936309 20.28656684 -2.20935535 20.30363524 C-6.11580614 20.22825206 -7.73294434 19.73548644 -10.80622864 17.23781395 C-12.92210269 14.55188135 -13.54072303 13.48802541 -13.48168945 10.13491821 C-13.49458008 9.40273071 -13.5074707 8.67054321 -13.52075195 7.91616821 C-11.53995968 1.11156417 -6.32987006 -0.09683463 0 0 Z " fill="#EE6460" transform="translate(167.856689453125,467.3650817871094)"/>
<path d="M0 0 C0.89407562 0.00359528 1.78815125 0.00719055 2.70932007 0.01089478 C3.64580887 0.01074875 4.58229767 0.01060272 5.54716492 0.01045227 C8.65845007 0.01115179 11.76967617 0.01894602 14.88095093 0.02676392 C17.0318651 0.02862796 19.18277971 0.03005192 21.33369446 0.03105164 C27.00711225 0.03487792 32.68050463 0.04470914 38.35391235 0.05575562 C44.13831234 0.06596736 49.92271641 0.07054875 55.7071228 0.07559204 C67.06585796 0.08633131 78.42457421 0.10340906 89.78329468 0.12442017 C90.42755557 1.56884399 91.07127007 3.01351154 91.7147522 4.45828247 C92.073279 5.26275566 92.4318058 6.06722885 92.80119705 6.89608002 C93.82265762 9.21373311 94.78760719 11.54498276 95.70516968 13.90567017 C96.00809937 14.68426392 96.31102905 15.46285767 96.62313843 16.26504517 C97.07366577 17.43293579 97.07366577 17.43293579 97.53329468 18.62442017 C97.84911499 19.43395142 98.1649353 20.24348267 98.49032593 21.07754517 C100.78329468 26.99360307 100.78329468 26.99360307 100.78329468 28.12442017 C61.84329468 28.12442017 22.90329468 28.12442017 -17.21670532 28.12442017 C-7.29481352 0.01239341 -7.29481352 0.01239341 0 0 Z " fill="#62C1F3" transform="translate(214.21670532226563,423.8755798339844)"/>
<path d="M0 0 C1.02342499 -0.00708481 2.04684998 -0.01416962 3.10128784 -0.02146912 C4.22343689 -0.0189917 5.34558594 -0.01651428 6.5017395 -0.01396179 C8.27525284 -0.02162819 8.27525284 -0.02162819 10.08459473 -0.02944946 C13.32849869 -0.04097968 16.57224444 -0.04341702 19.81616354 -0.04088616 C22.52486012 -0.03981683 25.2335331 -0.04469897 27.94222462 -0.04949158 C34.33382563 -0.06059049 40.72536789 -0.06102238 47.11697388 -0.05497742 C53.70795633 -0.04893963 60.2987252 -0.06124265 66.88967121 -0.08254749 C72.55007407 -0.1001708 78.210409 -0.10616361 83.87083828 -0.10290974 C87.2507623 -0.10109751 90.63053404 -0.10372671 94.0104332 -0.11762428 C97.78114083 -0.12993867 101.55135251 -0.12322625 105.322052 -0.11161804 C106.44015259 -0.11926178 107.55825317 -0.12690552 108.7102356 -0.13478088 C109.73930023 -0.12776657 110.76836487 -0.12075226 111.82861328 -0.11352539 C113.16536008 -0.113777 113.16536008 -0.113777 114.52911186 -0.1140337 C117.61965681 0.34696869 119.51484041 1.45161323 122.04129028 3.26069641 C123.58715904 6.35243393 123.3348855 8.85499193 123.04129028 12.26069641 C121.17420524 14.6256708 119.72067597 15.92100357 117.04129028 17.26069641 C115.43089791 17.36182101 113.81638085 17.40013131 112.20283508 17.40786743 C110.6697596 17.41860039 110.6697596 17.41860039 109.10571289 17.42955017 C107.97996857 17.43223907 106.85422424 17.43492798 105.69436646 17.43769836 C103.92107216 17.44755516 103.92107216 17.44755516 102.11195374 17.45761108 C98.18606211 17.47737879 94.26018381 17.48901387 90.33425903 17.49897766 C88.982847 17.5030251 87.63143518 17.50714202 86.28002357 17.51132774 C79.93099124 17.53038032 73.58197054 17.54461113 67.2329151 17.55293971 C59.90389325 17.56271248 52.57517339 17.58903236 45.24625796 17.62944061 C39.58164024 17.6596009 33.91710908 17.67440849 28.25241262 17.67772073 C24.86904305 17.6800714 21.48599607 17.68903324 18.10271263 17.7141819 C14.32702766 17.73844193 10.5521362 17.73763191 6.77639771 17.73066711 C5.09689026 17.7498822 5.09689026 17.7498822 3.38345337 17.76948547 C-4.17210139 17.71857437 -4.17210139 17.71857437 -8.12965393 15.41491699 C-10.50293994 12.61971435 -10.95870972 10.9195284 -10.95870972 7.26069641 C-8.52654433 1.90993257 -5.81744643 0.01341231 0 0 Z " fill="#0F1E2C" transform="translate(352.9587097167969,231.7393035888672)"/>
<path d="M0 0 C1.03887863 -0.00860046 2.07775726 -0.01720093 3.14811707 -0.02606201 C4.29256287 -0.03032196 5.43700867 -0.03458191 6.61613464 -0.03897095 C8.41868965 -0.05123718 8.41868965 -0.05123718 10.25765991 -0.06375122 C14.24848597 -0.08863648 18.2392741 -0.10527864 22.23014832 -0.11953735 C23.60384821 -0.12489706 24.97754803 -0.13027456 26.35124779 -0.13566971 C32.06535463 -0.15729826 37.77945865 -0.17603506 43.49359608 -0.1872921 C51.68339213 -0.20353227 59.87271381 -0.2367111 68.06233102 -0.29369295 C73.82036371 -0.33239069 79.57826951 -0.35192454 85.33642882 -0.35721266 C88.77576907 -0.36086644 92.21460337 -0.37288889 95.65380287 -0.4053154 C99.4916489 -0.44098183 103.3288994 -0.43702555 107.16691589 -0.42959595 C108.305289 -0.44600128 109.44366211 -0.46240662 110.61653137 -0.47930908 C118.30379485 -0.418253 118.30379485 -0.418253 122.29537964 2.50286865 C124.50559834 5.77581966 124.81196484 7.28004534 124.08561707 11.15390015 C122.79203796 13.80195618 122.79203796 13.80195618 120.08561707 16.15390015 C116.14235912 16.92652745 112.22721521 16.82580633 108.22038269 16.78500366 C107.00702744 16.79215897 105.79367218 16.79931427 104.54354858 16.8066864 C101.2186822 16.82069904 97.89537071 16.81226494 94.57063103 16.7925961 C91.09046881 16.77620667 87.61035729 16.78502288 84.13017273 16.79011536 C78.28592623 16.79463603 72.44199982 16.77876851 66.5978241 16.75082397 C59.8425427 16.71877181 53.08783858 16.71878764 46.33251619 16.73603874 C39.83231148 16.75190644 33.33231827 16.74516884 26.8321228 16.72810173 C24.06661342 16.72123176 21.3012736 16.72226299 18.5357666 16.72964668 C14.6739046 16.73873516 10.81263509 16.71476846 6.95085144 16.68734741 C5.22858589 16.69713623 5.22858589 16.69713623 3.4715271 16.7071228 C2.42003983 16.69439835 1.36855255 16.68167389 0.28520203 16.66856384 C-0.62770851 16.66575692 -1.54061905 16.66295 -2.48119354 16.66005802 C-5.69336008 15.99185546 -6.8811932 14.67709475 -8.91438293 12.15390015 C-10.09029267 8.46938297 -10.24919632 6.8713574 -8.60188293 3.34140015 C-5.96664587 -0.0746479 -4.13244841 0.02541411 0 0 Z " fill="#0F1E2C" transform="translate(351.9143829345703,195.84609985351563)"/>
<path d="M0 0 C1.30815674 -0.0157608 2.61631348 -0.03152161 3.96411133 -0.04776001 C5.38884321 -0.03881024 6.8135674 -0.02855525 8.23828125 -0.01708984 C9.70272219 -0.02045921 11.16716041 -0.02531283 12.6315918 -0.03158569 C15.6983507 -0.03895156 18.76438064 -0.02826218 21.83105469 -0.00488281 C25.75913003 0.02360657 29.68549744 0.00720081 33.61351013 -0.02274513 C36.63680861 -0.04082688 39.65970317 -0.03505646 42.68301392 -0.02210617 C44.13107506 -0.01877449 45.57917307 -0.02285099 47.02719116 -0.03450394 C49.05197432 -0.04722307 51.07688633 -0.0243935 53.1015625 0 C54.25309814 0.00397797 55.40463379 0.00795593 56.59106445 0.01205444 C59.55078125 0.64697266 59.55078125 0.64697266 61.91870117 2.99990845 C63.93992679 6.27812626 64.26051977 7.86170057 63.55078125 11.64697266 C61.03723655 14.75979895 59.51996738 16.4416709 55.5534668 17.28189087 C54.44269775 17.28586884 53.33192871 17.2898468 52.1875 17.29394531 C50.29028198 17.31758652 50.29028198 17.31758652 48.35473633 17.34170532 C46.98257574 17.33275522 45.61042313 17.32250014 44.23828125 17.31103516 C42.82250553 17.31440608 41.40673264 17.319261 39.9909668 17.32553101 C37.0285274 17.3328896 34.06684351 17.32223123 31.10449219 17.29882812 C27.31440599 17.27033889 23.52609002 17.28674859 19.73606873 17.31669044 C16.81395217 17.33479207 13.89225268 17.32899273 10.97012329 17.31605148 C9.57312814 17.31272528 8.17609464 17.31677697 6.77914429 17.32844925 C4.82412478 17.34120113 2.86897182 17.31830541 0.9140625 17.29394531 C-0.75209106 17.28797836 -0.75209106 17.28797836 -2.4519043 17.28189087 C-6.41840488 16.4416709 -7.93567405 14.75979895 -10.44921875 11.64697266 C-11.15895727 7.86170057 -10.83836429 6.27812626 -8.81713867 2.99990845 C-5.75579308 -0.04206503 -4.26393805 0.01472972 0 0 Z " fill="#101E2D" transform="translate(412.44921875,158.35302734375)"/>
<path d="M0 0 C1.18818329 -0.00960754 2.37636658 -0.01921509 3.60055542 -0.02911377 C4.89011139 -0.03336365 6.17966736 -0.03761353 7.50830078 -0.04199219 C8.82774689 -0.04769226 10.14719299 -0.05339233 11.50662231 -0.05926514 C14.30259588 -0.06977423 17.09854071 -0.07561742 19.89453125 -0.07910156 C23.4747296 -0.08458488 27.05454736 -0.10860924 30.63462639 -0.13707352 C33.38844914 -0.15571133 36.14218045 -0.1609061 38.89606094 -0.16243744 C40.85701141 -0.16693193 42.8179129 -0.18557339 44.77877808 -0.20440674 C46.57050949 -0.19990509 46.57050949 -0.19990509 48.3984375 -0.1953125 C49.4494162 -0.19895813 50.5003949 -0.20260376 51.58322144 -0.20635986 C54.73899387 0.21606554 56.09026623 0.92185498 58.32861328 3.16113281 C59.43234706 7.13457443 59.74404911 9.25113053 58.01611328 13.03613281 C56.32861328 15.16113281 56.32861328 15.16113281 54.32861328 16.16113281 C52.44052184 16.27266432 50.54852606 16.32039266 48.65722656 16.33813477 C47.46904327 16.35097 46.28085999 16.36380524 45.05667114 16.37702942 C43.76711517 16.38441635 42.4775592 16.39180328 41.14892578 16.39941406 C39.82947968 16.40748581 38.51003357 16.41555756 37.15060425 16.4238739 C34.3546359 16.43889969 31.55869297 16.44873862 28.76269531 16.45629883 C25.18238346 16.46736735 21.60269245 16.50177248 18.02260017 16.54147053 C15.26877692 16.56761794 12.51510209 16.57598887 9.76116562 16.57958031 C7.80016995 16.58681721 5.83927566 16.61326321 3.87844849 16.63996887 C2.68396088 16.6370433 1.48947327 16.63411774 0.25878906 16.63110352 C-0.79218964 16.63696976 -1.84316833 16.642836 -2.92599487 16.64888 C-6.38174702 16.03492998 -7.53226539 14.8911414 -9.67138672 12.16113281 C-10.84729646 8.47661563 -11.0062001 6.87859006 -9.35888672 3.34863281 C-6.55870696 -0.28122984 -4.40003309 0.0286295 0 0 Z " fill="#0F1E2C" transform="translate(231.67138671875,379.8388671875)"/>
<path d="M0 0 C5.94 0 11.88 0 18 0 C18 5.94 18 11.88 18 18 C12.06 18 6.12 18 0 18 C0 12.06 0 6.12 0 0 Z " fill="#5BB3E1" transform="translate(227,178)"/>
<path d="M0 0 C4.1765625 -0.0309375 4.1765625 -0.0309375 8.4375 -0.0625 C9.75512329 -0.07615601 9.75512329 -0.07615601 11.09936523 -0.09008789 C13.06645974 -0.09723091 15.03353621 -0.05031893 17 0 C18 1 18 1 18.09765625 4.81640625 C18.09191138 6.39847047 18.07889593 7.98051031 18.0625 9.5625 C18.041875 12.346875 18.02125 15.13125 18 18 C12.06 18 6.12 18 0 18 C0 12.06 0 6.12 0 0 Z " fill="#5BB3E2" transform="translate(52,178)"/>
<path d="M0 0 C5.61 0 11.22 0 17 0 C17 5.61 17 11.22 17 17 C11.39 17 5.78 17 0 17 C0 11.39 0 5.78 0 0 Z " fill="#EA635F" transform="translate(140,266)"/>
<path d="M0 0 C5.61 0 11.22 0 17 0 C17 5.61 17 11.22 17 17 C11.39 17 5.78 17 0 17 C0 11.39 0 5.78 0 0 Z " fill="#E8625F" transform="translate(140,91)"/>
</svg>
