<?xml version="1.0" encoding="UTF-8"?>
<svg version="1.1" xmlns="http://www.w3.org/2000/svg" width="512" height="512">
<path d="M0 0 C0.78901876 -0.00467997 1.57803752 -0.00935994 2.39096594 -0.01418173 C5.02566859 -0.0261146 7.65984946 -0.01668131 10.29455566 -0.00723267 C12.1871623 -0.01129913 14.07976656 -0.01664143 15.97236633 -0.02316284 C21.10660694 -0.03683334 26.2406666 -0.03153885 31.37491035 -0.02202559 C36.74929414 -0.01442765 42.12366248 -0.02147498 47.49804688 -0.02618408 C56.52318095 -0.03164123 65.54824137 -0.02445105 74.57336426 -0.01016235 C85.00600192 0.00616405 95.43846369 0.00087552 105.87109709 -0.01564157 C114.83006403 -0.02925756 123.78897804 -0.03117553 132.74795198 -0.02332556 C138.09800379 -0.01864968 143.44797293 -0.01802191 148.79801941 -0.02793503 C153.82791562 -0.03660401 158.85758516 -0.03058391 163.88745689 -0.01325226 C165.73292858 -0.00928707 167.57841936 -0.01042201 169.42388344 -0.01704025 C171.94406028 -0.02524457 174.46351187 -0.01494786 176.98364258 0 C177.71302583 -0.00669217 178.44240909 -0.01338433 179.19389486 -0.02027929 C183.85369508 0.03328798 187.02295506 0.94870049 190.99182129 3.38095093 C194.93089776 7.72751806 195.11883106 11.55604941 195.13226318 17.26908875 C195.13671987 18.3262654 195.13671987 18.3262654 195.14126658 19.40479916 C195.14995532 21.77226861 195.15146198 24.1396875 195.1529541 26.50717163 C195.15758215 28.20229195 195.16260679 29.89741123 195.16799927 31.5925293 C195.1811265 36.20211124 195.18756885 40.81167861 195.19200993 45.42127633 C195.19494012 48.30066579 195.19904482 51.18005125 195.2035141 54.05943871 C195.21718985 63.06694054 195.22685614 72.07443327 195.23071599 81.08194476 C195.23519715 91.48247516 195.25274743 101.88287416 195.28171659 112.28336459 C195.30332732 120.32082238 195.31341995 128.35824319 195.31475711 136.39572972 C195.31580557 141.19699508 195.3217221 145.99813693 195.33957672 150.79937172 C195.35604688 155.31622529 195.35821805 159.83286238 195.34943771 164.34973526 C195.34866677 166.00654492 195.35301756 167.66336617 195.36289597 169.32014656 C195.37560292 171.58430954 195.36974602 173.84770436 195.35931396 176.11186218 C195.36078053 177.37819646 195.36224709 178.64453074 195.36375809 179.94923878 C194.85974018 184.59961056 193.48278899 188.02976145 189.99182129 191.19345093 C186.94685227 193.00140128 184.45648509 193.50574134 180.98652649 193.50120544 C179.76870232 193.50326744 179.76870232 193.50326744 178.52627563 193.50537109 C177.63939056 193.50177582 176.75250549 193.49818054 175.83874512 193.49447632 C174.43357384 193.49469536 174.43357384 193.49469536 173.00001526 193.49491882 C169.89960424 193.49422143 166.79925308 193.4864371 163.69885254 193.47860718 C161.55079684 193.47674238 159.40274072 193.47531877 157.25468445 193.47431946 C151.59773588 193.47049913 145.94081294 193.46067294 140.28387451 193.44961548 C134.51269884 193.43939097 128.74151903 193.43481961 122.97033691 193.42977905 C111.64415377 193.41905027 100.31798966 193.40197962 88.99182129 193.38095093 C89.26629593 194.0498938 89.54077057 194.71883667 89.82356262 195.40805054 C90.18370956 196.2950061 90.54385651 197.18196167 90.91491699 198.09579468 C91.27189163 198.97098755 91.62886627 199.84618042 91.99665833 200.74789429 C93.4358475 204.55577978 94.35153183 208.40233339 95.17932129 212.38095093 C95.34657715 213.16566772 95.51383301 213.95038452 95.68615723 214.75888062 C96.83431316 220.28882127 97.78571777 225.72654578 97.99182129 231.38095093 C98.03178223 232.43153687 98.07174316 233.4821228 98.11291504 234.56454468 C98.49507427 254.72906409 94.43348209 278.21845973 82.99182129 295.38095093 C84.23270508 295.38505981 85.47358887 295.3891687 86.7520752 295.3934021 C91.37065763 295.41522873 95.98839243 295.46955525 100.60656738 295.53353882 C102.60257828 295.55668801 104.5987108 295.57110729 106.59484863 295.57650757 C109.47012854 295.58581964 112.3435038 295.62685909 115.21838379 295.67391968 C116.54998032 295.66802071 116.54998032 295.66802071 117.90847778 295.66200256 C122.21404533 295.76263658 125.10780516 296.02352516 128.52453613 298.78451538 C133.03319593 303.52918161 133.71477333 309.1451529 134.99182129 315.38095093 C138.04639821 316.26879932 140.78009023 316.51000922 143.9564209 316.52279663 C144.94101791 316.52983109 145.92561493 316.53686554 146.94004822 316.54411316 C147.99740677 316.54827744 149.05476532 316.55244171 150.14416504 316.55673218 C152.38701304 316.57992361 154.62985162 316.60404066 156.87268066 316.6289978 C160.40586721 316.66415511 163.93870542 316.6934865 167.4720459 316.70687866 C170.88401239 316.72233895 174.29496578 316.76252848 177.70666504 316.80673218 C179.28966652 316.80386955 179.28966652 316.80386955 180.90464783 316.8009491 C188.23929865 316.92340454 188.23929865 316.92340454 192.13464355 319.2918396 C195.43077393 322.99960713 195.14571246 326.1238449 195.1529541 330.87240601 C195.15791901 331.64495224 195.16288391 332.41749847 195.16799927 333.2134552 C195.18263474 335.77580651 195.18942561 338.33809589 195.19494629 340.90048218 C195.20069714 342.67926536 195.20645488 344.45804852 195.21221924 346.23683167 C195.22273354 349.9701771 195.22857322 353.70350097 195.23205566 357.43685913 C195.2375376 362.21863229 195.26155733 367.0001203 195.29002762 371.78180408 C195.30866124 375.45783823 195.31386001 379.13380383 195.31539154 382.80988121 C195.31841758 384.57252243 195.32644448 386.33516245 195.33957672 388.09775734 C195.35665055 390.56582874 195.35475376 393.0332056 195.3482666 395.50131226 C195.35748138 396.22825287 195.36669617 396.95519348 195.37619019 397.7041626 C195.34004926 402.09829086 194.78016128 404.93931077 191.99182129 408.38095093 C189.00110721 410.22464615 186.74199473 410.63294957 183.25453186 410.64164734 C182.30545959 410.64873215 181.35638733 410.65581696 180.3785553 410.66311646 C179.34415817 410.66063904 178.30976105 410.65816162 177.24401855 410.65560913 C176.14931244 410.66072006 175.05460632 410.66583099 173.92672729 410.6710968 C170.30383861 410.68501021 166.68113978 410.68403472 163.05822754 410.68173218 C160.54243397 410.68561805 158.02664106 410.68995249 155.510849 410.69471741 C150.2358539 410.70218332 144.96090804 410.70202366 139.68591309 410.69662476 C133.59307166 410.69058457 127.50046114 410.70289803 121.40765911 410.72419482 C115.54075872 410.74394614 109.67394873 410.74698326 103.80702019 410.7434597 C101.31312454 410.74397359 98.81922526 410.74922401 96.32534981 410.75927162 C92.83972446 410.77159131 89.35463516 410.76487076 85.86901855 410.75326538 C84.83664566 410.76090912 83.80427277 410.76855286 82.74061584 410.77642822 C73.88422351 410.71116714 73.88422351 410.71116714 69.99182129 407.38095093 C67.45172353 403.57080429 67.68486279 400.47207312 67.67297363 396.05404663 C67.66292801 395.20504791 67.65288239 394.35604919 67.64253235 393.48132324 C67.61162437 390.67313315 67.5946441 387.86503873 67.57775879 385.05673218 C67.55905326 383.11044996 67.53948032 381.16417589 67.51907349 379.21791077 C67.46768127 374.09367681 67.4280935 368.96941653 67.39093018 363.84506226 C67.35093495 358.61672417 67.29982219 353.38849622 67.24963379 348.1602478 C67.15279056 337.90055946 67.06841266 327.64080904 66.99182129 317.38095093 C66.45533463 317.92473389 65.91884796 318.46851685 65.36610413 319.02877808 C64.65550339 319.74505371 63.94490265 320.46132935 63.21276855 321.1993103 C62.51128189 321.90809326 61.80979523 322.61687622 61.08705139 323.34713745 C58.21693722 326.13312114 55.16848331 328.54283275 51.92932129 330.88095093 C51.28720703 331.34525513 50.64509277 331.80955933 49.98352051 332.28793335 C24.37981961 350.40022725 -5.98746052 357.1125477 -37.04821777 352.55599976 C-50.4501632 350.22556779 -62.83913177 345.35260803 -75.00817871 339.38095093 C-75.40005371 340.61845093 -75.79192871 341.85595093 -76.19567871 343.13095093 C-77.66716988 347.08295579 -79.34752112 349.12823856 -83.00817871 351.38095093 C-83.66817871 351.38095093 -84.32817871 351.38095093 -85.00817871 351.38095093 C-85.00817871 352.04095093 -85.00817871 352.70095093 -85.00817871 353.38095093 C-83.89442871 353.69032593 -83.89442871 353.69032593 -82.75817871 354.00595093 C-78.83486226 355.96760915 -76.82598245 358.98408996 -75.41149902 363.12973022 C-74.48125881 368.32206979 -74.78193849 373.70534646 -74.76794434 378.97006226 C-74.75825637 381.17577077 -74.72721738 383.38053961 -74.69567871 385.58602905 C-74.68914579 387.00334127 -74.68389646 388.42066011 -74.68005371 389.83798218 C-74.67070801 391.11649048 -74.6613623 392.39499878 -74.6517334 393.71224976 C-75.11138072 398.44315412 -76.34026277 402.44373606 -79.50817871 406.12313843 C-84.30520823 409.7458951 -87.3451424 410.5059809 -93.2754364 410.52812195 C-95.24581375 410.5388549 -95.24581375 410.5388549 -97.2559967 410.54980469 C-98.71530128 410.55264496 -100.17460611 410.55535669 -101.63391113 410.55795288 C-103.16815342 410.56421825 -104.70239419 410.57086512 -106.2366333 410.5778656 C-111.27896061 410.59890199 -116.32128821 410.6092685 -121.36364746 410.61923218 C-123.10039091 410.62328008 -124.83713421 410.62739701 -126.57387733 410.63158226 C-134.73455805 410.65063405 -142.89522973 410.66486436 -151.05592841 410.67319423 C-160.47053886 410.682963 -169.88491397 410.7092731 -179.29944152 410.74969512 C-186.57939895 410.77987746 -193.85928902 410.79466517 -201.1393078 410.79797524 C-205.48573613 410.80032358 -209.83191304 410.80925557 -214.17827415 410.83443642 C-218.27002866 410.85775893 -222.36136697 410.86193374 -226.45317078 410.85167503 C-227.95111795 410.85118055 -229.4490859 410.85747514 -230.94696999 410.87123108 C-238.8362368 410.93960139 -245.2868365 410.9426207 -252.00817871 406.38095093 C-256.06273293 401.5897834 -256.60505304 396.92866714 -256.53942871 390.81454468 C-256.54325562 390.01742569 -256.54708252 389.2203067 -256.55102539 388.39903259 C-256.55373212 386.72412849 -256.54645814 385.04918121 -256.52966309 383.37435913 C-256.50820482 380.82155655 -256.52951918 378.27155852 -256.55505371 375.71884155 C-256.55241077 374.08406977 -256.54728647 372.44929971 -256.53942871 370.81454468 C-256.54752563 370.05814194 -256.55562256 369.3017392 -256.56396484 368.52241516 C-256.4735965 363.378385 -255.35495317 360.48304195 -252.00817871 356.38095093 C-249.25817871 354.00595093 -249.25817871 354.00595093 -247.00817871 352.38095093 C-247.75067871 352.03032593 -248.49317871 351.67970093 -249.25817871 351.31845093 C-253.13773474 348.58512737 -255.51093283 345.04655216 -256.38244629 340.37460327 C-256.53343178 338.18981486 -256.56303089 336.03953655 -256.53942871 333.84970093 C-256.54325562 333.05495361 -256.54708252 332.2602063 -256.55102539 331.44137573 C-256.55373239 329.77066776 -256.54645654 328.09991653 -256.52966309 326.42929077 C-256.50823365 323.88746705 -256.52950368 321.34846911 -256.55505371 318.80673218 C-256.55241022 317.17521559 -256.54728478 315.54370074 -256.53942871 313.91220093 C-256.54752563 313.16095947 -256.55562256 312.40971802 -256.56396484 311.63571167 C-256.46768876 306.15597235 -255.16124021 302.88738129 -252.00817871 298.38095093 C-249.25817871 296.94345093 -249.25817871 296.94345093 -247.00817871 296.38095093 C-247.00817871 295.72095093 -247.00817871 295.06095093 -247.00817871 294.38095093 C-247.87442871 294.04063843 -247.87442871 294.04063843 -248.75817871 293.69345093 C-252.15039934 291.71465556 -254.26311342 288.8710815 -256.00817871 285.38095093 C-256.14371125 282.69142456 -256.22087735 280.02907424 -256.24645996 277.33798218 C-256.25453171 276.53616013 -256.26260345 275.73433807 -256.2709198 274.90821838 C-256.28476324 273.2076636 -256.29548424 271.507081 -256.30334473 269.80648804 C-256.32049771 267.22073626 -256.36437217 264.63628334 -256.40856934 262.0508728 C-256.41870186 260.39658531 -256.42721621 258.74228696 -256.43395996 257.08798218 C-256.45146805 256.32105545 -256.46897614 255.55412872 -256.48701477 254.76396179 C-256.46567842 249.41242984 -255.54708371 245.49302369 -252.00817871 241.38095093 C-246.04691331 237.01773077 -240.06432932 236.82490454 -232.91052246 236.92684937 C-231.82670792 236.92626526 -230.74289337 236.92568115 -229.62623596 236.92507935 C-226.06571746 236.92785242 -222.50604987 236.95890905 -218.94567871 236.99032593 C-216.46846982 236.99779104 -213.991255 237.0034827 -211.51403809 237.00747681 C-205.01035104 237.02271163 -198.50702423 237.06197555 -192.003479 237.10629272 C-185.36055717 237.14729152 -178.71759999 237.16549766 -172.07458496 237.18563843 C-159.05229632 237.22847135 -146.03025672 237.2959226 -133.00817871 237.38095093 C-133.0137529 236.63637634 -133.01932709 235.89180176 -133.02507019 235.12466431 C-133.03157341 233.65099396 -133.03157341 233.65099396 -133.03820801 232.14755249 C-133.0437822 231.17610291 -133.04935638 230.20465332 -133.05509949 229.20376587 C-132.99234471 225.42835711 -132.51692759 221.83539257 -131.82067871 218.13095093 C-131.61994751 217.04825928 -131.61994751 217.04825928 -131.41516113 215.94369507 C-125.73548941 187.03274214 -108.98492792 160.33991736 -84.69226074 143.50546265 C-72.28534942 135.22099852 -59.11193568 129.16548633 -44.63317871 125.56845093 C-43.413927 125.25774658 -43.413927 125.25774658 -42.17004395 124.94076538 C-36.66825905 123.66466964 -31.27671181 123.12984142 -25.6541748 122.81967163 C-24.91660446 122.77639992 -24.17903412 122.7331282 -23.41911316 122.68854523 C-21.61563352 122.58314825 -19.81192675 122.48165017 -18.00817871 122.38095093 C-18.01186588 121.80410994 -18.01555305 121.22726894 -18.01935196 120.63294792 C-18.10775586 106.58592863 -18.17391392 92.53895114 -18.2154274 78.49171257 C-18.23603755 71.69850539 -18.26412818 64.9054841 -18.30993652 58.11239624 C-18.35411955 51.55719831 -18.37731414 45.00212099 -18.38768768 38.44678116 C-18.39508075 35.94531336 -18.40951753 33.44385618 -18.43109894 30.94247055 C-18.46011844 27.43979771 -18.46413516 23.93792379 -18.46228027 20.43515015 C-18.47666138 19.40008835 -18.49104248 18.36502655 -18.50585938 17.29859924 C-18.47279546 11.53176128 -18.14195413 7.77895381 -14.00817871 3.38095093 C-9.33413298 0.4978547 -5.37422493 -0.04930906 0 0 Z " fill="#8EC9E4" transform="translate(287.0081787109375,41.619049072265625)"/>
<path d="M0 0 C1.18352814 -0.00701996 1.18352814 -0.00701996 2.39096594 -0.01418173 C5.02566859 -0.0261146 7.65984946 -0.01668131 10.29455566 -0.00723267 C12.1871623 -0.01129913 14.07976656 -0.01664143 15.97236633 -0.02316284 C21.10660694 -0.03683334 26.2406666 -0.03153885 31.37491035 -0.02202559 C36.74929414 -0.01442765 42.12366248 -0.02147498 47.49804688 -0.02618408 C56.52318095 -0.03164123 65.54824137 -0.02445105 74.57336426 -0.01016235 C85.00600192 0.00616405 95.43846369 0.00087552 105.87109709 -0.01564157 C114.83006403 -0.02925756 123.78897804 -0.03117553 132.74795198 -0.02332556 C138.09800379 -0.01864968 143.44797293 -0.01802191 148.79801941 -0.02793503 C153.82791562 -0.03660401 158.85758516 -0.03058391 163.88745689 -0.01325226 C165.73292858 -0.00928707 167.57841936 -0.01042201 169.42388344 -0.01704025 C171.94406028 -0.02524457 174.46351187 -0.01494786 176.98364258 0 C177.71302583 -0.00669217 178.44240909 -0.01338433 179.19389486 -0.02027929 C183.85369508 0.03328798 187.02295506 0.94870049 190.99182129 3.38095093 C194.93089776 7.72751806 195.11883106 11.55604941 195.13226318 17.26908875 C195.13523431 17.97387318 195.13820543 18.67865762 195.14126658 19.40479916 C195.14995532 21.77226861 195.15146198 24.1396875 195.1529541 26.50717163 C195.15758215 28.20229195 195.16260679 29.89741123 195.16799927 31.5925293 C195.1811265 36.20211124 195.18756885 40.81167861 195.19200993 45.42127633 C195.19494012 48.30066579 195.19904482 51.18005125 195.2035141 54.05943871 C195.21718985 63.06694054 195.22685614 72.07443327 195.23071599 81.08194476 C195.23519715 91.48247516 195.25274743 101.88287416 195.28171659 112.28336459 C195.30332732 120.32082238 195.31341995 128.35824319 195.31475711 136.39572972 C195.31580557 141.19699508 195.3217221 145.99813693 195.33957672 150.79937172 C195.35604688 155.31622529 195.35821805 159.83286238 195.34943771 164.34973526 C195.34866677 166.00654492 195.35301756 167.66336617 195.36289597 169.32014656 C195.37560292 171.58430954 195.36974602 173.84770436 195.35931396 176.11186218 C195.36078053 177.37819646 195.36224709 178.64453074 195.36375809 179.94923878 C194.85974018 184.59961056 193.48278899 188.02976145 189.99182129 191.19345093 C186.93253325 193.0099032 184.43423267 193.50571472 180.94856262 193.50120544 C180.12826569 193.50258011 179.30796875 193.50395477 178.46281433 193.50537109 C177.56657852 193.50177582 176.67034271 193.49818054 175.74694824 193.49447632 C174.32714661 193.49469536 174.32714661 193.49469536 172.87866211 193.49491882 C169.74578572 193.4942214 166.61296856 193.48643692 163.48010254 193.47860718 C161.30962659 193.47674239 159.13915022 193.47531878 156.96867371 193.47431946 C151.25254151 193.47049904 145.53643467 193.46067277 139.8203125 193.44961548 C133.98881371 193.43939117 128.15731083 193.43481965 122.32580566 193.42977905 C110.88113306 193.41905011 99.43647928 193.40197935 87.99182129 193.38095093 C87.46000244 192.36557251 86.92818359 191.35019409 86.38024902 190.30404663 C85.66631519 188.9506815 84.95219386 187.59741526 84.23791504 186.24423218 C83.88934448 185.57750488 83.54077393 184.91077759 83.18164062 184.22384644 C77.8393324 174.12938665 70.79401972 165.6690514 62.99182129 157.38095093 C62.39111816 156.70419312 61.79041504 156.0274353 61.17150879 155.33016968 C43.18718696 135.90554502 14.54244513 125.60940206 -11.33239746 123.83798218 C-12.58496338 123.75137329 -13.8375293 123.6647644 -15.12805176 123.57553101 C-16.5537146 123.47921387 -16.5537146 123.47921387 -18.00817871 123.38095093 C-18.10168969 108.62088663 -18.17219095 93.86086164 -18.2154274 79.10056114 C-18.23603798 72.24682071 -18.26412945 65.39326451 -18.30993652 58.53964233 C-18.35411795 51.92608683 -18.37731379 45.31267247 -18.38768768 38.69896317 C-18.39508103 36.17516695 -18.40951833 33.65138125 -18.43109894 31.12766647 C-18.46011638 27.59386264 -18.46413524 24.06085074 -18.46228027 20.52694702 C-18.47666138 19.48253448 -18.49104248 18.43812195 -18.50585938 17.36206055 C-18.47297057 11.57543869 -18.16262615 7.79078986 -14.00817871 3.38095093 C-9.33382051 0.49829538 -5.37434144 -0.04931013 0 0 Z " fill="#00B2CA" transform="translate(287.0081787109375,41.619049072265625)"/>
<path d="M0 0 C1.08220825 -0.0021904 2.1644165 -0.0043808 3.27941895 -0.00663757 C6.83511515 -0.00893813 10.38997172 0.01724113 13.94555664 0.04418945 C16.42037188 0.04911482 18.89519085 0.05241275 21.37001038 0.05415344 C26.54383328 0.06177957 31.71737816 0.08230545 36.89111328 0.11328125 C43.53840272 0.15300039 50.1853762 0.17091446 56.83277035 0.18059063 C63.16205704 0.19053574 69.49129932 0.21043642 75.82055664 0.23168945 C77.03485792 0.2350852 78.2491592 0.23848095 79.50025749 0.2419796 C82.9142888 0.25349361 86.32820279 0.27200129 89.7421875 0.29296875 C90.76395584 0.29565765 91.78572418 0.29834656 92.8384552 0.30111694 C94.22413193 0.3118499 94.22413193 0.3118499 95.63780212 0.32279968 C96.44504195 0.32707316 97.25228178 0.33134665 98.08398342 0.33574963 C99.91821289 0.4699707 99.91821289 0.4699707 100.91821289 1.4699707 C101.01394314 3.24204395 101.10290224 5.01474876 101.15722656 6.78857422 C102.00061777 32.54142669 112.47117156 58.48266087 129.91821289 77.4699707 C130.36535645 77.95949219 130.8125 78.44901367 131.27319336 78.95336914 C138.43415946 86.70678043 146.0366666 92.77044604 154.91821289 98.4699707 C155.90821289 99.1299707 156.89821289 99.7899707 157.91821289 100.4699707 C156.83159654 105.81250108 155.95517131 109.55174635 151.91821289 113.4699707 C149.66821289 114.2824707 149.66821289 114.2824707 147.91821289 114.4699707 C147.91821289 115.1299707 147.91821289 115.7899707 147.91821289 116.4699707 C148.66071289 116.6762207 149.40321289 116.8824707 150.16821289 117.0949707 C154.09152934 119.05662893 156.10040915 122.07310974 157.51489258 126.21875 C158.44513279 131.41108957 158.14445312 136.79436623 158.15844727 142.05908203 C158.16813524 144.26479054 158.19917422 146.46955939 158.23071289 148.67504883 C158.23724581 150.09236105 158.24249515 151.50967988 158.24633789 152.92700195 C158.25568359 154.20551025 158.2650293 155.48401855 158.2746582 156.80126953 C157.81501088 161.53217389 156.58612883 165.53275584 153.41821289 169.2121582 C148.62118337 172.83491487 145.5812492 173.59500067 139.6509552 173.61714172 C137.68057785 173.62787468 137.68057785 173.62787468 135.6703949 173.63882446 C134.21109032 173.64166473 132.7517855 173.64437646 131.29248047 173.64697266 C129.75823818 173.65323803 128.22399741 173.6598849 126.6897583 173.66688538 C121.64743099 173.68792176 116.60510339 173.69828827 111.56274414 173.70825195 C109.82600069 173.71229985 108.08925739 173.71641679 106.35251427 173.72060204 C98.19183355 173.73965383 90.03116187 173.75388413 81.87046319 173.762214 C72.45585274 173.77198278 63.04147763 173.79829287 53.62695009 173.8387149 C46.34699265 173.86889724 39.06710259 173.88368494 31.7870838 173.88699502 C27.44065547 173.88934336 23.09447856 173.89827535 18.74811745 173.92345619 C14.65636294 173.9467787 10.56502464 173.95095352 6.47322083 173.94069481 C4.97527365 173.94020033 3.47730571 173.94649492 1.97942162 173.96025085 C-5.9098452 174.02862116 -12.3604449 174.03164047 -19.08178711 169.4699707 C-23.13634132 164.67880318 -23.67866144 160.01768692 -23.61303711 153.90356445 C-23.61686401 153.10644547 -23.62069092 152.30932648 -23.62463379 151.48805237 C-23.62734052 149.81314826 -23.62006654 148.13820099 -23.60327148 146.46337891 C-23.58181321 143.91057632 -23.60312757 141.36057829 -23.62866211 138.80786133 C-23.62601916 137.17308954 -23.62089487 135.53831949 -23.61303711 133.90356445 C-23.62113403 133.14716171 -23.62923096 132.39075897 -23.63757324 131.61143494 C-23.5472049 126.46740477 -22.42856156 123.57206172 -19.08178711 119.4699707 C-16.33178711 117.0949707 -16.33178711 117.0949707 -14.08178711 115.4699707 C-14.82428711 115.1193457 -15.56678711 114.7687207 -16.33178711 114.4074707 C-20.21134313 111.67414714 -22.58454122 108.13557193 -23.45605469 103.46362305 C-23.60704018 101.27883463 -23.63663928 99.12855633 -23.61303711 96.9387207 C-23.61686401 96.14397339 -23.62069092 95.34922607 -23.62463379 94.53039551 C-23.62734078 92.85968754 -23.62006494 91.18893631 -23.60327148 89.51831055 C-23.58184205 86.97648683 -23.60311208 84.43748888 -23.62866211 81.89575195 C-23.62601862 80.26423536 -23.62089318 78.63272052 -23.61303711 77.0012207 C-23.62113403 76.24997925 -23.62923096 75.49873779 -23.63757324 74.72473145 C-23.54129716 69.24499212 -22.23484861 65.97640106 -19.08178711 61.4699707 C-16.33178711 60.0324707 -16.33178711 60.0324707 -14.08178711 59.4699707 C-14.08178711 58.8099707 -14.08178711 58.1499707 -14.08178711 57.4699707 C-14.65928711 57.2430957 -15.23678711 57.0162207 -15.83178711 56.7824707 C-19.22400774 54.80367534 -21.33672182 51.96010128 -23.08178711 48.4699707 C-23.21731965 45.78044433 -23.29448575 43.11809402 -23.32006836 40.42700195 C-23.32814011 39.6251799 -23.33621185 38.82335785 -23.3445282 37.99723816 C-23.35837164 36.29668338 -23.36909263 34.59610078 -23.37695312 32.89550781 C-23.39410611 30.30975604 -23.43798057 27.72530311 -23.48217773 25.13989258 C-23.49231026 23.48560508 -23.50082461 21.83130673 -23.50756836 20.17700195 C-23.52507645 19.41007523 -23.54258453 18.6431485 -23.56062317 17.85298157 C-23.53928735 12.50158302 -22.62081655 8.58184869 -19.08178711 4.4699707 C-13.12639977 0.11464495 -7.14633581 -0.0908546 0 0 Z " fill="#DC6D41" transform="translate(54.081787109375,278.530029296875)"/>
<path d="M0 0 C4.01326703 0.19590151 8.02468026 0.26817893 12.04185963 0.33580017 C16.86182762 0.41928031 21.67969148 0.55551043 26.4979248 0.70788574 C27.85759337 0.74926163 27.85759337 0.74926163 29.24473 0.79147339 C31.80770859 0.88256968 34.36616414 1.00919486 36.92687988 1.14929199 C37.67640427 1.17373383 38.42592865 1.19817566 39.19816589 1.22335815 C44.85849273 1.59378754 47.38081584 3.1520298 51.16589355 7.14538574 C52.32122595 10.36146501 52.296373 13.46851121 52.30633545 16.86300659 C52.31204559 18.0294017 52.31775574 19.19579681 52.32363892 20.39753723 C52.3253157 22.31145515 52.3253157 22.31145515 52.32702637 24.26403809 C52.3316568 25.62433506 52.33668176 26.98463075 52.34207153 28.34492493 C52.3551744 32.03712145 52.36163616 35.72929981 52.36608219 39.42151594 C52.36901586 41.72920061 52.37312118 44.03688035 52.37758636 46.34456253 C52.39125468 53.56764686 52.40092504 60.79071987 52.40478826 68.01381624 C52.40926988 76.34680218 52.42682534 84.67962416 52.45578885 93.01256025 C52.47741202 99.45769536 52.48749285 105.90278435 52.48882937 112.34795535 C52.48987679 116.19571212 52.49577128 120.04331464 52.51364899 123.89103317 C52.53014114 127.51080824 52.53227978 131.13031325 52.52350998 134.75011253 C52.52237396 136.70748738 52.53608181 138.66485332 52.55026245 140.62217712 C52.49826588 151.56491582 52.49826588 151.56491582 49.16589355 156.14538574 C46.02036984 158.24240155 45.28675195 158.39768401 41.70071411 158.41281128 C40.78667313 158.42134125 39.87263214 158.42987122 38.93089294 158.43865967 C37.9303035 158.4377533 36.92971405 158.43684692 35.89880371 158.43591309 C34.8432579 158.44263031 33.7877121 158.44934753 32.70018005 158.45626831 C29.20172451 158.47530675 25.70346021 158.47917549 22.20495605 158.48132324 C19.77741414 158.48774713 17.34987302 158.49447518 14.92233276 158.50149536 C9.82967331 158.51348279 4.73708176 158.51717468 -0.35559082 158.51599121 C-6.88503333 158.51578795 -13.41404095 158.54309147 -19.94338036 158.57753563 C-24.95850631 158.59976044 -29.97352688 158.6038301 -34.98869705 158.60277176 C-37.39607874 158.60513433 -39.80346304 158.61399453 -42.21079636 158.62943649 C-45.57691753 158.64900626 -48.9420915 158.64329317 -52.30822754 158.63122559 C-53.30476852 158.6424646 -54.30130951 158.65370361 -55.32804871 158.6652832 C-59.69158527 158.62548068 -62.14782715 158.56782753 -65.92947388 156.24002075 C-68.69813491 153.19516348 -68.97825801 151.43787139 -69.13604736 147.41700745 C-69.17644135 146.41833649 -69.21683533 145.41966553 -69.25845337 144.39073181 C-69.29727631 143.29019974 -69.33609924 142.18966766 -69.37609863 141.05578613 C-69.41961456 139.8991748 -69.46313049 138.74256348 -69.50796509 137.55090332 C-69.8924839 126.79260047 -70.13000767 116.03177078 -70.31516647 105.26842594 C-70.44244196 98.04889637 -70.62016873 90.83801638 -70.92590332 83.62365723 C-73.21330434 28.39331462 -73.21330434 28.39331462 -59.71584892 13.49987602 C-43.46598575 -2.56310574 -21.28900423 -1.19634728 0 0 Z " fill="#7ECAB3" transform="translate(99.8341064453125,39.8546142578125)"/>
<path d="M0 0 C6.6 0 13.2 0 20 0 C24 9 24 9 24.76171875 11.8671875 C26.76378236 15.31553681 30.20077174 15.97362091 33.8125 17.125 C35.23726009 17.60206899 36.66048466 18.08375169 38.08203125 18.5703125 C38.7582251 18.80057129 39.43441895 19.03083008 40.13110352 19.26806641 C42 20 42 20 44.828125 21.71875 C47.02004421 23.34178888 47.02004421 23.34178888 49.9375 22.375 C53.04161461 21.03131929 53.04161461 21.03131929 56.0625 19.3125 C59.53539734 17.76077991 60.44824477 17.80057174 64 19 C66.14460024 20.67850712 67.97100613 22.2759506 69.875 24.1875 C70.38546875 24.65736328 70.8959375 25.12722656 71.421875 25.61132812 C72.8671875 27.04296875 72.8671875 27.04296875 75 30 C74.90518383 33.81635068 73.98878343 36.02415876 72.375 39.5 C70.46476053 44.36242773 71.06218878 46.84662859 73.12109375 51.57421875 C73.97556357 53.43275399 74.84954025 55.28249 75.74609375 57.12109375 C77 60 77 60 77.71484375 63.6328125 C78.71487652 67.28110083 78.71487652 67.28110083 82.2578125 68.99609375 C83.53451921 69.50849234 84.82658148 69.98292141 86.125 70.4375 C88.39375 71.283125 90.6625 72.12875 93 73 C93 79.6 93 86.2 93 93 C80.25 98 80.25 98 78 98 C77.938125 98.9075 77.87625 99.815 77.8125 100.75 C77.07789024 106.07866187 74.85673955 114.14326045 71 118 C71.30317533 121.8654854 71.82708755 124.66747606 73.625 128.125 C75.26199143 131.54780026 75.20192143 132.4621704 74 136 C71.75 138.60546875 71.75 138.60546875 69 141.1875 C65.55497294 144.25987953 65.55497294 144.25987953 63 148 C58.76218396 147.47027299 55.69154794 145.86400989 52.0625 143.7421875 C46.68468661 141.8069895 40.80813647 145.69609387 35.94140625 147.83984375 C33 149 33 149 29.0625 149.5 C24.98657647 151.49637071 24.7280295 153.38917391 23.125 157.5625 C22.41535017 159.70789832 21.7066969 161.85362718 21 164 C20 165 20 165 18.05053711 165.11352539 C17.2178833 165.10828857 16.38522949 165.10305176 15.52734375 165.09765625 C14.62822266 165.09443359 13.72910156 165.09121094 12.80273438 165.08789062 C11.85720703 165.07951172 10.91167969 165.07113281 9.9375 165.0625 C8.5134082 165.05573242 8.5134082 165.05573242 7.06054688 165.04882812 C4.70696935 165.0370011 2.35351523 165.02052025 0 165 C-0.18691406 164.13117188 -0.37382812 163.26234375 -0.56640625 162.3671875 C-2.29405299 155.81940719 -2.29405299 155.81940719 -6.61230469 150.84375 C-9.7366583 149.25929175 -12.9663245 148.17558428 -16.30859375 147.1484375 C-19.78311698 146.06747472 -22.76224075 144.63308032 -26 143 C-30.33457165 143.11715059 -34.03087802 145.39381721 -37.81640625 147.35546875 C-40 148 -40 148 -41.91796875 147.46484375 C-44.84068741 145.40852199 -47.27551481 142.93391644 -49.75 140.375 C-50.25660156 139.859375 -50.76320312 139.34375 -51.28515625 138.8125 C-52.52803902 137.54616661 -53.76465276 136.2736856 -55 135 C-54.54554036 133.58208592 -54.08625056 132.16571954 -53.625 130.75 C-53.24214844 129.56664062 -53.24214844 129.56664062 -52.8515625 128.359375 C-52 126 -52 126 -50.8359375 124.015625 C-49.68563191 121.24199095 -50.12859986 119.85836085 -51 117 C-51.93043868 114.83259327 -52.91381658 112.68745654 -53.9375 110.5625 C-55.52112556 107.26684682 -56.92073797 104.32939546 -57.77734375 100.76953125 C-58.79211967 97.7146455 -58.79211967 97.7146455 -62.0390625 96.3203125 C-63.22242188 95.92585938 -64.40578125 95.53140625 -65.625 95.125 C-68.780625 94.073125 -68.780625 94.073125 -72 93 C-72 86.4 -72 79.8 -72 73 C-63 69 -63 69 -60.06640625 68.13671875 C-57.71240351 67.1151636 -57.71240351 67.1151636 -56.77734375 64.20703125 C-56.50019531 63.08683594 -56.22304687 61.96664062 -55.9375 60.8125 C-54.87692107 56.86575546 -53.93807487 53.48460699 -51.6875 50.0625 C-49.77377902 47.17222585 -49.77377902 47.17222585 -50 44.1875 C-51.41285625 39.68402069 -53.15496256 35.34227417 -55 31 C-52.95508106 28.79340372 -50.89193564 26.61114955 -48.8125 24.4375 C-48.23435547 23.80908203 -47.65621094 23.18066406 -47.06054688 22.53320312 C-45.44074578 20.85849352 -43.90067915 19.34830326 -42 18 C-37.66822951 17.93601521 -34.05673052 20.3680239 -30.28125 22.35546875 C-27.16867515 23.23487774 -25.85959807 22.42542656 -23 21 C-22.12601563 20.58621094 -21.25203125 20.17242187 -20.3515625 19.74609375 C-19.45179688 19.31425781 -18.55203125 18.88242188 -17.625 18.4375 C-13.30895508 16.45176892 -9.72597055 15.3150647 -5 15 C-4.70996094 14.00419922 -4.70996094 14.00419922 -4.4140625 12.98828125 C-4.15367187 12.10527344 -3.89328125 11.22226563 -3.625 10.3125 C-3.24214844 9.00732422 -3.24214844 9.00732422 -2.8515625 7.67578125 C-2.02382686 5.07486881 -1.01369191 2.53422977 0 0 Z " fill="#1D4F8A" transform="translate(259,197)"/>
<path d="M0 0 C1.13867523 -0.01262878 1.13867523 -0.01262878 2.300354 -0.0255127 C3.16174988 -0.04142456 4.02314575 -0.05733643 4.91064453 -0.07373047 C5.84394592 -0.07393188 6.77724731 -0.0741333 7.73883057 -0.07434082 C8.69839661 -0.08195435 9.65796265 -0.08956787 10.64660645 -0.09741211 C12.68090206 -0.10823305 14.71525332 -0.11105815 16.74957275 -0.10656738 C19.85371682 -0.10559885 22.95535868 -0.14711805 26.05914307 -0.19152832 C28.03570042 -0.19673812 30.01226635 -0.19942347 31.98883057 -0.19934082 C33.37663727 -0.22393372 33.37663727 -0.22393372 34.79248047 -0.24902344 C39.18629872 -0.20224299 42.19120393 -0.03080475 45.68511963 2.79089355 C50.15949813 7.55665188 50.85324182 13.16268459 52.12945557 19.39440918 C55.18403248 20.28225757 57.9177245 20.52346747 61.09405518 20.53625488 C62.5709507 20.54680656 62.5709507 20.54680656 64.0776825 20.55757141 C65.13504105 20.56173569 66.1923996 20.56589996 67.28179932 20.57019043 C69.52464731 20.59338186 71.7674859 20.61749891 74.01031494 20.64245605 C77.54350149 20.67761336 81.0763397 20.70694475 84.60968018 20.72033691 C88.02164667 20.7357972 91.43260006 20.77598673 94.84429932 20.82019043 C96.4273008 20.8173278 96.4273008 20.8173278 98.0422821 20.81440735 C105.37693293 20.93686279 105.37693293 20.93686279 109.27227783 23.30529785 C112.56840821 27.01306539 112.28334674 30.13730315 112.29058838 34.88586426 C112.29803574 36.04468361 112.29803574 36.04468361 112.30563354 37.22691345 C112.32026902 39.78926476 112.32705988 42.35155414 112.33258057 44.91394043 C112.33833142 46.69272361 112.34408916 48.47150678 112.34985352 50.25028992 C112.36036781 53.98363535 112.36620749 57.71695922 112.36968994 61.45031738 C112.37517188 66.23209055 112.39919161 71.01357856 112.4276619 75.79526234 C112.44629552 79.47129648 112.45149429 83.14726208 112.45302582 86.82333946 C112.45605186 88.58598068 112.46407876 90.3486207 112.477211 92.11121559 C112.49428483 94.57928699 112.49238803 97.04666385 112.48590088 99.51477051 C112.49511566 100.24171112 112.50433044 100.96865173 112.51382446 101.71762085 C112.47768354 106.11174911 111.91779556 108.95276902 109.12945557 112.39440918 C106.13874148 114.2381044 103.879629 114.64640782 100.39216614 114.65510559 C98.96855774 114.6657328 98.96855774 114.6657328 97.51618958 114.67657471 C96.48179245 114.67409729 95.44739532 114.67161987 94.38165283 114.66906738 C93.28694672 114.67417831 92.1922406 114.67928925 91.06436157 114.68455505 C87.44147289 114.69846846 83.81877406 114.69749298 80.19586182 114.69519043 C77.68006825 114.6990763 75.16427533 114.70341075 72.64848328 114.70817566 C67.37348818 114.71564157 62.09854232 114.71548191 56.82354736 114.71008301 C50.73070594 114.70404283 44.63809542 114.71635628 38.54529339 114.73765308 C32.678393 114.75740439 26.81158301 114.76044151 20.94465446 114.75691795 C18.45075882 114.75743185 15.95685954 114.76268226 13.46298409 114.77272987 C9.97735873 114.78504956 6.49226944 114.77832902 3.00665283 114.76672363 C1.45809349 114.77818924 1.45809349 114.77818924 -0.12174988 114.78988647 C-8.97814221 114.72462539 -8.97814221 114.72462539 -12.87054443 111.39440918 C-15.40884663 107.58695589 -15.21690569 104.44982596 -15.27215576 100.03015137 C-15.29011703 99.17598633 -15.30807831 98.32182129 -15.32658386 97.44177246 C-15.38139679 94.60832155 -15.419314 91.775067 -15.45257568 88.94128418 C-15.46447119 87.96982704 -15.47636669 86.9983699 -15.48862267 85.99747467 C-15.54797949 80.84500069 -15.59177469 75.69261702 -15.62567139 70.53991699 C-15.6566907 66.29666908 -15.71911101 62.05572984 -15.8102417 57.81335449 C-15.92054902 52.67429049 -15.97536817 47.53732678 -15.99207115 42.39713287 C-16.00722555 40.4499461 -16.04097919 38.50280173 -16.09470558 36.5562973 C-16.4732279 22.02677677 -13.61309942 14.17524371 -3.87054443 3.39440918 C-1.87054443 0.39440918 -1.87054443 0.39440918 0 0 Z " fill="#FECC06" transform="translate(369.87054443359375,337.6055908203125)"/>
<path d="M0 0 C0.98367271 -0.00551503 0.98367271 -0.00551503 1.98721761 -0.01114148 C4.18884857 -0.0221714 6.39043233 -0.02602095 8.59208679 -0.02983093 C10.16898244 -0.03609605 11.74587661 -0.04274289 13.32276917 -0.04974365 C18.50457227 -0.07077856 23.68637567 -0.08114465 28.86820984 -0.09111023 C30.65205081 -0.09515782 32.43589163 -0.09927475 34.21973228 -0.10346031 C42.5993227 -0.12250974 50.97890432 -0.136742 59.35851222 -0.14507228 C69.03236203 -0.15484797 78.70598322 -0.18117712 88.37975246 -0.22157317 C95.85670457 -0.25172478 103.33359111 -0.2665402 110.81060284 -0.26985329 C115.27657188 -0.27220465 119.74229661 -0.28117619 124.20820045 -0.30631447 C128.4099296 -0.32958395 132.61125338 -0.33383308 136.81303024 -0.32355309 C138.35374359 -0.32305736 139.89447683 -0.3293888 141.43512917 -0.34310913 C143.54187316 -0.3608187 145.64716077 -0.35372859 147.75390625 -0.34057617 C148.9317484 -0.34296453 150.10959055 -0.34535288 151.32312489 -0.34781361 C155.28563473 0.256748 157.44588742 1.67802749 160.56742859 4.14717102 C165.57182376 11.04978505 164.7859227 18.55741278 164.80766296 26.73628235 C164.81735093 28.94199086 164.84838992 31.1467597 164.87992859 33.35224915 C164.88646151 34.76956137 164.89171084 36.1868802 164.89555359 37.60420227 C164.90489929 38.88271057 164.914245 40.16121887 164.9238739 41.47846985 C164.46422658 46.20937421 163.23534453 50.20995615 160.06742859 53.88935852 C155.27039907 57.51211519 152.2304649 58.27220099 146.3001709 58.29434204 C144.32979355 58.305075 144.32979355 58.305075 142.3196106 58.31602478 C140.86030602 58.31886505 139.40100119 58.32157678 137.94169617 58.32417297 C136.40745388 58.33043835 134.87321311 58.33708521 133.338974 58.34408569 C128.29664669 58.36512208 123.25431909 58.37548859 118.21195984 58.38545227 C116.47521639 58.38950017 114.73847309 58.3936171 113.00172997 58.39780235 C104.84104925 58.41685415 96.68037757 58.43108445 88.51967889 58.43941432 C79.10506844 58.44918309 69.69069333 58.47549319 60.27616578 58.51591522 C52.99620835 58.54609755 45.71631828 58.56088526 38.4362995 58.56419533 C34.08987117 58.56654368 29.74369426 58.57547566 25.39733315 58.60065651 C21.30557864 58.62397902 17.21424033 58.62815383 13.12243652 58.61789513 C11.62448935 58.61740064 10.1265214 58.62369524 8.62863731 58.63745117 C0.7393705 58.70582148 -5.7112292 58.70884079 -12.43257141 54.14717102 C-16.48712563 49.35600349 -17.02944574 44.69488724 -16.96382141 38.58076477 C-16.96764832 37.78364578 -16.97147522 36.98652679 -16.97541809 36.16525269 C-16.97812482 34.49034858 -16.97085084 32.81540131 -16.95405579 31.14057922 C-16.93259752 28.58777664 -16.95391188 26.03777861 -16.97944641 23.48506165 C-16.97680347 21.85028986 -16.97167917 20.21551981 -16.96382141 18.58076477 C-16.9759668 17.44616066 -16.9759668 17.44616066 -16.98835754 16.28863525 C-16.88268801 10.27361644 -14.80975614 6.90470531 -10.87007141 2.33467102 C-7.61155988 -0.35714285 -4.01791717 0.01459194 0 0 Z " fill="#80311A" transform="translate(47.43257141113281,393.8528289794922)"/>
<path d="M0 0 C1.18352814 -0.00701996 1.18352814 -0.00701996 2.39096594 -0.01418173 C5.02566859 -0.0261146 7.65984946 -0.01668131 10.29455566 -0.00723267 C12.1871623 -0.01129913 14.07976656 -0.01664143 15.97236633 -0.02316284 C21.10660694 -0.03683334 26.2406666 -0.03153885 31.37491035 -0.02202559 C36.74929414 -0.01442765 42.12366248 -0.02147498 47.49804688 -0.02618408 C56.52318095 -0.03164123 65.54824137 -0.02445105 74.57336426 -0.01016235 C85.00600192 0.00616405 95.43846369 0.00087552 105.87109709 -0.01564157 C114.83006403 -0.02925756 123.78897804 -0.03117553 132.74795198 -0.02332556 C138.09800379 -0.01864968 143.44797293 -0.01802191 148.79801941 -0.02793503 C153.82791562 -0.03660401 158.85758516 -0.03058391 163.88745689 -0.01325226 C165.73292858 -0.00928707 167.57841936 -0.01042201 169.42388344 -0.01704025 C171.94406028 -0.02524457 174.46351187 -0.01494786 176.98364258 0 C177.71302583 -0.00669217 178.44240909 -0.01338433 179.19389486 -0.02027929 C183.85369508 0.03328798 187.02295506 0.94870049 190.99182129 3.38095093 C201.46332302 14.93571145 194.99182129 36.1129128 194.99182129 48.38095093 C124.70182129 48.38095093 54.41182129 48.38095093 -18.00817871 48.38095093 C-18.00817871 9.38095093 -18.00817871 9.38095093 -14.00817871 3.38095093 C-9.45673814 0.31653264 -5.3453052 -0.04904372 0 0 Z " fill="#1C518B" transform="translate(287.0081787109375,41.619049072265625)"/>
<path d="M0 0 C14.83865086 -0.19682272 29.67612418 -0.31296231 44.5161047 -0.33421898 C51.40754059 -0.34595198 58.29697386 -0.3836398 65.18774414 -0.48339844 C71.84072357 -0.57964047 78.49136125 -0.60227263 85.14517403 -0.58046341 C87.68057101 -0.58409697 90.21605725 -0.61220375 92.75089836 -0.66541672 C112.10677299 -1.0487789 112.10677299 -1.0487789 116.91121292 2.35338593 C120.40670954 6.08061639 122.11553182 10.31167876 124 15 C125.24632871 17.07849041 126.59659872 19.02085073 128 21 C127.18015625 21.04898437 126.3603125 21.09796875 125.515625 21.1484375 C124.43796875 21.22320312 123.3603125 21.29796875 122.25 21.375 C121.18265625 21.44460938 120.1153125 21.51421875 119.015625 21.5859375 C116.17237969 21.97633129 114.38862903 22.44850731 112 24 C110.47508002 27.04983996 110.76437452 29.6423369 111 33 C112.54262813 35.10358381 113.68108317 35.84054159 116 37 C119.30704725 37.23836379 122.62280304 37.18518688 125.9375 37.1875 C126.85724609 37.19974609 127.77699219 37.21199219 128.72460938 37.22460938 C129.60826172 37.22654297 130.49191406 37.22847656 131.40234375 37.23046875 C132.21179443 37.23457764 133.02124512 37.23868652 133.85522461 37.24291992 C136.29777907 37.13192317 136.29777907 37.13192317 139 35 C143.13018312 35.19582765 145.93917 38.1227223 149 40.625 C155.01905093 45.41710051 161.23230236 49.31739696 168 53 C163.21734531 57.94207651 163.21734531 57.94207651 159.23785686 58.13142776 C158.05155084 58.13440243 156.86524481 58.13737709 155.64299011 58.14044189 C154.98327361 58.14341302 154.32355711 58.14638414 153.64384919 58.1494453 C151.42295383 58.15814909 149.20211226 58.15964196 146.98120117 58.16113281 C145.39297876 58.16575982 143.80475747 58.17078432 142.21653748 58.17617798 C137.89414442 58.18931582 133.5717669 58.1957497 129.24935699 58.20018864 C126.55005352 58.20311731 123.85075433 58.20722174 121.15145302 58.21169281 C112.70938803 58.22537178 104.26733278 58.23503631 95.82525748 58.2388947 C86.07388907 58.2433757 76.32266081 58.26092383 66.57133502 58.2898953 C59.03836726 58.31150043 51.50543896 58.32159837 43.97244054 58.32293582 C39.47132537 58.32398475 34.97034187 58.32991105 30.46925926 58.34775543 C26.23476455 58.36421582 22.00050077 58.36640157 17.76598549 58.35761642 C16.21195991 58.35684494 14.65792203 58.36120346 13.10392761 58.37107468 C10.9816629 58.38376469 8.86021973 58.37793422 6.73796082 58.36749268 C5.55052371 58.36895924 4.36308661 58.3704258 3.13966656 58.3719368 C-0.36580495 57.95666536 -2.19691947 57.11262653 -5 55 C-8.78825591 49.75746933 -9.59993419 45.84134424 -9.53125 39.46875 C-9.5350769 38.67400269 -9.53890381 37.87925537 -9.54284668 37.0604248 C-9.54555367 35.38971684 -9.53827783 33.7189656 -9.52148438 32.04833984 C-9.50005494 29.50651612 -9.52132497 26.96751818 -9.546875 24.42578125 C-9.54423151 22.79426466 -9.53910607 21.16274982 -9.53125 19.53125 C-9.53934692 18.78000854 -9.54744385 18.02876709 -9.55578613 17.25476074 C-9.45951005 11.77502142 -8.1530615 8.50643036 -5 4 C-2.25 2.5625 -2.25 2.5625 0 2 C0 1.34 0 0.68 0 0 Z " fill="#F8A03E" transform="translate(40,336)"/>
<path d="M0 0 C1.13867523 -0.01262878 1.13867523 -0.01262878 2.300354 -0.0255127 C3.16174988 -0.04142456 4.02314575 -0.05733643 4.91064453 -0.07373047 C5.84394592 -0.07393188 6.77724731 -0.0741333 7.73883057 -0.07434082 C8.69839661 -0.08195435 9.65796265 -0.08956787 10.64660645 -0.09741211 C12.68090206 -0.10823305 14.71525332 -0.11105815 16.74957275 -0.10656738 C19.85371682 -0.10559885 22.95535868 -0.14711805 26.05914307 -0.19152832 C28.03570042 -0.19673812 30.01226635 -0.19942347 31.98883057 -0.19934082 C33.37663727 -0.22393372 33.37663727 -0.22393372 34.79248047 -0.24902344 C39.18629872 -0.20224299 42.19120393 -0.03080475 45.68511963 2.79089355 C50.15949813 7.55665188 50.85324182 13.16268459 52.12945557 19.39440918 C55.18403248 20.28225757 57.9177245 20.52346747 61.09405518 20.53625488 C62.5709507 20.54680656 62.5709507 20.54680656 64.0776825 20.55757141 C65.13504105 20.56173569 66.1923996 20.56589996 67.28179932 20.57019043 C69.52464731 20.59338186 71.7674859 20.61749891 74.01031494 20.64245605 C77.54350149 20.67761336 81.0763397 20.70694475 84.60968018 20.72033691 C88.02164667 20.7357972 91.43260006 20.77598673 94.84429932 20.82019043 C96.4273008 20.8173278 96.4273008 20.8173278 98.0422821 20.81440735 C105.37693293 20.93686279 105.37693293 20.93686279 109.27227783 23.30529785 C115.76711419 30.61124169 112.12945557 33.68532183 112.12945557 47.39440918 C70.21945557 47.39440918 28.30945557 47.39440918 -14.87054443 47.39440918 C-14.87054443 15.17218696 -14.87054443 15.17218696 -6.47210693 5.94909668 C-5.61359131 5.1060498 -4.75507568 4.26300293 -3.87054443 3.39440918 C-1.87054443 0.39440918 -1.87054443 0.39440918 0 0 Z " fill="#F8A03E" transform="translate(369.87054443359375,337.6055908203125)"/>
<path d="M0 0 C4.35597787 3.69311167 7.39647731 7.81895367 10.125 12.8125 C10.4653125 13.41449219 10.805625 14.01648438 11.15625 14.63671875 C14.64008312 22.07212185 14.28258536 31.39309634 12.24609375 39.16796875 C7.98978617 50.25122512 0.64399695 57.84495309 -10.09765625 62.84765625 C-20.31131307 66.72055963 -29.98581425 65.00115261 -39.875 60.8125 C-46.69094703 56.88570066 -51.12783454 51.65828306 -54.875 44.8125 C-55.2153125 44.22210938 -55.555625 43.63171875 -55.90625 43.0234375 C-59.55645479 35.3512478 -59.09235134 23.82947632 -56.75 15.8125 C-52.79674722 6.11409949 -45.11218192 -0.88000599 -35.8671875 -5.42578125 C-23.95241615 -9.98142912 -10.15742503 -7.31606828 0 0 Z " fill="#8EC9E4" transform="translate(291.875,251.1875)"/>
<path d="M0 0 C1.19590256 -0.00838898 2.39180511 -0.01677795 3.62394714 -0.02542114 C4.92749146 -0.01418213 6.23103577 -0.00294312 7.57408142 0.00863647 C8.96732947 0.00648948 10.36057577 0.00261009 11.7538147 -0.00286865 C15.53070328 -0.01254952 19.30711803 0.00272459 23.08394933 0.02303743 C27.03788402 0.0406241 30.99180443 0.03708306 34.94577026 0.03631592 C41.58432428 0.03818798 48.22269527 0.05553995 54.8611908 0.08285522 C62.5360134 0.11431799 70.21063569 0.12485091 77.88551813 0.12338412 C86.05811954 0.12203315 94.23064373 0.13591466 102.40322185 0.15427732 C104.75777082 0.15853943 107.11230734 0.1599596 109.46685982 0.16075516 C113.16624974 0.16276451 116.86547155 0.17497787 120.56480598 0.19508743 C122.57023013 0.20371397 124.57568876 0.20259464 126.58113098 0.20120239 C127.77421371 0.20973236 128.96729645 0.21826233 130.1965332 0.22705078 C131.23350877 0.23040247 132.27048433 0.23375416 133.3388834 0.23720741 C136.12295633 0.50289148 137.71764379 0.95317239 140.03477478 2.49447632 C142.36226823 5.98571649 142.53776794 7.38669883 142.03477478 11.49447632 C140.16767568 13.79723188 138.67829737 15.17271502 136.03477478 16.49447632 C134.17107146 16.5987112 132.3036313 16.63836395 130.43704224 16.64837646 C129.24670883 16.65697693 128.05637543 16.66557739 126.82997131 16.67443848 C124.86083267 16.6808284 124.86083267 16.6808284 122.85191345 16.68734741 C121.46073196 16.69524772 120.06955252 16.70351663 118.67837524 16.71212769 C114.10318461 16.7383552 109.52798478 16.75365562 104.95274353 16.76791382 C103.3784516 16.77327312 101.80415974 16.77865063 100.22986794 16.78404617 C93.68194338 16.8056756 87.1340213 16.82441287 80.58607006 16.83566856 C71.19816555 16.85191156 61.81067469 16.88509665 52.42292613 16.94206941 C45.82413606 16.98075283 39.22545671 17.00029931 32.62655622 17.00558913 C28.68422143 17.00924473 24.74232775 17.02128725 20.80011559 17.05369186 C17.09078323 17.08374509 13.38215949 17.09009474 9.6727314 17.07830811 C7.66380818 17.07798183 5.65492888 17.10246568 3.64616394 17.12768555 C-6.1722213 17.0595553 -6.1722213 17.0595553 -9.27435303 14.18066406 C-11.51501915 10.62105152 -11.71566965 8.62192071 -10.96522522 4.49447632 C-7.4021017 0.90223401 -5.00705016 -0.00525892 0 0 Z " fill="#FEFEFE" transform="translate(309.96522521972656,118.50552368164063)"/>
<path d="M0 0 C33.77981856 -1.14615784 64.53169008 8.09586958 89.60546875 31.29296875 C103.70790093 44.71712764 115.80448467 61.99535183 121 81 C121 81.99 121 82.98 121 84 C116.05 84 111.1 84 106 84 C105.5153125 83.04480469 105.030625 82.08960938 104.53125 81.10546875 C98.14058936 68.69950012 90.58666981 58.18370441 81 48 C80.39929688 47.32324219 79.79859375 46.64648438 79.1796875 45.94921875 C59.16365028 24.33016557 28.39993879 15.68712508 0 14 C0 9.38 0 4.76 0 0 Z " fill="#138898" transform="translate(269,151)"/>
<path d="M0 0 C1.81242052 -0.02687279 3.62495233 -0.04633715 5.4375 -0.0625 C6.44683594 -0.07410156 7.45617187 -0.08570313 8.49609375 -0.09765625 C11 0 11 0 12 1 C12.09573025 2.77207325 12.18468935 4.54477806 12.23901367 6.31860352 C13.08240488 32.07145599 23.55295867 58.01269017 41 77 C41.44714355 77.48952148 41.89428711 77.97904297 42.35498047 78.48339844 C49.51594657 86.23680973 57.11845371 92.30047533 66 98 C67.485 98.99 67.485 98.99 69 100 C67.125 107.75 67.125 107.75 66 110 C56.34058546 107.09087808 48.67108159 101.01103745 41.19140625 94.40625 C39.1272057 92.76084204 39.1272057 92.76084204 36.83984375 93.21875 C35.54112078 93.77022472 34.26200023 94.36899988 33 95 C29.73536547 95.26518877 26.46171113 95.23154074 23.1875 95.25 C22.28451172 95.270625 21.38152344 95.29125 20.45117188 95.3125 C15.50712452 95.34156126 11.9684794 95.31645743 8 92 C6.45413124 88.90826248 6.70640479 86.40570448 7 83 C9.52732526 79.79872134 11.52688431 78.17916272 15.6015625 77.68359375 C16.59929687 77.60238281 17.59703125 77.52117187 18.625 77.4375 C19.62789062 77.35371094 20.63078125 77.26992188 21.6640625 77.18359375 C22.43492187 77.12300781 23.20578125 77.06242187 24 77 C23.63648438 76.53851563 23.27296875 76.07703125 22.8984375 75.6015625 C5.77434403 53.38414892 -0.55928423 27.68456914 0 0 Z " fill="#C3833C" transform="translate(143,279)"/>
<path d="M0 0 C2.52332898 2.13512452 3.83888234 3.6236729 4.23046875 6.96875 C4.03502402 10.84868973 4.03502402 10.84868973 3 13 C-2.18807514 17.58541994 -8.38064419 18.63030675 -15 20.125 C-16.04800781 20.37636719 -17.09601563 20.62773437 -18.17578125 20.88671875 C-31.71267148 24.04367361 -44.81665149 25.35208297 -58.67504883 25.31567383 C-61.16728023 25.31252554 -63.6583057 25.33603151 -66.15039062 25.36132812 C-74.68662219 25.39650678 -83.03484166 24.96060444 -91.48828125 23.73046875 C-92.28437302 23.62237381 -93.08046478 23.51427887 -93.90068054 23.40290833 C-98.47798343 22.65591997 -101.19151772 21.77030979 -104 18 C-105.06289746 15.03907136 -105.10393342 13.43652037 -104.375 10.375 C-102.58716298 7.28691787 -101.27163181 6.44923743 -98 5 C-95.03944998 5.08158996 -92.40344739 5.30829722 -89.5 5.75 C-87.8843259 5.96255003 -86.26843763 6.17347812 -84.65234375 6.3828125 C-83.86069824 6.49012695 -83.06905273 6.59744141 -82.25341797 6.70800781 C-58.31917153 9.80934679 -33.17144896 7.66585951 -10.1875 0.1875 C-6.44079674 -0.99189703 -3.79642753 -1.44625811 0 0 Z " fill="#002F46" transform="translate(331,444)"/>
<path d="M0 0 C0.89978073 -0.0087616 1.79956146 -0.01752319 2.72660828 -0.02655029 C5.69518529 -0.04852254 8.66226773 -0.03399919 11.63085938 -0.01708984 C13.69682094 -0.0204586 15.76278057 -0.02531171 17.82873535 -0.03158569 C22.15636077 -0.03895409 26.48346981 -0.0282523 30.81103516 -0.00488281 C36.35641837 0.02360462 41.90059166 0.00720051 47.44593048 -0.02274513 C51.71137599 -0.0408188 55.97653496 -0.03505969 60.24198914 -0.02210617 C62.28651574 -0.01877237 64.33106842 -0.02285832 66.37556458 -0.03450394 C69.23414951 -0.04721355 72.09077934 -0.027834 74.94921875 0 C75.79300583 -0.01012115 76.63679291 -0.02024231 77.50614929 -0.03067017 C81.79422533 0.04662579 83.50339593 0.28961964 87.03088379 2.9647522 C88.97460938 5.64697266 88.97460938 5.64697266 89.09960938 9.20947266 C87.73223027 13.38757547 86.70347291 14.37448896 82.97460938 16.64697266 C80.02327583 17.21807976 77.13173343 17.1939805 74.1328125 17.16455078 C72.81240211 17.1750647 72.81240211 17.1750647 71.46531677 17.18579102 C68.56184136 17.20336494 65.65934433 17.19175039 62.75585938 17.17822266 C60.73473931 17.18091774 58.71362051 17.1848003 56.69250488 17.18981934 C52.45910279 17.19571357 48.22603857 17.1871537 43.99267578 17.16845703 C38.56850541 17.14566768 33.14512674 17.15879114 27.72098541 17.18274689 C23.54821822 17.19720678 19.37563846 17.19259796 15.2028656 17.18223572 C13.20299689 17.17956897 11.20311111 17.18283636 9.20326233 17.19215393 C6.40718565 17.20232255 3.61238778 17.1868141 0.81640625 17.16455078 C-0.00867935 17.17264771 -0.83376495 17.18074463 -1.68385315 17.18908691 C-5.59571833 17.13143496 -7.59232043 16.9108989 -11.00769043 14.82946777 C-13.83562934 11.770558 -14.17039998 9.77973941 -14.02539062 5.64697266 C-9.97375782 0.05597129 -6.40421018 -0.07681796 0 0 Z " fill="#F8FDFD" transform="translate(363.025390625,151.35302734375)"/>
<path d="M0 0 C1.95476629 3.55412053 2.15809809 6.53556594 1.375 10.5 C-1.09307307 14.40778236 -3.94990633 14.94476379 -8.29248047 15.97753906 C-10.70818406 16.51863239 -13.12793837 17.03482454 -15.55078125 17.54296875 C-33.54461591 21.3235927 -49.50719904 26.79557172 -65.51000977 35.94384766 C-70.38436785 38.6595818 -73.87804868 40.33246817 -79.625 39.5 C-83.31686542 36.90783917 -84.45383761 35.45850936 -85.25 31 C-84.45119208 26.52667562 -83.02703005 25.46203417 -79.625 22.5 C-77.21070933 20.88551832 -74.70287424 19.5221848 -72.125 18.1875 C-71.39015381 17.80432617 -70.65530762 17.42115234 -69.89819336 17.02636719 C-54.81213038 9.37549939 -16.65267434 -9.51581391 0 0 Z " fill="#002F47" transform="translate(251.625,93.5)"/>
<path d="M0 0 C3.5 0.625 3.5 0.625 6.375 2.5625 C15.53988438 15.77071572 9.88011289 46.89052202 7.34765625 62.06640625 C7.07087282 63.58699884 6.78883676 65.10665082 6.5 66.625 C6.27183594 67.83027344 6.04367187 69.03554688 5.80859375 70.27734375 C4.84982802 74.446605 3.97675295 77.04230195 1.25 80.375 C-2.49529669 82.07740759 -4.57898136 81.76565997 -8.5 80.625 C-10.9375 79.0625 -10.9375 79.0625 -12.5 76.625 C-12.79435226 70.93418957 -12.1603422 65.75841089 -11.0625 60.1875 C-9.35990354 51.34866194 -8.32667274 42.84080574 -8.578125 33.828125 C-8.60535097 32.19402972 -8.63135741 30.55991374 -8.65625 28.92578125 C-8.69962932 26.38858372 -8.75063577 23.85248609 -8.82226562 21.31591797 C-8.88892035 18.84064701 -8.92362462 16.36658109 -8.953125 13.890625 C-8.98206848 13.13533508 -9.01101196 12.38004517 -9.04083252 11.60186768 C-9.06102135 7.61857815 -8.66086185 5.83238595 -6.19042969 2.64746094 C-3.5 0.625 -3.5 0.625 0 0 Z " fill="#002F47" transform="translate(449.5,250.375)"/>
<path d="M0 0 C1.11069351 -0.00619858 2.22138702 -0.01239716 3.36573792 -0.01878357 C5.71167119 -0.02587882 8.05765484 -0.02271296 10.40356445 -0.01000977 C13.98808752 0.00384511 17.56999462 -0.03021017 21.15429688 -0.06835938 C23.43619855 -0.0693107 25.71810349 -0.06745105 28 -0.0625 C29.06890976 -0.07575821 30.13781952 -0.08901642 31.23912048 -0.10267639 C39.53852011 0.00087836 39.53852011 0.00087836 43.24633789 2.91821289 C45.56640625 5.56640625 45.56640625 5.56640625 46.25390625 8.56640625 C45.28992053 12.77288941 44.06251242 13.99552037 40.56640625 16.56640625 C36.6015304 17.3209528 32.68634193 17.26692337 28.66015625 17.23046875 C27.50269897 17.23525238 26.3452417 17.24003601 25.15270996 17.2449646 C22.70840087 17.24836325 20.2640463 17.2391635 17.81982422 17.21826172 C14.07937217 17.19149902 10.34192126 17.2180143 6.6015625 17.25 C4.2252538 17.2466959 1.84894696 17.24028967 -0.52734375 17.23046875 C-2.20407166 17.24565048 -2.20407166 17.24565048 -3.91467285 17.26113892 C-11.62637396 17.14478386 -11.62637396 17.14478386 -15.66992188 14.24755859 C-17.43359375 11.56640625 -17.43359375 11.56640625 -17.55859375 8.00390625 C-14.71578517 -0.6824533 -7.86856148 -0.03644206 0 0 Z " fill="#F8FDFD" transform="translate(406.43359375,183.43359375)"/>
<path d="M0 0 C1.18343994 -0.00241196 2.36687988 -0.00482391 3.58618164 -0.00730896 C6.08776196 -0.00632965 8.58936372 0.00708352 11.09082031 0.03198242 C14.92327379 0.06627894 18.75342117 0.05264628 22.5859375 0.03320312 C25.01563483 0.04010158 27.4453262 0.04977394 29.875 0.0625 C31.02299072 0.05754013 32.17098145 0.05258026 33.35375977 0.04747009 C34.95562134 0.07122459 34.95562134 0.07122459 36.58984375 0.09545898 C37.52820068 0.10165756 38.46655762 0.10785614 39.43334961 0.11424255 C42.70879269 0.78742562 43.90790489 2.01521127 45.9375 4.62890625 C46.4375 8.12890625 46.4375 8.12890625 45.9375 11.62890625 C44.07041495 13.99388064 42.61688569 15.2892134 39.9375 16.62890625 C38.36106325 16.73911981 36.78013445 16.78800185 35.19995117 16.8059082 C34.21520309 16.81874344 33.23045502 16.83157867 32.21586609 16.84480286 C31.14818497 16.85218979 30.08050385 16.85957672 28.98046875 16.8671875 C27.88535477 16.87525925 26.79024078 16.88333099 25.66194153 16.89164734 C23.3409687 16.90549529 21.01997545 16.91621425 18.69897461 16.92407227 C15.14983517 16.9412858 11.60162684 16.98516685 8.05273438 17.02929688 C5.79948603 17.0394235 3.54622975 17.04793969 1.29296875 17.0546875 C-0.29944389 17.08094963 -0.29944389 17.08094963 -1.92402649 17.10774231 C-9.26924688 17.08612811 -9.26924688 17.08612811 -13.20581055 14.81713867 C-15.81872833 11.7376407 -16.1328308 9.63776197 -16.0625 5.62890625 C-12.84346527 -1.28133022 -6.65191388 -0.07682333 0 0 Z " fill="#218480" transform="translate(76.0625,80.37109375)"/>
<path d="M0 0 C1.63630371 -0.00361794 1.63630371 -0.00361794 3.30566406 -0.00730896 C5.60876099 -0.0063308 7.91188152 0.00705511 10.21484375 0.03198242 C13.7377926 0.06628738 17.25823252 0.05263877 20.78125 0.03320312 C23.020844 0.04010173 25.26043153 0.04977424 27.5 0.0625 C28.55219727 0.05754013 29.60439453 0.05258026 30.68847656 0.04747009 C37.98190515 0.16478716 37.98190515 0.16478716 41.91162109 2.53930664 C43.88724668 4.78490815 44.43264602 5.67742981 44.375 8.62890625 C44.38789062 9.28890625 44.40078125 9.94890625 44.4140625 10.62890625 C43.31649997 13.93450633 41.73327499 14.82959478 38.75 16.62890625 C34.99019255 17.23039758 31.26589759 17.18931937 27.46484375 17.16015625 C26.37160294 17.16398315 25.27836212 17.16781006 24.1519928 17.17175293 C21.84472735 17.17447093 19.53743103 17.16711767 17.23022461 17.15039062 C13.69640581 17.12896026 10.16461545 17.15020818 6.63085938 17.17578125 C4.38801634 17.17313836 2.14517457 17.16801419 -0.09765625 17.16015625 C-1.68369408 17.17230164 -1.68369408 17.17230164 -3.30177307 17.18469238 C-10.58079884 17.09147797 -10.58079884 17.09147797 -13.88061523 14.81054688 C-15.87683151 11.63026721 -16.3158222 9.38077185 -16.25 5.62890625 C-12.01765917 -0.67771768 -6.92359844 -0.08724079 0 0 Z " fill="#218380" transform="translate(76.25,115.37109375)"/>
<path d="M0 0 C2.76772658 1.89370766 3.75599066 3.23976988 4.77734375 6.421875 C5.11060731 11.77747881 3.59813367 16.4855807 2.1875 21.625 C0.22994149 28.89329958 -1.44811697 36.03897091 -2.50366211 43.4987793 C-3.18709875 46.94285621 -4.26562393 48.79730816 -7 51 C-10.38226829 52.07944733 -12.32742626 52.1834292 -15.75 51.25 C-18 50 -18 50 -20 47 C-20.48732733 39.76175577 -19.2758803 33.18331182 -17.75 26.125 C-17.54503906 25.11308594 -17.34007813 24.10117188 -17.12890625 23.05859375 C-13.35471387 5.19408316 -13.35471387 5.19408316 -9.08886719 1.21923828 C-5.92552294 -0.62715503 -3.58419715 -0.44802464 0 0 Z " fill="#002F47" transform="translate(101,214)"/>
<path d="M0 0 C1.81242052 -0.02687279 3.62495233 -0.04633715 5.4375 -0.0625 C6.44683594 -0.07410156 7.45617187 -0.08570313 8.49609375 -0.09765625 C11 0 11 0 12 1 C12.09573025 2.77207325 12.18468935 4.54477806 12.23901367 6.31860352 C12.77554655 22.70157251 17.29253878 38.69101652 24.68359375 53.3359375 C26 56 26 56 26 58 C21.38 58 16.76 58 12 58 C2.77152246 39.01570334 -0.42464887 21.02011892 0 0 Z " fill="#B15F41" transform="translate(143,279)"/>
<path d="M0 0 C1.17018677 -0.00717545 1.17018677 -0.00717545 2.36401367 -0.01449585 C4.00799586 -0.01788758 5.65204615 -0.00873581 7.29589844 0.01220703 C9.80557295 0.03898858 12.31077629 0.0124405 14.8203125 -0.01953125 C16.42188482 -0.01622702 18.02345438 -0.00982049 19.625 0 C20.37096436 -0.01012115 21.11692871 -0.02024231 21.88549805 -0.03067017 C25.82313283 0.05745474 27.64866791 0.53643149 30.7890625 2.98291016 C32.8125 5.6640625 32.8125 5.6640625 33.375 9.2265625 C32.70640661 13.31241101 32.11644669 14.24268358 28.8125 16.6640625 C25.91385241 17.0740803 23.40178818 17.2490627 20.50390625 17.23046875 C19.29830299 17.23976662 19.29830299 17.23976662 18.06834412 17.24925232 C16.37134002 17.25634449 14.67426626 17.2531869 12.97729492 17.24047852 C10.38654882 17.22662426 7.79942476 17.26067187 5.20898438 17.29882812 C3.55729079 17.29977951 1.90559269 17.29791946 0.25390625 17.29296875 C-0.90255653 17.31285606 -0.90255653 17.31285606 -2.0823822 17.33314514 C-6.10705785 17.2638075 -7.97634365 16.83023104 -11.17602539 14.31225586 C-13.1875 11.6640625 -13.1875 11.6640625 -13.8125 8.6640625 C-12.25458215 1.1860568 -6.81122327 -0.09241386 0 0 Z " fill="#218480" transform="translate(73.1875,150.3359375)"/>
<path d="M0 0 C1.093125 -0.02384766 2.18625 -0.04769531 3.3125 -0.07226562 C11.26357225 -0.05764968 11.26357225 -0.05764968 14.74609375 2.875 C16.48886153 6.61027799 16.20899329 8.65105111 15 12.5625 C12.81821882 15.02084499 11.08498422 16.38273147 7.79711914 16.92749023 C5.18645335 17.06524473 2.61347508 17.0587085 0 17 C-0.88945312 17.00708984 -1.77890625 17.01417969 -2.6953125 17.02148438 C-7.57060209 16.97418679 -11.08327273 16.79222067 -15 13.5625 C-16.54586876 10.47076248 -16.29359521 7.96820448 -16 4.5625 C-11.69178146 -1.07069659 -6.5566007 -0.06572064 0 0 Z " fill="#84351B" transform="translate(166,357.4375)"/>
<path d="M0 0 C1.03705078 -0.02384766 2.07410156 -0.04769531 3.14257812 -0.07226562 C8.04954399 -0.06281097 10.71419237 -0.04770427 14.77734375 2.875 C16.5625 5.5625 16.5625 5.5625 16.6875 9.125 C15.30350914 13.35386095 14.38241467 14.30923388 10.5625 16.5625 C7.05148793 17.16981625 3.61830414 17.16657405 0.0625 17.125 C-1.34322266 17.16077148 -1.34322266 17.16077148 -2.77734375 17.19726562 C-7.43704232 17.18735137 -9.72845225 17.08785202 -13.55859375 14.25 C-16.02148571 10.72719403 -16.12683516 8.77510378 -15.4375 4.5625 C-11.14533513 -0.91671575 -6.47561846 -0.0681644 0 0 Z " fill="#F4BA96" transform="translate(165.4375,414.4375)"/>
<path d="M0 0 C3.65316671 1.24976756 4.78065836 1.67098753 7 5 C7.4375 8.4375 7.4375 8.4375 7 12 C4.81163833 14.672415 3.00122822 15.8503168 -0.43630981 16.36422729 C-3.53904458 16.51436016 -6.61641502 16.52784338 -9.72265625 16.49609375 C-10.86028915 16.49754898 -11.99792206 16.49900421 -13.17002869 16.50050354 C-15.57146774 16.49884566 -17.97291755 16.487297 -20.37426758 16.46655273 C-24.05270414 16.43757716 -27.72970133 16.44595138 -31.40820312 16.45898438 C-33.74219451 16.45274753 -36.07618135 16.44435702 -38.41015625 16.43359375 C-40.06181541 16.43799721 -40.06181541 16.43799721 -41.74684143 16.44248962 C-42.77147995 16.42980545 -43.79611847 16.41712128 -44.85180664 16.40405273 C-45.75161758 16.39864975 -46.65142853 16.39324677 -47.57850647 16.38768005 C-50.47806131 15.92346259 -51.88800134 15.01322045 -54 13 C-54 12.34 -54 11.68 -54 11 C-53.40753479 10.99191315 -52.81506958 10.98382629 -52.20465088 10.97549438 C-46.0401863 10.8894604 -39.8760437 10.78995716 -33.71191406 10.68261719 C-31.4111878 10.64432583 -29.11040165 10.60947326 -26.80957031 10.578125 C-23.50303738 10.5324783 -20.19691688 10.47448253 -16.890625 10.4140625 C-15.86132874 10.40251129 -14.83203247 10.39096008 -13.77154541 10.37905884 C-12.81085144 10.35918915 -11.85015747 10.33931946 -10.86035156 10.31884766 C-9.59460297 10.29886215 -9.59460297 10.29886215 -8.30328369 10.2784729 C-5.7790086 9.97328157 -4.14524344 9.35202247 -2 8 C-1.09390008 6.06018382 -1.09390008 6.06018382 -0.75 3.875 C-0.5025 2.59625 -0.255 1.3175 0 0 Z " fill="#6EB19D" transform="translate(122,86)"/>
<path d="M0 0 C2.91517292 1.07401108 4.77810176 1.77810176 7 4 C7.6921031 11.15173198 7.6921031 11.15173198 5.28820801 14.09803772 C2.57047055 16.35702559 1.41090995 16.50105503 -2.07226562 16.50170898 C-3.08011108 16.51108994 -4.08795654 16.52047089 -5.12634277 16.53013611 C-6.20871216 16.51890213 -7.29108154 16.50766815 -8.40625 16.49609375 C-9.52310181 16.49754898 -10.63995361 16.49900421 -11.79064941 16.50050354 C-14.15098683 16.4988442 -16.51133503 16.48727921 -18.87158203 16.46655273 C-22.48646966 16.43760834 -26.0998902 16.445942 -29.71484375 16.45898438 C-32.00781964 16.45274671 -34.30079088 16.44435556 -36.59375 16.43359375 C-38.21730408 16.43799721 -38.21730408 16.43799721 -39.87365723 16.44248962 C-40.88150269 16.42980545 -41.88934814 16.41712128 -42.92773438 16.40405273 C-43.81279663 16.39864975 -44.69785889 16.39324677 -45.60974121 16.38768005 C-48.48896365 15.92069417 -49.89945199 14.99665948 -52 13 C-52 12.34 -52 11.68 -52 11 C-51.42006287 10.99413376 -50.84012573 10.98826752 -50.24261475 10.98222351 C-44.20780788 10.91830079 -38.17353485 10.83388416 -32.13916016 10.73754883 C-29.8869531 10.70428976 -27.63466249 10.67626092 -25.38232422 10.65356445 C-22.14514554 10.62003704 -18.9087332 10.56772112 -15.671875 10.51171875 C-14.66445251 10.50532883 -13.65703003 10.4989389 -12.61907959 10.49235535 C-11.67840637 10.47256119 -10.73773315 10.45276703 -9.76855469 10.43237305 C-8.52945343 10.41571846 -8.52945343 10.41571846 -7.26531982 10.39872742 C-4.42930814 9.89955039 -3.05497509 9.00163381 -1 7 C-0.18685089 3.39534252 -0.18685089 3.39534252 0 0 Z " fill="#6EB09D" transform="translate(120,121)"/>
<path d="M0 0 C2.375 0.3125 2.375 0.3125 5 1 C7.48038907 4.7205836 7.46337203 6.59796571 7 11 C5.13291495 13.36497439 3.67938569 14.66030715 1 16 C-3.77973427 16.28339763 -8.56031361 16.31374058 -13.34765625 16.35009766 C-14.94220608 16.36662653 -16.53668275 16.39387651 -18.13085938 16.43212891 C-20.43658655 16.48714107 -22.7405783 16.50880817 -25.046875 16.5234375 C-26.10657501 16.55744156 -26.10657501 16.55744156 -27.18768311 16.59213257 C-31.11336856 16.57552765 -33.50201618 15.96404689 -36.49707031 13.52978516 C-39 11 -39 11 -39 10 C-37.95545654 9.98541748 -36.91091309 9.97083496 -35.8347168 9.95581055 C-31.95985655 9.89784449 -28.08557849 9.82061226 -24.21118164 9.73754883 C-22.53419441 9.70429137 -20.85709503 9.67626192 -19.17993164 9.65356445 C-16.76920775 9.62003263 -14.35951238 9.56772022 -11.94921875 9.51171875 C-11.19912033 9.50532883 -10.44902191 9.4989389 -9.67619324 9.49235535 C-5.62468611 9.38866913 -5.62468611 9.38866913 -2.04614258 7.66723633 C-0.51769964 5.23135842 -0.31367043 2.82303384 0 0 Z " fill="#6DB19D" transform="translate(106,157)"/>
<path d="M0 0 C2.3828125 -0.29296875 2.3828125 -0.29296875 5.125 -0.1875 C6.03507812 -0.16042969 6.94515625 -0.13335937 7.8828125 -0.10546875 C8.58148438 -0.07066406 9.28015625 -0.03585937 10 0 C6.85085982 10.6598395 -0.48205457 18.90475978 -7.99609375 26.8203125 C-10.0315389 28.83297488 -10.0315389 28.83297488 -11 31 C-11.66 31 -12.32 31 -13 31 C-14.05205883 24.69827387 -14.16404356 19.37852031 -10.62109375 13.90234375 C-8.29812716 10.65968314 -5.81955865 7.55045739 -3.23681641 4.51123047 C-1.79994489 2.80577145 -1.79994489 2.80577145 0 0 Z " fill="#C4843D" transform="translate(368,338)"/>
<path d="M0 0 C3.0625 2.0625 3.0625 2.0625 5 5 C5.15129568 9.31192698 4.70478473 11.21466844 1.8125 14.4375 C-1.56275179 16.31263988 -3.2007634 16.71235686 -7 16 C-9.875 13.9375 -9.875 13.9375 -12 11 C-12.62491523 7.04220351 -12.61006839 4.99136114 -10.5 1.5625 C-7.02348669 -0.61032082 -3.92483969 -0.88425242 0 0 Z " fill="#F3B894" transform="translate(115,415)"/>
<path d="M0 0 C3.0625 2.0625 3.0625 2.0625 5 5 C5.15129568 9.31192698 4.70478473 11.21466844 1.8125 14.4375 C-1.56275179 16.31263988 -3.2007634 16.71235686 -7 16 C-9.875 13.9375 -9.875 13.9375 -12 11 C-12.62491523 7.04220351 -12.61006839 4.99136114 -10.5 1.5625 C-7.02348669 -0.61032082 -3.92483969 -0.88425242 0 0 Z " fill="#F3B895" transform="translate(89,415)"/>
<path d="M0 0 C2.9375 1.625 2.9375 1.625 5 4 C5.56339312 7.86326714 5.29233325 10.79073346 3 14 C0.36491618 16.04950964 -1.1135512 15.9979723 -4.5 15.9375 C-8 15 -8 15 -10.5 12.875 C-12.48799759 9.06467129 -12.20899436 7.08035596 -11 3 C-7.91488564 -0.67840558 -4.57457341 -0.56178972 0 0 Z " fill="#F3B995" transform="translate(63,415)"/>
<path d="M0 0 C2.5 2.125 2.5 2.125 4 5 C4 8.7455316 3.81498619 10.98941713 1.4375 13.9375 C-2.09204141 15.47601805 -5.22055094 15.8209459 -9 15 C-11.98202078 12.46528234 -12.83065071 10.81287661 -13.625 7 C-12.90385191 3.53848918 -11.64268867 1.94288605 -8.78515625 -0.14453125 C-5.53599179 -1.70157067 -3.31572655 -1.10524218 0 0 Z " fill="#82321B" transform="translate(90,301)"/>
<path d="M0 0 C2.4375 1.6875 2.4375 1.6875 4 4 C4.63656938 7.73984509 4.25584708 9.50962644 2.5 12.875 C-0.35812196 15.30440367 -2.27819584 15.73997051 -6.0234375 15.48046875 C-9.57637321 14.61681046 -11.02953982 12.98747189 -13 10 C-13.1506132 5.70752394 -12.66257079 3.77949504 -9.875 0.5 C-6.05036816 -1.49546009 -4.10368679 -1.19379979 0 0 Z " fill="#83331B" transform="translate(64,301)"/>
<path d="M0 0 C3.0625 2.0625 3.0625 2.0625 5 5 C5.0652915 8.78690691 4.83811613 10.960736 2.4375 13.9375 C-1.09387641 15.47681792 -4.21223417 15.68303974 -8 15 C-10.5 13.4375 -10.5 13.4375 -12 11 C-12.55802097 7.09385318 -12.58392818 4.94888329 -10.5 1.5625 C-7.02348669 -0.61032082 -3.92483969 -0.88425242 0 0 Z " fill="#83341B" transform="translate(115,358)"/>
<path d="M0 0 C2.625 2.0625 2.625 2.0625 4 5 C4 8.7455316 3.81498619 10.98941713 1.4375 13.9375 C-2.09387641 15.47681792 -5.21223417 15.68303974 -9 15 C-11.5 13.4375 -11.5 13.4375 -13 11 C-13.55326548 7.12714161 -13.56331202 4.95518126 -11.5625 1.5625 C-7.76401993 -0.75364638 -4.32911985 -0.90388217 0 0 Z " fill="#82321B" transform="translate(116,301)"/>
<path d="M0 0 C2.625 2.0625 2.625 2.0625 4 5 C3.94040042 8.4567758 3.85309674 10.88161098 1.71875 13.6796875 C-1.0318251 15.79262928 -3.47427665 15.53451289 -6.8359375 15.4140625 C-9 15 -9 15 -11.5625 12.875 C-13.2431765 9.51364699 -13.63069292 7.70532093 -13 4 C-9.99516221 -0.96451461 -5.28862958 -1.10421936 0 0 Z " fill="#82331A" transform="translate(90,358)"/>
<path d="M0 0 C2.1640625 0.34765625 2.1640625 0.34765625 4.7265625 1.97265625 C6.61452046 5.09189114 6.75081931 6.75377077 6.1640625 10.34765625 C4.7265625 13.22265625 4.7265625 13.22265625 2.1640625 15.34765625 C-0.98148074 16.06333948 -3.6896409 16.05643735 -6.8359375 15.34765625 C-9.4609375 13.28515625 -9.4609375 13.28515625 -10.8359375 10.34765625 C-10.7763076 6.88912193 -10.68657206 4.4654108 -8.5546875 1.6640625 C-5.80489665 -0.44202731 -3.35229314 -0.1255745 0 0 Z " fill="#83331A" transform="translate(61.8359375,357.65234375)"/>
<path d="M0 0 C2.85866009 -0.23822167 5.19819084 -0.42775712 8 0 C10.90799783 2.5444981 11.90702057 3.95398137 12.25 7.8125 C12.1675 8.534375 12.085 9.25625 12 10 C8 10 8 10 5.859375 8.3203125 C5.16328125 7.59585937 4.4671875 6.87140625 3.75 6.125 C3.04359375 5.40570313 2.3371875 4.68640625 1.609375 3.9453125 C0 2 0 2 0 0 Z " fill="#6E321C" transform="translate(170,358)"/>
<path d="M0 0 C0.66 0.33 1.32 0.66 2 1 C-0.31 3.31 -2.62 5.62 -5 8 C-5.33 7.34 -5.66 6.68 -6 6 C-2.25 1.125 -2.25 1.125 0 0 Z " fill="#166598" transform="translate(276,43)"/>
</svg>
